<?xml version="1.0" encoding="UTF-8"?>
<svg id="Layer_1" xmlns="http://www.w3.org/2000/svg" version="1.1" viewBox="0 0 640 640">
  <!-- Generator: Adobe Illustrator 29.7.1, SVG Export Plug-In . SVG Version: 2.1.1 Build 8)  -->
  <defs>
    <style>
      .st0 {
        fill: #fef5ea;
      }
    </style>
  </defs>
  <path class="st0" d="M224,64c17.7,0,32,14.3,32,32v32h128v-32c0-17.7,14.3-32,32-32s32,14.3,32,32v32h32c35.3,0,64,28.7,64,64v288c0,35.3-28.7,64-64,64H160c-35.3,0-64-28.7-64-64V192c0-35.3,28.7-64,64-64h32v-32c0-17.7,14.3-32,32-32ZM224,320c-17.7,0-32,14.3-32,32v64c0,17.7,14.3,32,32,32h64c17.7,0,32-14.3,32-32v-64c0-17.7-14.3-32-32-32h-64Z"/>
</svg>