<?xml version="1.0" encoding="UTF-8"?>
<svg id="Layer_1" xmlns="http://www.w3.org/2000/svg" viewBox="0 0 1024 768">
  <defs>
    <style>
      .cls-1 {
        letter-spacing: 0em;
      }

      .cls-2 {
        font-size: 48px;
      }

      .cls-2, .cls-3, .cls-4 {
        fill: #231f20;
        font-family: Montserrat-Medium, Montserrat;
        font-weight: 500;
      }

      .cls-5 {
        fill: #7db0bd;
      }

      .cls-6 {
        fill: #debad2;
      }

      .cls-7 {
        fill: #bca6cc;
      }

      .cls-8 {
        letter-spacing: 0em;
      }

      .cls-3, .cls-4 {
        font-size: 27.63px;
      }

      .cls-4, .cls-9 {
        letter-spacing: 0em;
      }

      .cls-10 {
        letter-spacing: -.02em;
      }

      .cls-11 {
        letter-spacing: -.02em;
      }

      .cls-12 {
        letter-spacing: -.01em;
      }

      .cls-13 {
        letter-spacing: -.02em;
      }

      .cls-14 {
        letter-spacing: -.02em;
      }

      .cls-15 {
        letter-spacing: -.01em;
      }

      .cls-16 {
        letter-spacing: -.01em;
      }

      .cls-17 {
        letter-spacing: -.03em;
      }

      .cls-18 {
        letter-spacing: -.01em;
      }

      .cls-19 {
        letter-spacing: -.01em;
      }

      .cls-20 {
        letter-spacing: -.01em;
      }

      .cls-21 {
        letter-spacing: 0em;
      }

      .cls-22 {
        fill: #e3d0e6;
      }

      .cls-23 {
        letter-spacing: 0em;
      }

      .cls-24 {
        letter-spacing: 0em;
      }

      .cls-25 {
        letter-spacing: 0em;
      }

      .cls-26 {
        fill: #acd6d2;
      }
    </style>
  </defs>
  <g>
    <path d="M423.27,638.79l-6,6.3h-23.58l4.36-24.49h28.34l-6.04,6.37h-15.85l-.51,2.93h19.37l-5.27,5.56h-15.08l-.59,3.33h20.87Z"/>
    <path d="M459.52,620.59l-6.08,6.37h-8.71l-3.22,18.12h-7.58l3.19-18.12h-11.5l6.08-6.37h27.83Z"/>
    <path d="M487.2,645.09h-7.54l1.68-9.45h-14.61l-1.65,9.45h-7.62l4.36-24.49h7.58l-1.57,8.68h14.61l1.54-8.68h7.58l-4.36,24.49Z"/>
    <path d="M513.78,644.17l-12.63-13.47-2.53,14.39h-6.88l3.55-20.32c.55-3.26,2.71-4.58,4.98-4.58.92,0,1.83.22,2.82,1.32l12.63,13.47,2.56-14.39h6.88l-3.62,20.28c-.59,3.26-2.75,4.61-4.94,4.61-1.02,0-1.79-.22-2.82-1.32Z"/>
    <path d="M562.77,630.55c0,10.07-6.66,14.94-20.39,14.94-10.58,0-15.93-3.29-15.93-10.4,0-10.07,6.66-14.9,20.39-14.9,10.58,0,15.93,3.26,15.93,10.36ZM555.15,631.32c0-3.95-2.78-4.76-9.45-4.76-9.85,0-11.64,1.5-11.64,7.8,0,3.95,2.82,4.76,9.41,4.76,9.85,0,11.68-1.54,11.68-7.8Z"/>
    <path d="M596.46,638.79l-5.97,6.3h-12.3c-7.65,0-12.74-4.61-12.74-10.8,0-8.05,7.69-13.69,17.06-13.69h17.17l-6,6.37h-12.3c-4.5,0-8.31,2.89-8.31,6.77,0,3.04,2.53,5.05,6.22,5.05h17.17Z"/>
    <path d="M627.58,638.79l-6,6.3h-23.58l4.36-24.49h28.34l-6.04,6.37h-15.85l-.51,2.93h19.37l-5.27,5.56h-15.08l-.59,3.33h20.87Z"/>
    <path d="M650.98,644.17l-12.63-13.47-2.53,14.39h-6.88l3.55-20.32c.55-3.26,2.71-4.58,4.98-4.58.92,0,1.83.22,2.82,1.32l12.63,13.47,2.56-14.39h6.88l-3.62,20.28c-.59,3.26-2.75,4.61-4.94,4.61-1.03,0-1.79-.22-2.82-1.32Z"/>
    <path d="M697.29,620.59l-6.08,6.37h-8.71l-3.22,18.12h-7.58l3.19-18.12h-11.5l6.08-6.37h27.83Z"/>
    <path d="M727.54,645.09h-10.14l-4.32-6.48h-11.64l-1.13,6.48h-7.58l2.2-12.52h21.31c2.53,0,4.72-1.21,4.72-3.19,0-1.61-1.39-2.42-3.73-2.42h-21.31l6.08-6.37h15.74c5.13,0,11.2,1.57,11.2,7.43,0,4.43-3.19,8.16-7.91,9.08.7.62,1.46,1.5,2.82,3.22l3.7,4.76Z"/>
    <path d="M737.94,645.09h-7.58l4.36-24.49h7.54l-4.32,24.49Z"/>
    <path d="M774.92,638.79l-5.97,6.3h-12.3c-7.65,0-12.74-4.61-12.74-10.8,0-8.05,7.69-13.69,17.06-13.69h17.17l-6,6.37h-12.3c-4.5,0-8.31,2.89-8.31,6.77,0,3.04,2.53,5.05,6.22,5.05h17.17Z"/>
    <path d="M807.25,630.33l-4.54,4.72h-12.23l4.54-4.72h12.23Z"/>
    <path d="M829.18,645.09h-7.58l4.36-24.49h7.54l-4.32,24.49Z"/>
    <path d="M868.69,620.59l-6.08,6.37h-8.71l-3.22,18.12h-7.58l3.19-18.12h-11.5l6.08-6.37h27.83Z"/>
    <path d="M869.28,645.09l5.71-6.3h6.11c1.5,0,3.19,0,4.36.07-.51-.88-1.28-2.38-1.87-3.55l-3.26-6.48-14.35,16.26h-8.97l19.62-22.15c1.28-1.43,3-2.75,5.38-2.75s3.55,1.21,4.36,2.75l11.39,22.15h-28.48Z"/>
    <path d="M928.15,638.79l-6.04,6.3h-21.64l4.36-24.49h7.54l-3.22,18.2h19Z"/>
    <path d="M937.23,645.09h-7.58l4.36-24.49h7.54l-4.32,24.49Z"/>
    <path d="M974.21,638.79l-5.97,6.3h-12.3c-7.65,0-12.74-4.61-12.74-10.8,0-8.05,7.69-13.69,17.06-13.69h17.17l-6,6.37h-12.3c-4.5,0-8.31,2.89-8.31,6.77,0,3.04,2.53,5.05,6.22,5.05h17.17Z"/>
    <path d="M414.3,676.27c2.97,0,5.42,2.42,5.42,5.42v15.52c0,3-2.45,5.42-5.42,5.42h-15.52c-3,0-5.42-2.42-5.42-5.42v-15.52c0-3,2.42-5.42,5.42-5.42h15.52ZM399.03,696.92h14.94v-14.94h-14.94v14.94Z"/>
    <path d="M440.66,681.39v5.6h-11.46v15.63h-5.6v-15.93c0-2.89,2.42-5.31,5.35-5.31h11.72Z"/>
    <path d="M464.83,686.7v10.62c0,2.89-2.38,5.31-5.31,5.31h-16.22v-28.19h5.6v6.96h10.62c2.93,0,5.31,2.42,5.31,5.31ZM448.9,697.03h10.32v-10.03h-10.32v10.03Z"/>
    <path d="M473.25,674.44v5.64h-5.6v-5.64h5.6ZM467.65,681.39h5.6v21.23h-5.6v-21.23Z"/>
    <path d="M482.4,686.99v10.03h7.87v5.6h-8.13c-2.97,0-5.35-2.42-5.35-5.31v-22.22h5.6v6.3h7.87v5.6h-7.87Z"/>
    <path d="M510.7,681.39v5.6h-11.46v15.63h-5.6v-15.93c0-2.89,2.42-5.31,5.35-5.31h11.72Z"/>
    <path d="M529.27,681.39c2.93,0,5.31,2.42,5.31,5.31v10.62c0,2.89-2.38,5.31-5.31,5.31h-10.91c-2.89,0-5.31-2.42-5.31-5.31v-10.62c0-2.89,2.42-5.31,5.31-5.31h10.91ZM518.65,697.03h10.32v-10.03h-10.32v10.03Z"/>
    <path d="M558.96,686.7v15.93h-5.6v-15.63h-10.32v15.63h-5.6v-21.23h16.22c2.93,0,5.31,2.42,5.31,5.31Z"/>
    <path d="M590.16,694.61h-15.27v-5.6h15.27v5.6Z"/>
    <path d="M630.95,686.63c0,.62-.07,1.21-.26,1.68.73.92,1.28,2.2,1.28,3.44v5.46c0,3-2.45,5.42-5.46,5.42h-20.91v-26.36h19.92c2.97,0,5.42,2.42,5.42,5.42v4.94ZM611.28,686.37h13.91v-4.39h-13.91v4.39ZM611.28,696.92h14.94v-4.83h-14.94v4.83Z"/>
    <path d="M641.45,674.4v22.63h4.28v5.6h-4.61c-2.89,0-5.31-2.42-5.31-5.31v-22.92h5.64Z"/>
    <path d="M670.09,686.7v15.93h-16.22c-2.93,0-5.31-2.42-5.31-5.31v-8.13h15.93v-2.2h-15.93v-5.6h16.22c2.93,0,5.31,2.42,5.31,5.31ZM664.48,694.1h-10.32v2.93h10.32v-2.93Z"/>
    <path d="M678.25,686.99v10.03h15.93v5.6h-16.22c-2.89,0-5.31-2.42-5.31-5.31v-10.62c0-2.89,2.42-5.31,5.31-5.31h16.18v5.6h-15.89Z"/>
    <path d="M718.45,681.39v1.9l-7.91,8.71,7.91,8.71v1.9h-5.64l-7.21-7.8h-2.86v7.8h-5.6v-28.19h5.6v14.75h2.86l7.21-7.8h5.64Z"/>
  </g>
  <g>
    <rect class="cls-26" x="622.64" y="119.08" width="137.4" height="137.4" rx="68.7" ry="68.7"/>
    <rect class="cls-22" x="518.25" y="322.71" width="137.4" height="137.4" rx="68.7" ry="68.7"/>
    <rect class="cls-6" x="727.03" y="322.71" width="137.4" height="137.4" rx="68.7" ry="68.7"/>
    <rect class="cls-7" x="398.41" y="119.08" width="137.4" height="137.4" rx="68.7" ry="68.7"/>
    <rect class="cls-5" x="846.87" y="119.08" width="137.4" height="137.4" rx="68.7" ry="68.7"/>
    <text class="cls-3" transform="translate(398.88 290.56)"><tspan x="0" y="0">#B</tspan><tspan class="cls-14" x="40.34" y="0">C</tspan><tspan class="cls-23" x="59.85" y="0">A</tspan><tspan x="79.86" y="0">6</tspan><tspan class="cls-11" x="96.91" y="0">C</tspan><tspan x="116.47" y="0">C</tspan></text>
    <text class="cls-3" transform="translate(622.69 290.56)"><tspan class="cls-9" x="0" y="0">#</tspan><tspan class="cls-18" x="19.37" y="0">A</tspan><tspan class="cls-9" x="39.27" y="0">CD6</tspan><tspan class="cls-19" x="98.95" y="0">D</tspan><tspan class="cls-25" x="121.44" y="0">2</tspan></text>
    <text class="cls-4" transform="translate(844.8 290.56)"><tspan x="0" y="0">#7DB0BD</tspan></text>
    <text class="cls-3" transform="translate(522.03 494.19)"><tspan x="0" y="0">#</tspan><tspan class="cls-18" x="19.43" y="0">E</tspan><tspan x="37.61" y="0">3D0</tspan><tspan class="cls-16" x="94.67" y="0">E</tspan><tspan x="112.8" y="0">6</tspan></text>
    <text class="cls-3" transform="translate(725.57 494.19)"><tspan x="0" y="0">#DEBA</tspan><tspan class="cls-20" x="101.91" y="0">D</tspan><tspan x="124.46" y="0">2</tspan></text>
  </g>
  <text class="cls-2" transform="translate(41.51 77.57)"><tspan class="cls-10" x="0" y="0">C</tspan><tspan class="cls-8" x="33.65" y="0">olor </tspan><tspan class="cls-12" x="140.59" y="0">P</tspan><tspan x="174.53" y="0">ale</tspan><tspan class="cls-15" x="246" y="0">t</tspan><tspan class="cls-13" x="265.25" y="0">t</tspan><tspan x="284.25" y="0">e</tspan></text>
  <text class="cls-2" transform="translate(41.51 569.43)"><tspan class="cls-17" x="0" y="0">T</tspan><tspan class="cls-1" x="26.59" y="0">ypog</tspan><tspan class="cls-24" x="149.76" y="0">r</tspan><tspan class="cls-1" x="169.05" y="0">apg</tspan><tspan class="cls-21" x="263.61" y="0">h</tspan><tspan x="295.82" y="0">y</tspan></text>
</svg>