<?xml version="1.0" encoding="UTF-8"?>
<svg id="Layer_1" xmlns="http://www.w3.org/2000/svg" viewBox="0 0 1024 890">
  <defs>
    <style>
      .cls-1 {
        fill: #231f20;
      }

      .cls-2 {
        fill: #debad2;
      }

      .cls-3 {
        fill: #bca6cc;
      }

      .cls-4 {
        fill: #7db0bd;
      }

      .cls-5 {
        fill: #e3d0e6;
      }

      .cls-6 {
        fill: #acd6d2;
      }
    </style>
  </defs>
  <g>
    <path d="M423.27,638.79l-6,6.3h-23.58l4.36-24.49h28.34l-6.04,6.37h-15.85l-.51,2.93h19.37l-5.27,5.56h-15.08l-.59,3.33h20.87Z"/>
    <path d="M459.52,620.59l-6.08,6.37h-8.71l-3.22,18.12h-7.58l3.19-18.12h-11.5l6.08-6.37h27.83Z"/>
    <path d="M487.2,645.09h-7.54l1.68-9.45h-14.61l-1.65,9.45h-7.62l4.36-24.49h7.58l-1.57,8.68h14.61l1.54-8.68h7.58l-4.36,24.49Z"/>
    <path d="M513.78,644.17l-12.63-13.47-2.53,14.39h-6.88l3.55-20.32c.55-3.26,2.71-4.58,4.98-4.58.92,0,1.83.22,2.82,1.32l12.63,13.47,2.56-14.39h6.88l-3.62,20.28c-.59,3.26-2.75,4.61-4.94,4.61-1.02,0-1.79-.22-2.82-1.32Z"/>
    <path d="M562.77,630.55c0,10.07-6.66,14.94-20.39,14.94-10.58,0-15.93-3.29-15.93-10.4,0-10.07,6.66-14.9,20.39-14.9,10.58,0,15.93,3.26,15.93,10.36ZM555.15,631.32c0-3.95-2.78-4.76-9.45-4.76-9.85,0-11.64,1.5-11.64,7.8,0,3.95,2.82,4.76,9.41,4.76,9.85,0,11.68-1.54,11.68-7.8Z"/>
    <path d="M596.46,638.79l-5.97,6.3h-12.3c-7.65,0-12.74-4.61-12.74-10.8,0-8.05,7.69-13.69,17.06-13.69h17.17l-6,6.37h-12.3c-4.5,0-8.31,2.89-8.31,6.77,0,3.04,2.53,5.05,6.22,5.05h17.17Z"/>
    <path d="M627.58,638.79l-6,6.3h-23.58l4.36-24.49h28.34l-6.04,6.37h-15.85l-.51,2.93h19.37l-5.27,5.56h-15.08l-.59,3.33h20.87Z"/>
    <path d="M650.98,644.17l-12.63-13.47-2.53,14.39h-6.88l3.55-20.32c.55-3.26,2.71-4.58,4.98-4.58.92,0,1.83.22,2.82,1.32l12.63,13.47,2.56-14.39h6.88l-3.62,20.28c-.59,3.26-2.75,4.61-4.94,4.61-1.03,0-1.79-.22-2.82-1.32Z"/>
    <path d="M697.29,620.59l-6.08,6.37h-8.71l-3.22,18.12h-7.58l3.19-18.12h-11.5l6.08-6.37h27.83Z"/>
    <path d="M727.54,645.09h-10.14l-4.32-6.48h-11.64l-1.13,6.48h-7.58l2.2-12.52h21.31c2.53,0,4.72-1.21,4.72-3.19,0-1.61-1.39-2.42-3.73-2.42h-21.31l6.08-6.37h15.74c5.13,0,11.2,1.57,11.2,7.43,0,4.43-3.19,8.16-7.91,9.08.7.62,1.46,1.5,2.82,3.22l3.7,4.76Z"/>
    <path d="M737.94,645.09h-7.58l4.36-24.49h7.54l-4.32,24.49Z"/>
    <path d="M774.92,638.79l-5.97,6.3h-12.3c-7.65,0-12.74-4.61-12.74-10.8,0-8.05,7.69-13.69,17.06-13.69h17.17l-6,6.37h-12.3c-4.5,0-8.31,2.89-8.31,6.77,0,3.04,2.53,5.05,6.22,5.05h17.17Z"/>
    <path d="M807.25,630.33l-4.54,4.72h-12.23l4.54-4.72h12.23Z"/>
    <path d="M829.18,645.09h-7.58l4.36-24.49h7.54l-4.32,24.49Z"/>
    <path d="M868.69,620.59l-6.08,6.37h-8.71l-3.22,18.12h-7.58l3.19-18.12h-11.5l6.08-6.37h27.83Z"/>
    <path d="M869.28,645.09l5.71-6.3h6.11c1.5,0,3.19,0,4.36.07-.51-.88-1.28-2.38-1.87-3.55l-3.26-6.48-14.35,16.26h-8.97l19.62-22.15c1.28-1.43,3-2.75,5.38-2.75s3.55,1.21,4.36,2.75l11.39,22.15h-28.48Z"/>
    <path d="M928.15,638.79l-6.04,6.3h-21.64l4.36-24.49h7.54l-3.22,18.2h19Z"/>
    <path d="M937.23,645.09h-7.58l4.36-24.49h7.54l-4.32,24.49Z"/>
    <path d="M974.21,638.79l-5.97,6.3h-12.3c-7.65,0-12.74-4.61-12.74-10.8,0-8.05,7.69-13.69,17.06-13.69h17.17l-6,6.37h-12.3c-4.5,0-8.31,2.89-8.31,6.77,0,3.04,2.53,5.05,6.22,5.05h17.17Z"/>
  </g>
  <g>
    <path d="M414.3,768.75c2.97,0,5.42,2.42,5.42,5.42v15.52c0,3-2.45,5.42-5.42,5.42h-15.52c-3,0-5.42-2.42-5.42-5.42v-15.52c0-3,2.42-5.42,5.42-5.42h15.52ZM399.03,789.4h14.94v-14.94h-14.94v14.94Z"/>
    <path d="M440.66,773.88v5.6h-11.46v15.63h-5.6v-15.93c0-2.89,2.42-5.31,5.35-5.31h11.72Z"/>
    <path d="M464.83,779.19v10.62c0,2.89-2.38,5.31-5.31,5.31h-16.22v-28.19h5.6v6.96h10.62c2.93,0,5.31,2.42,5.31,5.31ZM448.9,789.51h10.32v-10.03h-10.32v10.03Z"/>
    <path d="M473.25,766.92v5.64h-5.6v-5.64h5.6ZM467.65,773.88h5.6v21.23h-5.6v-21.23Z"/>
    <path d="M482.4,779.48v10.03h7.87v5.6h-8.13c-2.97,0-5.35-2.42-5.35-5.31v-22.22h5.6v6.3h7.87v5.6h-7.87Z"/>
    <path d="M510.7,773.88v5.6h-11.46v15.63h-5.6v-15.93c0-2.89,2.42-5.31,5.35-5.31h11.72Z"/>
    <path d="M529.27,773.88c2.93,0,5.31,2.42,5.31,5.31v10.62c0,2.89-2.38,5.31-5.31,5.31h-10.91c-2.89,0-5.31-2.42-5.31-5.31v-10.62c0-2.89,2.42-5.31,5.31-5.31h10.91ZM518.65,789.51h10.32v-10.03h-10.32v10.03Z"/>
    <path d="M558.96,779.19v15.93h-5.6v-15.63h-10.32v15.63h-5.6v-21.23h16.22c2.93,0,5.31,2.42,5.31,5.31Z"/>
    <path d="M590.16,787.1h-15.27v-5.6h15.27v5.6Z"/>
    <path d="M630.95,779.11c0,.62-.07,1.21-.26,1.68.73.92,1.28,2.2,1.28,3.44v5.46c0,3-2.45,5.42-5.46,5.42h-20.91v-26.36h19.92c2.97,0,5.42,2.42,5.42,5.42v4.94ZM611.28,778.86h13.91v-4.39h-13.91v4.39ZM611.28,789.4h14.94v-4.83h-14.94v4.83Z"/>
    <path d="M641.45,766.89v22.63h4.28v5.6h-4.61c-2.89,0-5.31-2.42-5.31-5.31v-22.92h5.64Z"/>
    <path d="M670.09,779.19v15.93h-16.22c-2.93,0-5.31-2.42-5.31-5.31v-8.13h15.93v-2.2h-15.93v-5.6h16.22c2.93,0,5.31,2.42,5.31,5.31ZM664.48,786.58h-10.32v2.93h10.32v-2.93Z"/>
    <path d="M678.25,779.48v10.03h15.93v5.6h-16.22c-2.89,0-5.31-2.42-5.31-5.31v-10.62c0-2.89,2.42-5.31,5.31-5.31h16.18v5.6h-15.89Z"/>
    <path d="M718.45,773.88v1.9l-7.91,8.71,7.91,8.71v1.9h-5.64l-7.21-7.8h-2.86v7.8h-5.6v-28.19h5.6v14.75h2.86l7.21-7.8h5.64Z"/>
  </g>
  <rect class="cls-6" x="622.64" y="119.08" width="137.4" height="137.4" rx="68.7" ry="68.7"/>
  <rect class="cls-5" x="518.25" y="322.71" width="137.4" height="137.4" rx="68.7" ry="68.7"/>
  <rect class="cls-2" x="727.03" y="322.71" width="137.4" height="137.4" rx="68.7" ry="68.7"/>
  <rect class="cls-3" x="398.41" y="119.08" width="137.4" height="137.4" rx="68.7" ry="68.7"/>
  <rect class="cls-4" x="846.87" y="119.08" width="137.4" height="137.4" rx="68.7" ry="68.7"/>
  <g>
    <path class="cls-1" d="M413.5,278.21l-.66,5.36h3.84v2.02h-4.09l-.61,4.97h-1.96l.61-4.97h-5.22l-.61,4.97h-1.96l.61-4.97h-3.81v-2.02h4.06l.69-5.36h-3.87v-2.02h4.12l.61-4.97h1.96l-.61,4.97h5.19l.61-4.97h1.96l-.61,4.97h3.81v2.02h-4.06ZM411.54,278.21h-5.2l-.69,5.36h5.22l.66-5.36Z"/>
    <path class="cls-1" d="M437.84,285.34c0,3.32-2.51,5.22-7.41,5.22h-9.23v-19.34h8.68c4.45,0,6.94,1.88,6.94,5,0,2.1-1.08,3.56-2.6,4.31,2.18.61,3.62,2.24,3.62,4.81ZM423.97,273.46v6.19h5.66c2.82,0,4.42-1.05,4.42-3.09s-1.6-3.1-4.42-3.1h-5.66ZM435.05,285.12c0-2.24-1.66-3.23-4.73-3.23h-6.36v6.44h6.36c3.07,0,4.73-.97,4.73-3.21Z"/>
    <path class="cls-1" d="M440.55,280.89c0-5.72,4.37-9.89,10.25-9.89,2.98,0,5.58,1.02,7.35,3.01l-1.8,1.74c-1.49-1.58-3.32-2.29-5.44-2.29-4.37,0-7.6,3.15-7.6,7.43s3.23,7.43,7.6,7.43c2.13,0,3.95-.75,5.44-2.32l1.8,1.74c-1.77,1.99-4.37,3.04-7.38,3.04-5.86,0-10.22-4.17-10.22-9.89Z"/>
    <path class="cls-1" d="M473.96,285.73h-10.28l-2.13,4.84h-2.85l8.76-19.34h2.74l8.79,19.34h-2.9l-2.13-4.84ZM472.99,283.52l-4.17-9.48-4.17,9.48h8.35Z"/>
    <path class="cls-1" d="M495.04,284.68c0,3.73-3.01,6.11-6.85,6.11-5.2,0-8.12-3.48-8.12-9.64,0-6.6,3.73-10.14,9.15-10.14,1.82,0,3.56.36,4.81,1.13l-1.05,2.16c-1-.66-2.32-.91-3.7-.91-3.92,0-6.44,2.46-6.44,7.29,0,.22,0,.44.03.69,1.11-1.66,3.15-2.54,5.55-2.54,3.84,0,6.63,2.29,6.63,5.86ZM492.36,284.79c0-2.27-1.71-3.73-4.42-3.73s-4.45,1.63-4.45,3.76c0,1.99,1.6,3.73,4.59,3.73,2.51,0,4.28-1.46,4.28-3.76Z"/>
    <path class="cls-1" d="M497.12,280.89c0-5.72,4.37-9.89,10.25-9.89,2.98,0,5.58,1.02,7.35,3.01l-1.8,1.74c-1.49-1.58-3.32-2.29-5.44-2.29-4.37,0-7.6,3.15-7.6,7.43s3.23,7.43,7.6,7.43c2.13,0,3.95-.75,5.44-2.32l1.8,1.74c-1.77,1.99-4.37,3.04-7.38,3.04-5.86,0-10.22-4.17-10.22-9.89Z"/>
    <path class="cls-1" d="M516.68,280.89c0-5.72,4.37-9.89,10.25-9.89,2.98,0,5.58,1.02,7.35,3.01l-1.8,1.74c-1.49-1.58-3.32-2.29-5.44-2.29-4.37,0-7.6,3.15-7.6,7.43s3.23,7.43,7.6,7.43c2.13,0,3.95-.75,5.44-2.32l1.8,1.74c-1.77,1.99-4.37,3.04-7.38,3.04-5.86,0-10.22-4.17-10.22-9.89Z"/>
  </g>
  <g>
    <path class="cls-1" d="M637.3,278.21l-.66,5.36h3.84v2.02h-4.09l-.61,4.97h-1.96l.61-4.97h-5.22l-.61,4.97h-1.96l.61-4.97h-3.81v-2.02h4.06l.69-5.36h-3.87v-2.02h4.12l.61-4.97h1.96l-.61,4.97h5.2l.61-4.97h1.96l-.61,4.97h3.81v2.02h-4.06ZM635.34,278.21h-5.2l-.69,5.36h5.22l.66-5.36Z"/>
    <path class="cls-1" d="M657.28,285.73h-10.28l-2.13,4.84h-2.85l8.76-19.34h2.74l8.79,19.34h-2.9l-2.13-4.84ZM656.32,283.52l-4.17-9.48-4.17,9.48h8.34Z"/>
    <path class="cls-1" d="M663.28,280.89c0-5.72,4.37-9.89,10.25-9.89,2.98,0,5.58,1.02,7.35,3.01l-1.8,1.74c-1.49-1.58-3.32-2.29-5.44-2.29-4.37,0-7.6,3.15-7.6,7.43s3.23,7.43,7.6,7.43c2.13,0,3.95-.75,5.44-2.32l1.8,1.74c-1.77,1.99-4.37,3.04-7.38,3.04-5.86,0-10.22-4.17-10.22-9.89Z"/>
    <path class="cls-1" d="M684.78,271.22h8.15c6.22,0,10.45,3.92,10.45,9.67s-4.23,9.67-10.45,9.67h-8.15v-19.34ZM692.76,288.16c4.78,0,7.85-2.93,7.85-7.27s-3.07-7.27-7.85-7.27h-5.22v14.54h5.22Z"/>
    <path class="cls-1" d="M720.95,284.68c0,3.73-3.01,6.11-6.85,6.11-5.2,0-8.12-3.48-8.12-9.64,0-6.6,3.73-10.14,9.15-10.14,1.82,0,3.56.36,4.81,1.13l-1.05,2.16c-1-.66-2.32-.91-3.7-.91-3.92,0-6.44,2.46-6.44,7.29,0,.22,0,.44.03.69,1.11-1.66,3.15-2.54,5.55-2.54,3.84,0,6.63,2.29,6.63,5.86ZM718.27,284.79c0-2.27-1.71-3.73-4.42-3.73s-4.45,1.63-4.45,3.76c0,1.99,1.6,3.73,4.59,3.73,2.51,0,4.28-1.46,4.28-3.76Z"/>
    <path class="cls-1" d="M724.54,271.22h8.15c6.22,0,10.45,3.92,10.45,9.67s-4.23,9.67-10.45,9.67h-8.15v-19.34ZM732.53,288.16c4.78,0,7.85-2.93,7.85-7.27s-3.07-7.27-7.85-7.27h-5.22v14.54h5.22Z"/>
    <path class="cls-1" d="M759.05,288.16v2.4h-13.9v-1.88l7.88-7.6c2.04-1.99,2.43-3.21,2.43-4.42,0-1.99-1.41-3.21-4.12-3.21-2.07,0-3.76.66-4.95,2.1l-1.88-1.63c1.49-1.85,4.06-2.93,7.07-2.93,4.03,0,6.63,2.07,6.63,5.39,0,1.88-.55,3.56-3.18,6.08l-5.91,5.69h9.92Z"/>
  </g>
  <g>
    <path class="cls-1" d="M859.42,278.21l-.66,5.36h3.84v2.02h-4.09l-.61,4.97h-1.96l.61-4.97h-5.22l-.61,4.97h-1.96l.61-4.97h-3.81v-2.02h4.06l.69-5.36h-3.87v-2.02h4.12l.61-4.97h1.96l-.61,4.97h5.2l.61-4.97h1.96l-.61,4.97h3.81v2.02h-4.06ZM857.46,278.21h-5.2l-.69,5.36h5.22l.66-5.36Z"/>
    <path class="cls-1" d="M879.59,271.22v1.88l-7.82,17.46h-2.93l7.65-16.94h-8.84v3.45h-2.65v-5.86h14.59Z"/>
    <path class="cls-1" d="M883.55,271.22h8.15c6.22,0,10.45,3.92,10.45,9.67s-4.23,9.67-10.45,9.67h-8.15v-19.34ZM891.53,288.16c4.78,0,7.85-2.93,7.85-7.27s-3.07-7.27-7.85-7.27h-5.22v14.54h5.22Z"/>
    <path class="cls-1" d="M922.95,285.34c0,3.32-2.51,5.22-7.41,5.22h-9.23v-19.34h8.68c4.45,0,6.94,1.88,6.94,5,0,2.1-1.08,3.56-2.6,4.31,2.18.61,3.62,2.24,3.62,4.81ZM909.08,273.46v6.19h5.67c2.82,0,4.42-1.05,4.42-3.09s-1.6-3.1-4.42-3.1h-5.67ZM920.16,285.12c0-2.24-1.66-3.23-4.73-3.23h-6.36v6.44h6.36c3.07,0,4.73-.97,4.73-3.21Z"/>
    <path class="cls-1" d="M925.6,280.89c0-6.3,3.37-9.89,7.9-9.89s7.88,3.59,7.88,9.89-3.37,9.89-7.88,9.89-7.9-3.59-7.9-9.89ZM938.62,280.89c0-4.95-2.1-7.43-5.11-7.43s-5.14,2.49-5.14,7.43,2.1,7.43,5.14,7.43,5.11-2.49,5.11-7.43Z"/>
    <path class="cls-1" d="M962.19,285.34c0,3.32-2.51,5.22-7.41,5.22h-9.23v-19.34h8.68c4.45,0,6.94,1.88,6.94,5,0,2.1-1.08,3.56-2.6,4.31,2.18.61,3.62,2.24,3.62,4.81ZM948.32,273.46v6.19h5.67c2.82,0,4.42-1.05,4.42-3.09s-1.6-3.1-4.42-3.1h-5.67ZM959.4,285.12c0-2.24-1.66-3.23-4.73-3.23h-6.36v6.44h6.36c3.07,0,4.73-.97,4.73-3.21Z"/>
    <path class="cls-1" d="M966.42,271.22h8.15c6.22,0,10.45,3.92,10.45,9.67s-4.23,9.67-10.45,9.67h-8.15v-19.34ZM974.4,288.16c4.78,0,7.85-2.93,7.85-7.27s-3.07-7.27-7.85-7.27h-5.22v14.54h5.22Z"/>
  </g>
  <g>
    <path class="cls-1" d="M536.64,481.84l-.66,5.36h3.84v2.02h-4.09l-.61,4.97h-1.96l.61-4.97h-5.22l-.61,4.97h-1.96l.61-4.97h-3.81v-2.02h4.06l.69-5.36h-3.87v-2.02h4.12l.61-4.97h1.96l-.61,4.97h5.2l.61-4.97h1.96l-.61,4.97h3.81v2.02h-4.06ZM534.68,481.84h-5.2l-.69,5.36h5.22l.66-5.36Z"/>
    <path class="cls-1" d="M558.39,491.79v2.4h-14.04v-19.34h13.65v2.4h-10.89v5.94h9.7v2.35h-9.7v6.25h11.27Z"/>
    <path class="cls-1" d="M574.2,488.5c0,3.26-2.4,5.91-7.32,5.91-2.76,0-5.47-.88-7.1-2.35l1.27-2.18c1.3,1.22,3.45,2.07,5.83,2.07,2.9,0,4.56-1.33,4.56-3.43s-1.46-3.37-4.78-3.37h-1.55v-1.93l4.86-5.97h-9.31v-2.4h12.77v1.88l-5.06,6.25c3.87.36,5.83,2.54,5.83,5.53Z"/>
    <path class="cls-1" d="M578.34,474.85h8.15c6.22,0,10.45,3.92,10.45,9.67s-4.23,9.67-10.45,9.67h-8.15v-19.34ZM586.33,491.79c4.78,0,7.85-2.93,7.85-7.27s-3.07-7.27-7.85-7.27h-5.22v14.54h5.22Z"/>
    <path class="cls-1" d="M599.59,484.52c0-6.3,3.37-9.89,7.9-9.89s7.88,3.59,7.88,9.89-3.37,9.89-7.88,9.89-7.9-3.59-7.9-9.89ZM612.61,484.52c0-4.95-2.1-7.43-5.11-7.43s-5.14,2.49-5.14,7.43,2.1,7.43,5.14,7.43,5.11-2.49,5.11-7.43Z"/>
    <path class="cls-1" d="M633.63,491.79v2.4h-14.04v-19.34h13.65v2.4h-10.89v5.94h9.7v2.35h-9.7v6.25h11.27Z"/>
    <path class="cls-1" d="M651.12,488.31c0,3.73-3.01,6.11-6.85,6.11-5.2,0-8.12-3.48-8.12-9.64,0-6.6,3.73-10.14,9.15-10.14,1.82,0,3.56.36,4.81,1.13l-1.05,2.16c-1-.66-2.32-.91-3.7-.91-3.92,0-6.44,2.46-6.44,7.3,0,.22,0,.44.03.69,1.11-1.66,3.15-2.54,5.55-2.54,3.84,0,6.63,2.29,6.63,5.86ZM648.44,488.42c0-2.27-1.71-3.73-4.42-3.73s-4.45,1.63-4.45,3.76c0,1.99,1.6,3.73,4.59,3.73,2.51,0,4.28-1.46,4.28-3.76Z"/>
  </g>
  <g>
    <path class="cls-1" d="M740.19,481.84l-.66,5.36h3.84v2.02h-4.09l-.61,4.97h-1.96l.61-4.97h-5.22l-.61,4.97h-1.96l.61-4.97h-3.81v-2.02h4.06l.69-5.36h-3.87v-2.02h4.12l.61-4.97h1.96l-.61,4.97h5.2l.61-4.97h1.96l-.61,4.97h3.81v2.02h-4.06ZM738.23,481.84h-5.2l-.69,5.36h5.22l.66-5.36Z"/>
    <path class="cls-1" d="M747.9,474.85h8.15c6.22,0,10.45,3.92,10.45,9.67s-4.23,9.67-10.45,9.67h-8.15v-19.34ZM755.88,491.79c4.78,0,7.85-2.93,7.85-7.27s-3.07-7.27-7.85-7.27h-5.22v14.54h5.22Z"/>
    <path class="cls-1" d="M784.76,491.79v2.4h-14.04v-19.34h13.65v2.4h-10.89v5.94h9.7v2.35h-9.7v6.25h11.27Z"/>
    <path class="cls-1" d="M805.87,488.97c0,3.32-2.51,5.22-7.41,5.22h-9.23v-19.34h8.68c4.45,0,6.94,1.88,6.94,5,0,2.1-1.08,3.56-2.6,4.31,2.18.61,3.62,2.24,3.62,4.81ZM792,477.09v6.19h5.67c2.82,0,4.42-1.05,4.42-3.1s-1.6-3.09-4.42-3.09h-5.67ZM803.08,488.75c0-2.24-1.66-3.23-4.73-3.23h-6.36v6.44h6.36c3.07,0,4.73-.97,4.73-3.21Z"/>
    <path class="cls-1" d="M822.48,489.36h-10.28l-2.13,4.84h-2.85l8.76-19.34h2.74l8.79,19.34h-2.9l-2.13-4.84ZM821.51,487.15l-4.17-9.48-4.17,9.48h8.34Z"/>
    <path class="cls-1" d="M830.38,474.85h8.15c6.22,0,10.45,3.92,10.45,9.67s-4.23,9.67-10.45,9.67h-8.15v-19.34ZM838.37,491.79c4.78,0,7.85-2.93,7.85-7.27s-3.07-7.27-7.85-7.27h-5.22v14.54h5.22Z"/>
    <path class="cls-1" d="M864.95,491.79v2.4h-13.9v-1.88l7.88-7.6c2.04-1.99,2.43-3.21,2.43-4.42,0-1.99-1.41-3.21-4.12-3.21-2.07,0-3.76.66-4.95,2.1l-1.88-1.63c1.49-1.85,4.06-2.93,7.07-2.93,4.03,0,6.63,2.07,6.63,5.39,0,1.88-.55,3.56-3.18,6.08l-5.91,5.69h9.92Z"/>
  </g>
  <g>
    <path class="cls-1" d="M43.81,60.77c0-9.94,7.58-17.19,17.81-17.19,5.18,0,9.7,1.78,12.77,5.23l-3.12,3.02c-2.59-2.74-5.76-3.98-9.46-3.98-7.58,0-13.2,5.47-13.2,12.91s5.62,12.91,13.2,12.91c3.7,0,6.86-1.3,9.46-4.03l3.12,3.02c-3.07,3.46-7.58,5.28-12.82,5.28-10.18,0-17.76-7.25-17.76-17.19Z"/>
    <path class="cls-1" d="M77.17,64.85c0-7.58,5.62-12.96,13.25-12.96s13.2,5.38,13.2,12.96-5.57,13.01-13.2,13.01-13.25-5.42-13.25-13.01ZM98.97,64.85c0-5.42-3.65-8.93-8.54-8.93s-8.59,3.5-8.59,8.93,3.7,8.98,8.59,8.98,8.54-3.55,8.54-8.98Z"/>
    <path class="cls-1" d="M110,41.95h4.61v35.62h-4.61v-35.62Z"/>
    <path class="cls-1" d="M121.04,64.85c0-7.58,5.62-12.96,13.25-12.96s13.2,5.38,13.2,12.96-5.57,13.01-13.2,13.01-13.25-5.42-13.25-13.01ZM142.84,64.85c0-5.42-3.65-8.93-8.54-8.93s-8.59,3.5-8.59,8.93,3.7,8.98,8.59,8.98,8.54-3.55,8.54-8.98Z"/>
    <path class="cls-1" d="M167.56,51.89v4.46c-.38-.05-.72-.05-1.06-.05-4.94,0-8.02,3.02-8.02,8.59v12.67h-4.61v-25.44h4.42v4.27c1.63-2.98,4.8-4.51,9.27-4.51Z"/>
    <path class="cls-1" d="M214.26,55.68c0,7.3-5.28,11.71-14.02,11.71h-8.3v10.18h-4.8v-33.6h13.1c8.74,0,14.02,4.42,14.02,11.71ZM209.46,55.68c0-4.8-3.22-7.54-9.36-7.54h-8.16v15.07h8.16c6.14,0,9.36-2.74,9.36-7.54Z"/>
    <path class="cls-1" d="M240.56,62.21v15.36h-4.37v-3.36c-1.54,2.3-4.37,3.65-8.35,3.65-5.76,0-9.41-3.07-9.41-7.49,0-4.08,2.64-7.44,10.22-7.44h7.3v-.91c0-3.89-2.26-6.14-6.82-6.14-3.02,0-6.1,1.06-8.06,2.74l-1.92-3.46c2.64-2.11,6.43-3.26,10.51-3.26,6.96,0,10.9,3.36,10.9,10.32ZM235.96,69.79v-3.55h-7.1c-4.56,0-5.86,1.78-5.86,3.94,0,2.54,2.11,4.13,5.62,4.13s6.19-1.58,7.34-4.51Z"/>
    <path class="cls-1" d="M249.1,41.95h4.61v35.62h-4.61v-35.62Z"/>
    <path class="cls-1" d="M285.39,66.38h-20.64c.58,4.46,4.18,7.44,9.22,7.44,2.98,0,5.47-1.01,7.34-3.07l2.54,2.98c-2.3,2.69-5.81,4.13-10.03,4.13-8.21,0-13.68-5.42-13.68-13.01s5.42-12.96,12.77-12.96,12.58,5.28,12.58,13.1c0,.38-.05.96-.1,1.39ZM264.75,63.07h16.32c-.48-4.27-3.7-7.3-8.16-7.3s-7.68,2.98-8.16,7.3Z"/>
    <path class="cls-1" d="M306.18,76.08c-1.39,1.2-3.5,1.78-5.57,1.78-5.14,0-8.06-2.83-8.06-7.97v-13.97h-4.32v-3.79h4.32v-5.57h4.61v5.57h7.3v3.79h-7.3v13.78c0,2.74,1.44,4.27,3.98,4.27,1.34,0,2.64-.43,3.6-1.2l1.44,3.31Z"/>
    <path class="cls-1" d="M325.43,76.08c-1.39,1.2-3.5,1.78-5.57,1.78-5.14,0-8.06-2.83-8.06-7.97v-13.97h-4.32v-3.79h4.32v-5.57h4.61v5.57h7.3v3.79h-7.3v13.78c0,2.74,1.44,4.27,3.98,4.27,1.34,0,2.64-.43,3.6-1.2l1.44,3.31Z"/>
    <path class="cls-1" d="M353.03,66.38h-20.64c.58,4.46,4.18,7.44,9.22,7.44,2.98,0,5.47-1.01,7.34-3.07l2.54,2.98c-2.3,2.69-5.81,4.13-10.03,4.13-8.21,0-13.68-5.42-13.68-13.01s5.42-12.96,12.77-12.96,12.58,5.28,12.58,13.1c0,.38-.05.96-.1,1.39ZM332.38,63.07h16.32c-.48-4.27-3.7-7.3-8.16-7.3s-7.68,2.98-8.16,7.3Z"/>
  </g>
  <g>
    <path class="cls-1" d="M53.22,540h-11.52v-4.18h27.79v4.18h-11.52v29.43h-4.75v-29.43Z"/>
    <path class="cls-1" d="M94.98,543.99l-12.34,27.99c-2.26,5.38-5.18,7.06-9.07,7.06-2.45,0-4.94-.82-6.53-2.35l1.97-3.46c1.25,1.2,2.83,1.87,4.56,1.87,2.21,0,3.6-1.01,4.85-3.94l.82-1.78-11.23-25.39h4.8l8.88,20.35,8.79-20.35h4.51Z"/>
    <path class="cls-1" d="M125.65,556.71c0,7.82-5.42,13.01-12.87,13.01-3.6,0-6.77-1.39-8.88-4.13v13.15h-4.61v-34.76h4.42v4.03c2.06-2.83,5.33-4.27,9.07-4.27,7.44,0,12.87,5.18,12.87,12.96ZM121,556.71c0-5.38-3.7-8.93-8.59-8.93s-8.54,3.55-8.54,8.93,3.7,8.98,8.54,8.98,8.59-3.55,8.59-8.98Z"/>
    <path class="cls-1" d="M129.68,556.71c0-7.58,5.62-12.96,13.25-12.96s13.2,5.38,13.2,12.96-5.57,13.01-13.2,13.01-13.25-5.42-13.25-13.01ZM151.48,556.71c0-5.42-3.65-8.93-8.54-8.93s-8.59,3.5-8.59,8.93,3.7,8.98,8.59,8.98,8.54-3.55,8.54-8.98Z"/>
    <path class="cls-1" d="M186.85,543.99v21.99c0,8.98-4.56,13.06-13.2,13.06-4.66,0-9.36-1.3-12.15-3.79l2.21-3.55c2.35,2.02,6.05,3.31,9.79,3.31,6,0,8.74-2.78,8.74-8.54v-2.02c-2.21,2.64-5.52,3.94-9.17,3.94-7.34,0-12.91-4.99-12.91-12.34s5.57-12.29,12.91-12.29c3.79,0,7.25,1.39,9.41,4.18v-3.94h4.37ZM182.34,556.04c0-4.94-3.65-8.26-8.74-8.26s-8.79,3.31-8.79,8.26,3.65,8.3,8.79,8.3,8.74-3.41,8.74-8.3Z"/>
    <path class="cls-1" d="M209.32,543.75v4.46c-.38-.05-.72-.05-1.06-.05-4.94,0-8.02,3.02-8.02,8.59v12.67h-4.61v-25.44h4.42v4.27c1.63-2.98,4.8-4.51,9.26-4.51Z"/>
    <path class="cls-1" d="M235.09,554.07v15.36h-4.37v-3.36c-1.54,2.3-4.37,3.65-8.35,3.65-5.76,0-9.41-3.07-9.41-7.49,0-4.08,2.64-7.44,10.22-7.44h7.3v-.91c0-3.89-2.26-6.14-6.82-6.14-3.02,0-6.1,1.06-8.06,2.74l-1.92-3.46c2.64-2.11,6.43-3.26,10.51-3.26,6.96,0,10.9,3.36,10.9,10.32ZM230.48,561.65v-3.55h-7.1c-4.56,0-5.86,1.78-5.86,3.94,0,2.54,2.11,4.13,5.62,4.13s6.19-1.58,7.34-4.51Z"/>
    <path class="cls-1" d="M269.99,556.71c0,7.82-5.42,13.01-12.87,13.01-3.6,0-6.77-1.39-8.88-4.13v13.15h-4.61v-34.76h4.42v4.03c2.06-2.83,5.33-4.27,9.07-4.27,7.44,0,12.87,5.18,12.87,12.96ZM265.33,556.71c0-5.38-3.7-8.93-8.59-8.93s-8.54,3.55-8.54,8.93,3.7,8.98,8.54,8.98,8.59-3.55,8.59-8.98Z"/>
    <path class="cls-1" d="M300.71,543.99v21.99c0,8.98-4.56,13.06-13.2,13.06-4.66,0-9.36-1.3-12.15-3.79l2.21-3.55c2.35,2.02,6.05,3.31,9.79,3.31,6,0,8.74-2.78,8.74-8.54v-2.02c-2.21,2.64-5.52,3.94-9.17,3.94-7.34,0-12.91-4.99-12.91-12.34s5.57-12.29,12.91-12.29c3.79,0,7.25,1.39,9.41,4.18v-3.94h4.37ZM296.2,556.04c0-4.94-3.65-8.26-8.74-8.26s-8.79,3.31-8.79,8.26,3.65,8.3,8.79,8.3,8.74-3.41,8.74-8.3Z"/>
    <path class="cls-1" d="M333.64,554.79v14.64h-4.61v-14.11c0-4.99-2.5-7.44-6.86-7.44-4.9,0-8.06,2.93-8.06,8.45v13.1h-4.61v-35.62h4.61v13.78c1.92-2.45,5.09-3.84,8.98-3.84,6.19,0,10.56,3.55,10.56,11.04Z"/>
    <path class="cls-1" d="M364.21,543.99l-12.34,27.99c-2.26,5.38-5.18,7.06-9.07,7.06-2.45,0-4.94-.82-6.53-2.35l1.97-3.46c1.25,1.2,2.83,1.87,4.56,1.87,2.21,0,3.6-1.01,4.85-3.94l.82-1.78-11.23-25.39h4.8l8.88,20.35,8.79-20.35h4.51Z"/>
  </g>
  <g>
    <path class="cls-1" d="M420.27,720.73c-3.02.43-5.62.43-8.64,0-5.42-9.41-11.38-19.2-17.28-28.27.34,8.83,1.68,19.97,2.4,28.27-1.87.43-3.98.43-5.86,0,.19-10.42.24-21.94.1-33.6,3.31-.43,5.81-.43,8.88,0,5.33,9.02,11.19,19.15,17.14,28.27-.29-8.69-1.34-19.59-2.11-28.27,1.82-.43,3.7-.43,5.62,0-.19,10.8-.34,22.95-.24,33.6Z"/>
    <path class="cls-1" d="M450.41,705.8v14.93h-3.31l-3.65-7.3c-.77,2.93-3.36,8.02-9.55,8.02-4.56,0-7.39-2.4-7.39-6.14,0-5.81,6.96-9.22,16.32-9.65-.05-4.46-.43-8.93-4.08-8.93-2.5,0-3.84,2.06-3.84,4.27,0,1.1.34,2.16,1.06,3.07l-.82.48-7.92-2.3c.91-4.08,5.23-7.15,11.76-7.15,6.96,0,11.42,3.36,11.42,10.7ZM442.83,707.29c-5.86.53-8.4,3.5-8.4,6.91,0,2.35,1.2,3.5,2.88,3.55,3.22,0,5.33-4.46,5.52-10.46Z"/>
    <path class="cls-1" d="M454.4,720.68v-.96c4.56-6.53,10.37-15.27,14.31-22.03-4.22.96-9.07,2.35-13.44,3.94-.29-1.92-.05-4.32.38-5.86,7.44.29,15.12.34,22.32.05v1.01c-4.9,6.96-10.61,15.55-14.55,21.94,5.28-.67,10.61-2.4,14.74-4.13.38,1.97.38,4.22,0,6.14-7.2-.29-16.32-.34-23.76-.1Z"/>
    <path class="cls-1" d="M505.76,705.8v14.93h-3.31l-3.65-7.3c-.77,2.93-3.36,8.02-9.55,8.02-4.56,0-7.39-2.4-7.39-6.14,0-5.81,6.96-9.22,16.32-9.65-.05-4.46-.43-8.93-4.08-8.93-2.5,0-3.84,2.06-3.84,4.27,0,1.1.34,2.16,1.06,3.07l-.82.48-7.92-2.3c.91-4.08,5.23-7.15,11.76-7.15,6.96,0,11.42,3.36,11.42,10.7ZM498.17,707.29c-5.86.53-8.4,3.5-8.4,6.91,0,2.35,1.2,3.5,2.88,3.55,3.22,0,5.33-4.46,5.52-10.46Z"/>
    <path class="cls-1" d="M511.9,695.81h2.74l4.22,6.14c1.1-3.79,3.65-6.86,8.3-6.86,3.36,0,6.19,1.97,6.19,6.43,0,.72-.05,1.49-.19,2.26l-6.77,2.02-.53-.1c1.1-4.66.14-7.15-1.97-7.15-2.69,0-3.94,3.46-3.94,8.54-.05,4.27-.05,8.98.05,13.63-2.69-.24-5.38-.24-8.06,0,.24-8.4.24-16.51-.05-24.91Z"/>
    <path class="cls-1" d="M560.67,713.53c-.96,5.09-5.52,7.92-11.62,7.92-8.45,0-13.44-5.42-13.44-13.34s5.04-13.01,13.06-13.01,12.05,4.9,11.86,12.67l-.96.58h-15.65v.29c0,7.3,1.34,11.09,5.28,11.09,2.06,0,3.74-1.3,3.74-4.75,0-.82-.05-1.39-.19-2.11l.86-.38,7.06,1.06ZM543.96,706.33h8.35c.29-1.01.38-2.5.38-4.03,0-3.46-1.1-5.47-3.74-5.47-2.83,0-4.66,2.78-4.99,9.5Z"/>
    <path class="cls-1" d="M590.23,705.8c-.1,1.2-.1,4.18,0,5.38h-14.21c.1-1.2.1-4.18,0-5.38h14.21Z"/>
    <path class="cls-1" d="M605.98,717.51l3.26-9.07.67.14c.96,6.14,5.23,10.61,10.51,10.61,3.12,0,5.09-1.58,5.09-4.13,0-3.46-3.65-5.71-9.17-9.5-5.19-3.65-8.83-6.38-8.83-10.95,0-5.23,4.46-8.26,12.48-8.26,6.24,0,12.14,1.92,13.68,3.5l-3.98,7.58-.67-.19c-1.05-6.62-4.51-8.83-8.74-8.83-3.41,0-4.75,1.49-4.75,3.7,0,3.02,2.74,5.09,8.5,9.07,6.05,4.13,9.84,6.82,9.84,11.28,0,5.86-6.29,8.79-13.92,8.79-5.9,0-11.66-1.82-13.97-3.74Z"/>
    <path class="cls-1" d="M662.91,713.53c-.96,5.09-5.52,7.92-11.62,7.92-8.45,0-13.44-5.42-13.44-13.34s5.04-13.01,13.06-13.01,12.05,4.9,11.86,12.67l-.96.58h-15.65v.29c0,7.3,1.34,11.09,5.28,11.09,2.06,0,3.74-1.3,3.74-4.75,0-.82-.05-1.39-.19-2.11l.86-.38,7.06,1.06ZM646.2,706.33h8.35c.29-1.01.38-2.5.38-4.03,0-3.46-1.1-5.47-3.74-5.47-2.83,0-4.66,2.78-4.99,9.5Z"/>
    <path class="cls-1" d="M707.55,720.73c-2.64-.24-5.33-.24-8.02,0,.19-5.33.1-10.56-.05-15.5-.1-4.22-.77-6.62-3.22-6.62-2.74,0-4.56,3.41-4.56,8.79-.05,4.46.05,8.88.1,13.34-2.64-.24-5.23-.24-7.82,0,.19-5.33.1-10.56-.05-15.5-.1-4.22-1.05-6.62-3.46-6.62-2.54,0-4.27,3.41-4.32,8.64,0,4.27,0,8.88.05,13.49-2.69-.24-5.33-.24-8.02,0,.34-8.4.24-16.51-.05-24.91h2.69l4.18,6.38c1.15-4.71,4.03-7.1,8.64-7.1,2.69,0,5.9,1.44,7.34,5.9,1.49-3.89,4.37-5.9,8.35-5.9,4.51,0,8.16,2.98,8.11,10.9,0,7.01.05,9.84.1,14.74Z"/>
    <path class="cls-1" d="M713.88,688.66c0-2.16,1.68-3.89,4.27-3.89s4.27,1.73,4.27,3.89-1.68,3.79-4.27,3.79-4.27-1.73-4.27-3.79ZM714.07,695.81c2.64.24,5.33.24,8.02,0-.24,8.35-.24,16.56,0,24.91-2.69-.24-5.38-.24-8.02,0,.19-8.35.19-16.56,0-24.91Z"/>
    <path class="cls-1" d="M768.31,711.66c0,8.74-11.95,9.79-16.46,9.79-2.79,0-6.82-.34-11.86-1.1.24-11.76.24-21.6,0-32.83,5.09-.82,8.93-1.1,12-1.1,3.89,0,14.45.62,14.45,7.63,0,4.94-4.85,7.83-10.23,8.45,5.67.53,12.1,2.74,12.1,9.17ZM748.25,688.76c-.05,4.27-.14,8.54-.14,12.87,1.29.05,2.54.05,3.5-.05,3.65-.24,6.53-2.45,6.53-7.3,0-4.22-2.35-5.76-6-5.76-.91,0-2.35.05-3.89.24ZM759.67,711.56c0-5.42-3.41-7.44-8.06-7.82-1.06-.05-2.26-.05-3.5,0,0,4.94.05,10.03.19,15.26.91.19,2.02.34,3.22.34,5.04,0,8.16-2.5,8.16-7.78Z"/>
    <path class="cls-1" d="M771.96,708.01c0-7.63,5.14-12.91,13.2-12.91s13.2,5.28,13.2,12.91-5.14,13.34-13.15,13.34-13.25-5.42-13.25-13.34ZM790.05,707.77c0-7.58-1.82-10.9-4.9-10.9s-4.9,3.41-4.9,11.14,1.82,11.57,4.95,11.57,4.85-3.6,4.85-11.81Z"/>
    <path class="cls-1" d="M803.59,713.34c.05-8.93.1-20.64-.14-27.65,2.64-.48,5.38-.48,8.06,0-.14,7.01-.24,18.77-.24,27.65,0,3.41.53,5.18,2.16,5.18,1.25,0,1.92-1.15,1.92-2.69,0-.43-.05-.86-.14-1.3.67.24,1.63.48,2.35.48,0,3.98-2.5,6.38-6.62,6.38-3.7,0-7.39-1.78-7.34-8.06Z"/>
    <path class="cls-1" d="M819.91,708.39c0-8.16,4.08-13.3,10.66-13.3,3.36,0,6.05,1.63,7.44,4.22-.14-4.32-.19-9.26-.48-13.63,2.54-.48,5.42-.48,7.97,0-.29,9.07-.34,25.73,0,35.04h-2.74l-4.13-5.9c-1.39,4.13-4.37,6.58-8.5,6.62-6,.1-10.22-4.66-10.22-13.06ZM837.62,708.1c.05-6.1-1.78-9.94-4.9-9.94s-4.71,3.65-4.71,9.94,1.68,9.89,4.71,9.89,4.9-3.5,4.9-9.89Z"/>
  </g>
</svg>