<?xml version="1.0" encoding="UTF-8"?>
<svg id="Layer_1" xmlns="http://www.w3.org/2000/svg" viewBox="0 0 1024 890">
  <defs>
    <style>
      .cls-1 {
        fill: #231f20;
      }

      .cls-2 {
        fill: #f0e6f2;
      }

      .cls-3 {
        fill: #9e9dc8;
      }

      .cls-4 {
        fill: #d4c1dd;
      }

      .cls-5 {
        fill: #beb9db;
      }

      .cls-6 {
        fill: #e1dced;
      }

      .cls-7 {
        fill: #c8a5ce;
      }
    </style>
  </defs>
  <g>
    <path d="M418.98,665.26l-6,6.3h-23.58l4.36-24.49h28.34l-6.04,6.37h-15.85l-.51,2.93h19.37l-5.27,5.56h-15.08l-.59,3.33h20.87Z"/>
    <path d="M455.23,647.06l-6.08,6.37h-8.71l-3.22,18.12h-7.58l3.19-18.12h-11.5l6.08-6.37h27.83Z"/>
    <path d="M482.91,671.55h-7.54l1.68-9.45h-14.61l-1.65,9.45h-7.62l4.36-24.49h7.58l-1.57,8.68h14.61l1.54-8.68h7.58l-4.36,24.49Z"/>
    <path d="M509.49,670.64l-12.63-13.47-2.53,14.39h-6.88l3.55-20.32c.55-3.26,2.71-4.58,4.98-4.58.92,0,1.83.22,2.82,1.32l12.63,13.47,2.56-14.39h6.88l-3.62,20.28c-.59,3.26-2.75,4.61-4.94,4.61-1.02,0-1.79-.22-2.82-1.32Z"/>
    <path d="M558.48,657.02c0,10.07-6.66,14.94-20.39,14.94-10.58,0-15.93-3.29-15.93-10.4,0-10.07,6.66-14.9,20.39-14.9,10.58,0,15.93,3.26,15.93,10.36ZM550.87,657.79c0-3.95-2.78-4.76-9.45-4.76-9.85,0-11.64,1.5-11.64,7.8,0,3.95,2.82,4.76,9.41,4.76,9.85,0,11.68-1.54,11.68-7.8Z"/>
    <path d="M592.17,665.26l-5.97,6.3h-12.3c-7.65,0-12.74-4.61-12.74-10.8,0-8.05,7.69-13.69,17.06-13.69h17.17l-6,6.37h-12.3c-4.5,0-8.31,2.89-8.31,6.77,0,3.04,2.53,5.05,6.22,5.05h17.17Z"/>
    <path d="M623.29,665.26l-6,6.3h-23.58l4.36-24.49h28.34l-6.04,6.37h-15.85l-.51,2.93h19.37l-5.27,5.56h-15.08l-.59,3.33h20.87Z"/>
    <path d="M646.69,670.64l-12.63-13.47-2.53,14.39h-6.88l3.55-20.32c.55-3.26,2.71-4.58,4.98-4.58.92,0,1.83.22,2.82,1.32l12.63,13.47,2.56-14.39h6.88l-3.62,20.28c-.59,3.26-2.75,4.61-4.94,4.61-1.03,0-1.79-.22-2.82-1.32Z"/>
    <path d="M693.01,647.06l-6.08,6.37h-8.71l-3.22,18.12h-7.58l3.19-18.12h-11.5l6.08-6.37h27.83Z"/>
    <path d="M723.25,671.55h-10.14l-4.32-6.48h-11.64l-1.13,6.48h-7.58l2.2-12.52h21.31c2.53,0,4.72-1.21,4.72-3.19,0-1.61-1.39-2.42-3.73-2.42h-21.31l6.08-6.37h15.74c5.13,0,11.2,1.57,11.2,7.43,0,4.43-3.19,8.16-7.91,9.08.7.62,1.46,1.5,2.82,3.22l3.7,4.76Z"/>
    <path d="M733.65,671.55h-7.58l4.36-24.49h7.54l-4.32,24.49Z"/>
    <path d="M770.63,665.26l-5.97,6.3h-12.3c-7.65,0-12.74-4.61-12.74-10.8,0-8.05,7.69-13.69,17.06-13.69h17.17l-6,6.37h-12.3c-4.5,0-8.31,2.89-8.31,6.77,0,3.04,2.53,5.05,6.22,5.05h17.17Z"/>
    <path d="M802.96,656.8l-4.54,4.72h-12.23l4.54-4.72h12.23Z"/>
    <path d="M824.9,671.55h-7.58l4.36-24.49h7.54l-4.32,24.49Z"/>
    <path d="M864.4,647.06l-6.08,6.37h-8.71l-3.22,18.12h-7.58l3.19-18.12h-11.5l6.08-6.37h27.83Z"/>
    <path d="M864.99,671.55l5.71-6.3h6.11c1.5,0,3.19,0,4.36.07-.51-.88-1.28-2.38-1.87-3.55l-3.26-6.48-14.35,16.26h-8.97l19.62-22.15c1.28-1.43,3-2.75,5.38-2.75s3.55,1.21,4.36,2.75l11.39,22.15h-28.48Z"/>
    <path d="M923.87,665.26l-6.04,6.3h-21.64l4.36-24.49h7.54l-3.22,18.2h19Z"/>
    <path d="M932.95,671.55h-7.58l4.36-24.49h7.54l-4.32,24.49Z"/>
    <path d="M969.93,665.26l-5.97,6.3h-12.3c-7.65,0-12.74-4.61-12.74-10.8,0-8.05,7.69-13.69,17.06-13.69h17.17l-6,6.37h-12.3c-4.5,0-8.31,2.89-8.31,6.77,0,3.04,2.53,5.05,6.22,5.05h17.17Z"/>
  </g>
  <rect class="cls-6" x="618.35" y="145.54" width="137.4" height="137.4" rx="68.7" ry="68.7"/>
  <rect class="cls-5" x="394.12" y="349.98" width="137.4" height="137.4" rx="68.7" ry="68.7"/>
  <rect class="cls-2" x="618.35" y="349.98" width="137.4" height="137.4" rx="68.7" ry="68.7"/>
  <rect class="cls-7" x="394.12" y="145.54" width="137.4" height="137.4" rx="68.7" ry="68.7"/>
  <rect class="cls-4" x="842.59" y="145.54" width="137.4" height="137.4" rx="68.7" ry="68.7"/>
  <g>
    <path class="cls-1" d="M411.8,304.68l-.66,5.36h3.84v2.02h-4.09l-.61,4.97h-1.96l.61-4.97h-5.22l-.61,4.97h-1.96l.61-4.97h-3.81v-2.02h4.06l.69-5.36h-3.87v-2.02h4.12l.61-4.97h1.96l-.61,4.97h5.19l.61-4.97h1.96l-.61,4.97h3.81v2.02h-4.06ZM409.83,304.68h-5.2l-.69,5.36h5.22l.66-5.36Z"/>
    <path class="cls-1" d="M417.93,307.36c0-5.72,4.37-9.89,10.25-9.89,2.98,0,5.58,1.02,7.35,3.01l-1.8,1.74c-1.49-1.58-3.32-2.29-5.44-2.29-4.37,0-7.6,3.15-7.6,7.43s3.23,7.43,7.6,7.43c2.13,0,3.95-.75,5.44-2.32l1.8,1.74c-1.77,1.99-4.37,3.04-7.38,3.04-5.86,0-10.22-4.17-10.22-9.89Z"/>
    <path class="cls-1" d="M452.8,311.56c0,3.51-2.98,5.69-7.71,5.69s-7.66-2.18-7.66-5.69c0-2.21,1.22-3.84,3.4-4.67-1.77-.83-2.71-2.27-2.71-4.17,0-3.23,2.79-5.25,6.96-5.25s7.02,2.02,7.02,5.25c0,1.91-.97,3.34-2.74,4.17,2.21.86,3.43,2.46,3.43,4.67ZM450.04,311.48c0-2.13-1.88-3.45-4.95-3.45s-4.89,1.33-4.89,3.45,1.82,3.54,4.89,3.54,4.95-1.35,4.95-3.54ZM440.87,302.83c0,1.91,1.58,3.09,4.23,3.09s4.31-1.19,4.31-3.09-1.71-3.12-4.31-3.12-4.23,1.19-4.23,3.12Z"/>
    <path class="cls-1" d="M469.11,312.19h-10.28l-2.13,4.84h-2.85l8.76-19.34h2.74l8.79,19.34h-2.9l-2.13-4.84ZM468.14,309.98l-4.17-9.48-4.17,9.48h8.35Z"/>
    <path class="cls-1" d="M489,311.23c0,3.34-2.38,6.02-7.32,6.02-2.74,0-5.44-.88-7.1-2.35l1.27-2.18c1.3,1.22,3.45,2.07,5.8,2.07,2.93,0,4.59-1.35,4.59-3.45s-1.38-3.54-5.86-3.54h-4.39l1.02-10.11h10.92v2.4h-8.59l-.52,5.31h2.16c5.78,0,8.04,2.4,8.04,5.83Z"/>
    <path class="cls-1" d="M491.29,307.36c0-5.72,4.37-9.89,10.25-9.89,2.98,0,5.58,1.02,7.35,3.01l-1.8,1.74c-1.49-1.58-3.32-2.29-5.44-2.29-4.37,0-7.6,3.15-7.6,7.43s3.23,7.43,7.6,7.43c2.13,0,3.95-.75,5.44-2.32l1.8,1.74c-1.77,1.99-4.37,3.04-7.38,3.04-5.86,0-10.22-4.17-10.22-9.89Z"/>
    <path class="cls-1" d="M526.89,314.63v2.4h-14.04v-19.34h13.65v2.4h-10.89v5.94h9.7v2.35h-9.7v6.25h11.27Z"/>
  </g>
  <g>
    <path class="cls-1" d="M635.68,304.68l-.66,5.36h3.84v2.02h-4.09l-.61,4.97h-1.96l.61-4.97h-5.22l-.61,4.97h-1.96l.61-4.97h-3.81v-2.02h4.06l.69-5.36h-3.87v-2.02h4.12l.61-4.97h1.96l-.61,4.97h5.2l.61-4.97h1.96l-.61,4.97h3.81v2.02h-4.06ZM633.72,304.68h-5.2l-.69,5.36h5.22l.66-5.36Z"/>
    <path class="cls-1" d="M657.38,314.63v2.4h-14.04v-19.34h13.65v2.4h-10.89v5.94h9.7v2.35h-9.7v6.25h11.27Z"/>
    <path class="cls-1" d="M666.22,297.69v19.34h-2.74v-16.94h-4.37v-2.4h7.1Z"/>
    <path class="cls-1" d="M671.96,297.69h8.15c6.22,0,10.45,3.92,10.45,9.67s-4.23,9.67-10.45,9.67h-8.15v-19.34ZM679.95,314.63c4.78,0,7.85-2.93,7.85-7.27s-3.07-7.27-7.85-7.27h-5.22v14.54h5.22Z"/>
    <path class="cls-1" d="M693.16,307.36c0-5.72,4.37-9.89,10.25-9.89,2.98,0,5.58,1.02,7.35,3.01l-1.8,1.74c-1.49-1.58-3.32-2.29-5.44-2.29-4.37,0-7.6,3.15-7.6,7.43s3.23,7.43,7.6,7.43c2.13,0,3.95-.75,5.44-2.32l1.8,1.74c-1.77,1.99-4.37,3.04-7.38,3.04-5.86,0-10.22-4.17-10.22-9.89Z"/>
    <path class="cls-1" d="M728.69,314.63v2.4h-14.04v-19.34h13.65v2.4h-10.89v5.94h9.7v2.35h-9.7v6.25h11.27Z"/>
    <path class="cls-1" d="M733.11,297.69h8.15c6.22,0,10.45,3.92,10.45,9.67s-4.23,9.67-10.45,9.67h-8.15v-19.34ZM741.1,314.63c4.78,0,7.85-2.93,7.85-7.27s-3.07-7.27-7.85-7.27h-5.22v14.54h5.22Z"/>
  </g>
  <g>
    <path class="cls-1" d="M857.5,304.68l-.66,5.36h3.84v2.02h-4.09l-.61,4.97h-1.96l.61-4.97h-5.22l-.61,4.97h-1.96l.61-4.97h-3.81v-2.02h4.06l.69-5.36h-3.87v-2.02h4.12l.61-4.97h1.96l-.61,4.97h5.2l.61-4.97h1.96l-.61,4.97h3.81v2.02h-4.06ZM855.54,304.68h-5.2l-.69,5.36h5.22l.66-5.36Z"/>
    <path class="cls-1" d="M865.15,297.69h8.15c6.22,0,10.45,3.92,10.45,9.67s-4.23,9.67-10.45,9.67h-8.15v-19.34ZM873.14,314.63c4.78,0,7.85-2.93,7.85-7.27s-3.07-7.27-7.85-7.27h-5.22v14.54h5.22Z"/>
    <path class="cls-1" d="M903.17,312.28h-3.67v4.75h-2.68v-4.75h-10.75v-1.93l9.89-12.66h2.98l-9.48,12.21h7.43v-4.2h2.6v4.2h3.67v2.38Z"/>
    <path class="cls-1" d="M905.05,307.36c0-5.72,4.37-9.89,10.25-9.89,2.98,0,5.58,1.02,7.35,3.01l-1.8,1.74c-1.49-1.58-3.32-2.29-5.44-2.29-4.37,0-7.6,3.15-7.6,7.43s3.23,7.43,7.6,7.43c2.13,0,3.95-.75,5.44-2.32l1.8,1.74c-1.77,1.99-4.37,3.04-7.38,3.04-5.86,0-10.22-4.17-10.22-9.89Z"/>
    <path class="cls-1" d="M931.25,297.69v19.34h-2.74v-16.94h-4.37v-2.4h7.1Z"/>
    <path class="cls-1" d="M937,297.69h8.15c6.22,0,10.45,3.92,10.45,9.67s-4.23,9.67-10.45,9.67h-8.15v-19.34ZM944.98,314.63c4.78,0,7.85-2.93,7.85-7.27s-3.07-7.27-7.85-7.27h-5.22v14.54h5.22Z"/>
    <path class="cls-1" d="M959.76,297.69h8.15c6.22,0,10.45,3.92,10.45,9.67s-4.23,9.67-10.45,9.67h-8.15v-19.34ZM967.75,314.63c4.78,0,7.85-2.93,7.85-7.27s-3.07-7.27-7.85-7.27h-5.22v14.54h5.22Z"/>
  </g>
  <g>
    <path class="cls-1" d="M407.15,509.11l-.66,5.36h3.84v2.02h-4.09l-.61,4.97h-1.96l.61-4.97h-5.22l-.61,4.97h-1.96l.61-4.97h-3.81v-2.02h4.06l.69-5.36h-3.87v-2.02h4.12l.61-4.97h1.96l-.61,4.97h5.2l.61-4.97h1.96l-.61,4.97h3.81v2.02h-4.06ZM405.19,509.11h-5.2l-.69,5.36h5.22l.66-5.36Z"/>
    <path class="cls-1" d="M431.5,516.24c0,3.32-2.51,5.22-7.41,5.22h-9.23v-19.34h8.68c4.45,0,6.94,1.88,6.94,5,0,2.1-1.08,3.56-2.6,4.31,2.18.61,3.62,2.24,3.62,4.81ZM417.63,504.36v6.19h5.67c2.82,0,4.42-1.05,4.42-3.1s-1.6-3.09-4.42-3.09h-5.67ZM428.71,516.02c0-2.24-1.66-3.23-4.73-3.23h-6.36v6.44h6.36c3.07,0,4.73-.97,4.73-3.21Z"/>
    <path class="cls-1" d="M449.82,519.06v2.4h-14.04v-19.34h13.65v2.4h-10.89v5.94h9.7v2.35h-9.7v6.25h11.27Z"/>
    <path class="cls-1" d="M470.93,516.24c0,3.32-2.51,5.22-7.41,5.22h-9.23v-19.34h8.68c4.45,0,6.94,1.88,6.94,5,0,2.1-1.08,3.56-2.6,4.31,2.18.61,3.62,2.24,3.62,4.81ZM457.06,504.36v6.19h5.67c2.82,0,4.42-1.05,4.42-3.1s-1.6-3.09-4.42-3.09h-5.67ZM468.14,516.02c0-2.24-1.66-3.23-4.73-3.23h-6.36v6.44h6.36c3.07,0,4.73-.97,4.73-3.21Z"/>
    <path class="cls-1" d="M488.04,511.54c0,6.6-3.73,10.14-9.15,10.14-1.82,0-3.57-.36-4.81-1.13l1.05-2.16c1.02.66,2.32.91,3.73.91,3.92,0,6.41-2.46,6.41-7.3v-.69c-1.13,1.69-3.18,2.54-5.58,2.54-3.84,0-6.6-2.29-6.6-5.86s2.98-6.11,6.83-6.11c5.19,0,8.12,3.48,8.12,9.64ZM484.64,507.87c0-1.99-1.6-3.73-4.61-3.73-2.51,0-4.26,1.46-4.26,3.76s1.69,3.73,4.39,3.73,4.48-1.63,4.48-3.76Z"/>
    <path class="cls-1" d="M492.26,502.12h8.15c6.22,0,10.45,3.92,10.45,9.67s-4.23,9.67-10.45,9.67h-8.15v-19.34ZM500.25,519.06c4.78,0,7.85-2.93,7.85-7.27s-3.07-7.27-7.85-7.27h-5.22v14.54h5.22Z"/>
    <path class="cls-1" d="M531.72,516.24c0,3.32-2.51,5.22-7.41,5.22h-9.23v-19.34h8.68c4.45,0,6.94,1.88,6.94,5,0,2.1-1.08,3.56-2.6,4.31,2.18.61,3.62,2.24,3.62,4.81ZM517.85,504.36v6.19h5.67c2.82,0,4.42-1.05,4.42-3.1s-1.6-3.09-4.42-3.09h-5.67ZM528.93,516.02c0-2.24-1.66-3.23-4.73-3.23h-6.36v6.44h6.36c3.07,0,4.73-.97,4.73-3.21Z"/>
  </g>
  <g>
    <path class="cls-1" d="M639.84,509.11l-.66,5.36h3.84v2.02h-4.09l-.61,4.97h-1.96l.61-4.97h-5.22l-.61,4.97h-1.96l.61-4.97h-3.81v-2.02h4.06l.69-5.36h-3.87v-2.02h4.12l.61-4.97h1.96l-.61,4.97h5.2l.61-4.97h1.96l-.61,4.97h3.81v2.02h-4.06ZM637.88,509.11h-5.2l-.69,5.36h5.22l.66-5.36Z"/>
    <path class="cls-1" d="M650.31,504.52v6.74h9.7v2.38h-9.7v7.82h-2.76v-19.34h13.65v2.4h-10.89Z"/>
    <path class="cls-1" d="M663.16,511.79c0-6.3,3.37-9.89,7.9-9.89s7.88,3.59,7.88,9.89-3.37,9.89-7.88,9.89-7.9-3.59-7.9-9.89ZM676.18,511.79c0-4.95-2.1-7.43-5.11-7.43s-5.14,2.49-5.14,7.43,2.1,7.43,5.14,7.43,5.11-2.49,5.11-7.43Z"/>
    <path class="cls-1" d="M697.21,519.06v2.4h-14.04v-19.34h13.65v2.4h-10.89v5.94h9.7v2.35h-9.7v6.25h11.28Z"/>
    <path class="cls-1" d="M714.7,515.58c0,3.73-3.01,6.11-6.85,6.11-5.2,0-8.12-3.48-8.12-9.64,0-6.6,3.73-10.14,9.15-10.14,1.82,0,3.56.36,4.81,1.13l-1.05,2.16c-.99-.66-2.32-.91-3.7-.91-3.92,0-6.44,2.46-6.44,7.3,0,.22,0,.44.03.69,1.11-1.66,3.15-2.54,5.55-2.54,3.84,0,6.63,2.29,6.63,5.86ZM712.02,515.69c0-2.27-1.71-3.73-4.42-3.73s-4.45,1.63-4.45,3.76c0,1.99,1.6,3.73,4.59,3.73,2.51,0,4.28-1.46,4.28-3.76Z"/>
    <path class="cls-1" d="M721.11,504.52v6.74h9.7v2.38h-9.7v7.82h-2.76v-19.34h13.65v2.4h-10.89Z"/>
    <path class="cls-1" d="M747.94,519.06v2.4h-13.9v-1.88l7.88-7.6c2.04-1.99,2.43-3.21,2.43-4.42,0-1.99-1.41-3.21-4.12-3.21-2.07,0-3.76.66-4.95,2.1l-1.88-1.63c1.49-1.85,4.06-2.93,7.07-2.93,4.03,0,6.63,2.07,6.63,5.39,0,1.88-.55,3.56-3.18,6.08l-5.91,5.69h9.92Z"/>
  </g>
  <g>
    <path class="cls-1" d="M39.52,87.24c0-9.94,7.58-17.19,17.81-17.19,5.18,0,9.7,1.78,12.77,5.23l-3.12,3.02c-2.59-2.74-5.76-3.98-9.46-3.98-7.58,0-13.2,5.47-13.2,12.91s5.62,12.91,13.2,12.91c3.7,0,6.86-1.3,9.46-4.03l3.12,3.02c-3.07,3.46-7.58,5.28-12.82,5.28-10.18,0-17.76-7.25-17.76-17.19Z"/>
    <path class="cls-1" d="M72.88,91.32c0-7.58,5.62-12.96,13.25-12.96s13.2,5.38,13.2,12.96-5.57,13.01-13.2,13.01-13.25-5.42-13.25-13.01ZM94.68,91.32c0-5.42-3.65-8.93-8.54-8.93s-8.59,3.5-8.59,8.93,3.7,8.98,8.59,8.98,8.54-3.55,8.54-8.98Z"/>
    <path class="cls-1" d="M105.72,68.42h4.61v35.62h-4.61v-35.62Z"/>
    <path class="cls-1" d="M116.76,91.32c0-7.58,5.62-12.96,13.25-12.96s13.2,5.38,13.2,12.96-5.57,13.01-13.2,13.01-13.25-5.42-13.25-13.01ZM138.55,91.32c0-5.42-3.65-8.93-8.54-8.93s-8.59,3.5-8.59,8.93,3.7,8.98,8.59,8.98,8.54-3.55,8.54-8.98Z"/>
    <path class="cls-1" d="M163.27,78.35v4.46c-.38-.05-.72-.05-1.06-.05-4.94,0-8.02,3.02-8.02,8.59v12.67h-4.61v-25.44h4.42v4.27c1.63-2.98,4.8-4.51,9.27-4.51Z"/>
    <path class="cls-1" d="M209.97,82.15c0,7.3-5.28,11.71-14.02,11.71h-8.3v10.18h-4.8v-33.6h13.1c8.74,0,14.02,4.42,14.02,11.71ZM205.17,82.15c0-4.8-3.22-7.54-9.36-7.54h-8.16v15.07h8.16c6.14,0,9.36-2.74,9.36-7.54Z"/>
    <path class="cls-1" d="M236.28,88.68v15.36h-4.37v-3.36c-1.54,2.3-4.37,3.65-8.35,3.65-5.76,0-9.41-3.07-9.41-7.49,0-4.08,2.64-7.44,10.22-7.44h7.3v-.91c0-3.89-2.26-6.14-6.82-6.14-3.02,0-6.1,1.06-8.06,2.74l-1.92-3.46c2.64-2.11,6.43-3.26,10.51-3.26,6.96,0,10.9,3.36,10.9,10.32ZM231.67,96.26v-3.55h-7.1c-4.56,0-5.86,1.78-5.86,3.94,0,2.54,2.11,4.13,5.62,4.13s6.19-1.58,7.34-4.51Z"/>
    <path class="cls-1" d="M244.82,68.42h4.61v35.62h-4.61v-35.62Z"/>
    <path class="cls-1" d="M281.11,92.85h-20.64c.58,4.46,4.18,7.44,9.22,7.44,2.98,0,5.47-1.01,7.34-3.07l2.54,2.98c-2.3,2.69-5.81,4.13-10.03,4.13-8.21,0-13.68-5.42-13.68-13.01s5.42-12.96,12.77-12.96,12.58,5.28,12.58,13.1c0,.38-.05.96-.1,1.39ZM260.47,89.54h16.32c-.48-4.27-3.7-7.3-8.16-7.3s-7.68,2.98-8.16,7.3Z"/>
    <path class="cls-1" d="M301.89,102.55c-1.39,1.2-3.5,1.78-5.57,1.78-5.14,0-8.06-2.83-8.06-7.97v-13.97h-4.32v-3.79h4.32v-5.57h4.61v5.57h7.3v3.79h-7.3v13.78c0,2.74,1.44,4.27,3.98,4.27,1.34,0,2.64-.43,3.6-1.2l1.44,3.31Z"/>
    <path class="cls-1" d="M321.14,102.55c-1.39,1.2-3.5,1.78-5.57,1.78-5.14,0-8.06-2.83-8.06-7.97v-13.97h-4.32v-3.79h4.32v-5.57h4.61v5.57h7.3v3.79h-7.3v13.78c0,2.74,1.44,4.27,3.98,4.27,1.34,0,2.64-.43,3.6-1.2l1.44,3.31Z"/>
    <path class="cls-1" d="M348.74,92.85h-20.64c.58,4.46,4.18,7.44,9.22,7.44,2.98,0,5.47-1.01,7.34-3.07l2.54,2.98c-2.3,2.69-5.81,4.13-10.03,4.13-8.21,0-13.68-5.42-13.68-13.01s5.42-12.96,12.77-12.96,12.58,5.28,12.58,13.1c0,.38-.05.96-.1,1.39ZM328.1,89.54h16.32c-.48-4.27-3.7-7.3-8.16-7.3s-7.68,2.98-8.16,7.3Z"/>
  </g>
  <g>
    <path class="cls-1" d="M48.93,566.47h-11.52v-4.18h27.79v4.18h-11.52v29.43h-4.75v-29.43Z"/>
    <path class="cls-1" d="M90.7,570.45l-12.34,27.99c-2.26,5.38-5.18,7.06-9.07,7.06-2.45,0-4.94-.82-6.53-2.35l1.97-3.46c1.25,1.2,2.83,1.87,4.56,1.87,2.21,0,3.6-1.01,4.85-3.94l.82-1.78-11.23-25.39h4.8l8.88,20.35,8.79-20.35h4.51Z"/>
    <path class="cls-1" d="M121.37,583.18c0,7.82-5.42,13.01-12.87,13.01-3.6,0-6.77-1.39-8.88-4.13v13.15h-4.61v-34.76h4.42v4.03c2.06-2.83,5.33-4.27,9.07-4.27,7.44,0,12.87,5.18,12.87,12.96ZM116.71,583.18c0-5.38-3.7-8.93-8.59-8.93s-8.54,3.55-8.54,8.93,3.7,8.98,8.54,8.98,8.59-3.55,8.59-8.98Z"/>
    <path class="cls-1" d="M125.4,583.18c0-7.58,5.62-12.96,13.25-12.96s13.2,5.38,13.2,12.96-5.57,13.01-13.2,13.01-13.25-5.42-13.25-13.01ZM147.19,583.18c0-5.42-3.65-8.93-8.54-8.93s-8.59,3.5-8.59,8.93,3.7,8.98,8.59,8.98,8.54-3.55,8.54-8.98Z"/>
    <path class="cls-1" d="M182.57,570.45v21.99c0,8.98-4.56,13.06-13.2,13.06-4.66,0-9.36-1.3-12.15-3.79l2.21-3.55c2.35,2.02,6.05,3.31,9.79,3.31,6,0,8.74-2.78,8.74-8.54v-2.02c-2.21,2.64-5.52,3.94-9.17,3.94-7.34,0-12.91-4.99-12.91-12.34s5.57-12.29,12.91-12.29c3.79,0,7.25,1.39,9.41,4.18v-3.94h4.37ZM178.05,582.5c0-4.94-3.65-8.26-8.74-8.26s-8.79,3.31-8.79,8.26,3.65,8.3,8.79,8.3,8.74-3.41,8.74-8.3Z"/>
    <path class="cls-1" d="M205.03,570.22v4.46c-.38-.05-.72-.05-1.06-.05-4.94,0-8.02,3.02-8.02,8.59v12.67h-4.61v-25.44h4.42v4.27c1.63-2.98,4.8-4.51,9.26-4.51Z"/>
    <path class="cls-1" d="M230.81,580.54v15.36h-4.37v-3.36c-1.54,2.3-4.37,3.65-8.35,3.65-5.76,0-9.41-3.07-9.41-7.49,0-4.08,2.64-7.44,10.22-7.44h7.3v-.91c0-3.89-2.26-6.14-6.82-6.14-3.02,0-6.1,1.06-8.06,2.74l-1.92-3.46c2.64-2.11,6.43-3.26,10.51-3.26,6.96,0,10.9,3.36,10.9,10.32ZM226.2,588.12v-3.55h-7.1c-4.56,0-5.86,1.78-5.86,3.94,0,2.54,2.11,4.13,5.62,4.13s6.19-1.58,7.34-4.51Z"/>
    <path class="cls-1" d="M265.7,583.18c0,7.82-5.42,13.01-12.87,13.01-3.6,0-6.77-1.39-8.88-4.13v13.15h-4.61v-34.76h4.42v4.03c2.06-2.83,5.33-4.27,9.07-4.27,7.44,0,12.87,5.18,12.87,12.96ZM261.05,583.18c0-5.38-3.7-8.93-8.59-8.93s-8.54,3.55-8.54,8.93,3.7,8.98,8.54,8.98,8.59-3.55,8.59-8.98Z"/>
    <path class="cls-1" d="M296.42,570.45v21.99c0,8.98-4.56,13.06-13.2,13.06-4.66,0-9.36-1.3-12.15-3.79l2.21-3.55c2.35,2.02,6.05,3.31,9.79,3.31,6,0,8.74-2.78,8.74-8.54v-2.02c-2.21,2.64-5.52,3.94-9.17,3.94-7.34,0-12.91-4.99-12.91-12.34s5.57-12.29,12.91-12.29c3.79,0,7.25,1.39,9.41,4.18v-3.94h4.37ZM291.91,582.5c0-4.94-3.65-8.26-8.74-8.26s-8.79,3.31-8.79,8.26,3.65,8.3,8.79,8.3,8.74-3.41,8.74-8.3Z"/>
    <path class="cls-1" d="M329.35,581.26v14.64h-4.61v-14.11c0-4.99-2.5-7.44-6.86-7.44-4.9,0-8.06,2.93-8.06,8.45v13.1h-4.61v-35.62h4.61v13.78c1.92-2.45,5.09-3.84,8.98-3.84,6.19,0,10.56,3.55,10.56,11.04Z"/>
    <path class="cls-1" d="M359.92,570.45l-12.34,27.99c-2.26,5.38-5.18,7.06-9.07,7.06-2.45,0-4.94-.82-6.53-2.35l1.97-3.46c1.25,1.2,2.83,1.87,4.56,1.87,2.21,0,3.6-1.01,4.85-3.94l.82-1.78-11.23-25.39h4.8l8.88,20.35,8.79-20.35h4.51Z"/>
  </g>
  <rect class="cls-3" x="848.96" y="349.17" width="137.4" height="137.4" rx="68.7" ry="68.7"/>
  <g>
    <path class="cls-1" d="M866.18,508.31l-.66,5.36h3.84v2.02h-4.09l-.61,4.97h-1.96l.61-4.97h-5.22l-.61,4.97h-1.96l.61-4.97h-3.81v-2.02h4.06l.69-5.36h-3.87v-2.02h4.12l.61-4.97h1.96l-.61,4.97h5.2l.61-4.97h1.96l-.61,4.97h3.81v2.02h-4.06ZM864.22,508.31h-5.2l-.69,5.36h5.22l.66-5.36Z"/>
    <path class="cls-1" d="M886.71,510.74c0,6.6-3.73,10.14-9.15,10.14-1.82,0-3.56-.36-4.81-1.13l1.05-2.16c1.02.66,2.32.91,3.73.91,3.92,0,6.41-2.46,6.41-7.3v-.69c-1.13,1.69-3.18,2.54-5.58,2.54-3.84,0-6.6-2.29-6.6-5.86s2.98-6.11,6.83-6.11c5.19,0,8.12,3.48,8.12,9.64ZM883.31,507.07c0-1.99-1.6-3.73-4.62-3.73-2.51,0-4.26,1.46-4.26,3.76s1.69,3.73,4.39,3.73,4.48-1.63,4.48-3.76Z"/>
    <path class="cls-1" d="M904.97,518.26v2.4h-14.04v-19.34h13.65v2.4h-10.89v5.94h9.7v2.35h-9.7v6.25h11.28Z"/>
    <path class="cls-1" d="M922.19,510.74c0,6.6-3.73,10.14-9.15,10.14-1.82,0-3.57-.36-4.81-1.13l1.05-2.16c1.02.66,2.32.91,3.73.91,3.93,0,6.41-2.46,6.41-7.3v-.69c-1.13,1.69-3.18,2.54-5.58,2.54-3.84,0-6.61-2.29-6.61-5.86s2.98-6.11,6.83-6.11c5.2,0,8.12,3.48,8.12,9.64ZM918.79,507.07c0-1.99-1.6-3.73-4.61-3.73-2.52,0-4.26,1.46-4.26,3.76s1.69,3.73,4.39,3.73,4.48-1.63,4.48-3.76Z"/>
    <path class="cls-1" d="M926.42,501.32h8.15c6.22,0,10.45,3.92,10.45,9.67s-4.23,9.67-10.45,9.67h-8.15v-19.34ZM934.4,518.26c4.78,0,7.85-2.93,7.85-7.27s-3.07-7.27-7.85-7.27h-5.22v14.54h5.22Z"/>
    <path class="cls-1" d="M947.66,510.99c0-5.72,4.37-9.89,10.25-9.89,2.98,0,5.58,1.02,7.35,3.01l-1.8,1.74c-1.49-1.58-3.32-2.29-5.44-2.29-4.37,0-7.6,3.15-7.6,7.43s3.23,7.43,7.6,7.43c2.13,0,3.95-.75,5.44-2.32l1.8,1.74c-1.77,1.99-4.37,3.04-7.38,3.04-5.86,0-10.22-4.17-10.22-9.89Z"/>
    <path class="cls-1" d="M982.54,515.19c0,3.51-2.98,5.69-7.71,5.69s-7.65-2.18-7.65-5.69c0-2.21,1.22-3.84,3.4-4.67-1.77-.83-2.71-2.27-2.71-4.17,0-3.23,2.79-5.25,6.96-5.25s7.02,2.02,7.02,5.25c0,1.91-.97,3.34-2.74,4.17,2.21.86,3.43,2.46,3.43,4.67ZM979.78,515.11c0-2.13-1.88-3.45-4.95-3.45s-4.89,1.33-4.89,3.45,1.82,3.54,4.89,3.54,4.95-1.35,4.95-3.54ZM970.6,506.46c0,1.91,1.57,3.1,4.23,3.1s4.31-1.19,4.31-3.1-1.71-3.12-4.31-3.12-4.23,1.19-4.23,3.12Z"/>
  </g>
  <g>
    <path d="M385.45,726.48c0-11.43,9.73-19.6,23.22-19.6s23.08,8.06,23.08,19.54-9.59,19.6-23.15,19.6-23.15-8.06-23.15-19.54ZM421.6,726.48c0-7.08-5.35-12.01-13-12.01s-12.93,4.76-12.93,11.95,5.28,12.01,13,12.01,12.93-4.81,12.93-11.95Z"/>
    <path d="M492.38,727.53v14.04c0,2.96-1.81,3.89-4.31,3.89h-1.04c-2.64,0-4.45-.87-4.45-3.89v-12.76c0-3.71-1.95-5.68-5.91-5.68-2.78,0-5.28,1.45-6.67,3.48v14.96c0,2.96-1.81,3.89-4.31,3.89h-1.04c-2.57,0-4.45-.87-4.45-3.89v-12.58c0-3.89-1.95-5.86-5.84-5.86-2.78,0-5.28,1.45-6.67,3.48v14.96c0,2.96-1.81,3.89-4.31,3.89h-1.04c-2.64,0-4.45-.87-4.45-3.89v-24.01c0-.29,1.74-.93,3.68-.93,2.43,0,5.08.87,5.84,4.64,2.29-2.84,5.56-4.99,10.5-4.99,5.63,0,9.18,2.26,10.84,5.8,2.29-3.25,5.77-5.8,11.4-5.8,8.62,0,12.24,4.58,12.24,11.25Z"/>
    <path d="M532.71,727.93v13.63c0,2.96-1.88,3.89-4.38,3.89h-1.04c-2.57,0-4.38-.87-4.38-3.89v-12.35c0-3.77-2.29-6.09-6.26-6.09-3.41,0-6.05,1.51-7.44,3.71v14.73c0,2.96-1.81,3.89-4.31,3.89h-1.04c-2.64,0-4.45-.87-4.45-3.89v-24.01c0-.29,1.74-.93,3.68-.93,2.64,0,5.28,1.1,5.84,4.76,2.43-3.02,5.98-5.1,11.19-5.1,8.83,0,12.58,5.22,12.58,11.66Z"/>
    <path d="M555.58,716.28c10.08,0,16.89,5.86,16.89,14.15v.52c-.07,1.39-.56,2.15-2.36,2.15h-23.5l.21.93c1.04,3.71,4.73,6.09,9.73,6.09s8-1.86,9.52-4.12c.07-.12,4.8.23,4.8,3.48,0,1.57-1.32,3.19-3.75,4.41-2.5,1.28-6.12,2.15-10.84,2.15-11.05,0-18.28-5.74-18.28-14.73s7.37-15.02,17.59-15.02ZM555.51,721.9c-4.66,0-8.13,2.78-8.76,6.73h16.68c-.28-4.12-3.27-6.73-7.93-6.73Z"/>
    <path d="M575.74,739.65c0-2.09,2.71-3.42,2.99-3.25,2.29,2.15,6.19,3.83,11.19,3.83,3.82,0,5.91-1.1,5.91-2.9,0-2.2-2.71-2.61-7.23-3.42-4.66-.81-11.89-2.09-11.89-8.47,0-5.51,5.35-9.16,14.11-9.16,6.88,0,11.12,1.57,12.86,3.77.56.7.83,1.51.83,2.32,0,2.15-2.99,3.6-3.13,3.42-2.29-2.2-5.98-3.83-9.94-3.83-3.75,0-5.77,1.16-5.77,2.96,0,2.03,2.64,2.44,7.23,3.31,4.8.87,12.44,2.15,12.44,8.53,0,5.68-5.42,9.11-14.95,9.11-5.35,0-9.25-.87-11.68-2.15-1.95-1.1-2.99-2.49-2.99-4.06Z"/>
    <path d="M621.7,730.37c0-1.68,1.39-3.13,4.03-3.13h16.54c2.71,0,4.03,1.45,4.03,3.13v1.28c0,1.74-1.32,3.13-4.03,3.13h-16.54c-2.64,0-4.03-1.39-4.03-3.13v-1.28Z"/>
    <path d="M662.44,738.43c0-2.38,3.54-4.52,3.89-4.23,2.71,2.67,7.86,5.05,13.35,5.05s8.2-1.62,8.2-4.52c0-3.36-4.52-4.06-9.8-5.05-7.16-1.33-14.53-3.54-14.53-11.25,0-6.96,6.67-11.54,17.52-11.54,6.05,0,10.36,1.22,12.93,2.78,2.16,1.22,3.13,2.73,3.13,4.12,0,2.67-3.82,4.64-4.03,4.47-2.64-2.61-7.16-4.58-11.96-4.58s-7.79,1.68-7.79,4.41c0,3.25,4.03,3.71,9.59,4.76,8.13,1.51,15.22,4.29,15.22,11.37,0,7.48-6.6,11.83-18.42,11.83-6.95,0-11.82-1.51-14.53-3.42-1.95-1.28-2.78-2.78-2.78-4.18Z"/>
    <path d="M719.66,716.28c10.08,0,16.89,5.86,16.89,14.15v.52c-.07,1.39-.56,2.15-2.36,2.15h-23.5l.21.93c1.04,3.71,4.73,6.09,9.73,6.09s8-1.86,9.52-4.12c.07-.12,4.8.23,4.8,3.48,0,1.57-1.32,3.19-3.75,4.41-2.5,1.28-6.12,2.15-10.84,2.15-11.05,0-18.28-5.74-18.28-14.73s7.37-15.02,17.59-15.02ZM719.59,721.9c-4.66,0-8.13,2.78-8.76,6.73h16.68c-.28-4.12-3.27-6.73-7.92-6.73Z"/>
    <path d="M796.55,727.53v14.04c0,2.96-1.81,3.89-4.31,3.89h-1.04c-2.64,0-4.45-.87-4.45-3.89v-12.76c0-3.71-1.95-5.68-5.91-5.68-2.78,0-5.28,1.45-6.67,3.48v14.96c0,2.96-1.81,3.89-4.31,3.89h-1.04c-2.57,0-4.45-.87-4.45-3.89v-12.58c0-3.89-1.95-5.86-5.84-5.86-2.78,0-5.28,1.45-6.67,3.48v14.96c0,2.96-1.81,3.89-4.31,3.89h-1.04c-2.64,0-4.45-.87-4.45-3.89v-24.01c0-.29,1.74-.93,3.68-.93,2.43,0,5.08.87,5.84,4.64,2.29-2.84,5.56-4.99,10.5-4.99,5.63,0,9.18,2.26,10.84,5.8,2.29-3.25,5.77-5.8,11.4-5.8,8.62,0,12.24,4.58,12.24,11.25Z"/>
    <path d="M808.72,703.98c3.41,0,5.49,1.62,5.49,4.23s-2.02,4.23-5.49,4.23-5.49-1.62-5.49-4.23,2.09-4.23,5.49-4.23ZM803.79,720.57c0-2.96,1.88-3.94,4.38-3.94h1.04c2.57,0,4.38.93,4.38,3.94v21c0,2.96-1.81,3.89-4.38,3.89h-.97c-2.64,0-4.45-.87-4.45-3.89v-21Z"/>
    <path d="M833.33,740.46v-28.01c0-3.02,2.02-4.76,5.35-4.76h15.29c10.15,0,15.64,3.36,15.64,9.63,0,4.18-2.78,6.73-8,7.95,6.67,1.28,9.73,4.81,9.73,9.28,0,7.25-5.56,10.67-18.21,10.67h-14.46c-3.34,0-5.35-1.74-5.35-4.76ZM851.76,723.7c4.73,0,7.44-1.91,7.44-5.05s-2.5-4.76-7.44-4.76h-8.34v9.8h8.34ZM852.31,739.01c6.12,0,8.62-1.51,8.62-5.28,0-3.42-2.71-5.05-8.62-5.05h-8.9v10.32h8.9Z"/>
    <path d="M893.61,716.28c10.71,0,18.01,6.09,18.01,14.91s-7.37,14.85-18.14,14.85-18.01-6.03-18.01-14.96,7.37-14.79,18.14-14.79ZM893.54,722.66c-5.49,0-9.46,3.54-9.46,8.41s3.96,8.53,9.46,8.53,9.38-3.6,9.38-8.41-3.89-8.53-9.38-8.53Z"/>
    <path d="M917.39,741.56v-35.73c0-.23,1.74-.93,3.68-.93,2.92,0,6.12,1.28,6.12,6.55v30.1c0,2.96-1.81,3.89-4.31,3.89h-1.04c-2.57,0-4.45-.87-4.45-3.89Z"/>
    <path d="M933.1,731.12c0-8.99,6.4-14.85,15.78-14.85,4.87,0,8.76,1.86,10.71,4.29v-14.73c0-.23,1.74-.93,3.68-.93,2.92,0,6.12,1.28,6.12,6.55v30.1c0,2.96-1.74,3.89-4.31,3.89h-.97c-2.22,0-3.89-.64-4.24-2.84-.07-.64-.14-1.28-.14-1.97-2.29,3.31-6.05,5.39-11.05,5.39-9.18,0-15.57-6.03-15.57-14.91ZM959.66,727.35c-1.46-2.78-4.24-4.52-8.41-4.52-5.28,0-8.83,3.19-8.83,8.29s3.62,8.35,8.69,8.35c4.66,0,8.55-2.73,8.55-6.79v-5.34Z"/>
  </g>
</svg>