<?xml version="1.0" encoding="UTF-8"?>
<svg id="Layer_1" xmlns="http://www.w3.org/2000/svg" viewBox="0 0 855.62 543.55">
  <defs>
    <style>
      .cls-1 {
        fill: #fdf0ff;
        stroke: #242433;
        stroke-miterlimit: 10;
      }

      .cls-2 {
        fill: #ce5a83;
      }

      .cls-3, .cls-4 {
        fill: #231f20;
      }

      .cls-5, .cls-6, .cls-7, .cls-8, .cls-9, .cls-10 {
        font-family: Montserrat-Medium, Montserrat;
        font-weight: 500;
      }

      .cls-5, .cls-11 {
        letter-spacing: 0em;
      }

      .cls-6, .cls-12 {
        letter-spacing: 0em;
      }

      .cls-7, .cls-13 {
        letter-spacing: 0em;
      }

      .cls-8, .cls-14 {
        letter-spacing: 0em;
      }

      .cls-4 {
        font-size: 20px;
      }

      .cls-9, .cls-15 {
        letter-spacing: -.02em;
      }

      .cls-16 {
        fill: #242433;
      }

      .cls-17 {
        letter-spacing: 0em;
      }

      .cls-18 {
        font-family: Montserrat-Bold, Montserrat;
        font-weight: 700;
      }

      .cls-19 {
        letter-spacing: -.01em;
      }

      .cls-20 {
        letter-spacing: -.01em;
      }

      .cls-21 {
        letter-spacing: 0em;
      }

      .cls-22 {
        letter-spacing: 0em;
      }

      .cls-23 {
        letter-spacing: -.01em;
      }

      .cls-24 {
        letter-spacing: 0em;
      }

      .cls-25 {
        fill: #619883;
      }

      .cls-26 {
        letter-spacing: 0em;
      }

      .cls-27 {
        letter-spacing: 0em;
      }

      .cls-28 {
        letter-spacing: 0em;
      }
    </style>
  </defs>
  <rect class="cls-16" x="458.6" y=".5" width="137.4" height="137.4" rx="68.7" ry="68.7"/>
  <rect class="cls-1" x="676.22" y=".5" width="137.4" height="137.4" rx="68.7" ry="68.7"/>
  <rect class="cls-25" x="225.14" y=".5" width="137.4" height="137.4" rx="68.7" ry="68.7"/>
  <rect class="cls-2" x=".9" y=".5" width="137.4" height="137.4" rx="68.7" ry="68.7"/>
  <text class="cls-4" transform="translate(.9 166.32)"><tspan class="cls-18"><tspan x="0" y="0">M</tspan><tspan class="cls-24" x="19.1" y="0">y</tspan><tspan class="cls-17" x="30.9" y="0">stic</tspan></tspan><tspan class="cls-10"><tspan x="0" y="30">#C</tspan><tspan class="cls-13" x="28.52" y="30">E</tspan><tspan x="41.78" y="30">5</tspan><tspan class="cls-21" x="53.26" y="30">A</tspan><tspan x="67.8" y="30">83</tspan></tspan><tspan class="cls-18" x="0" y="60">R</tspan><tspan class="cls-10" x="14.7" y="60"> </tspan><tspan class="cls-6" x="20.08" y="60">2</tspan><tspan class="cls-10" x="31.5" y="60">06 </tspan><tspan class="cls-18" x="62.56" y="60">G</tspan><tspan class="cls-10" x="77.98" y="60" xml:space="preserve"> 90 </tspan><tspan class="cls-18" x="114.42" y="60">B </tspan><tspan class="cls-10" x="135.38" y="60">131</tspan><tspan class="cls-18" x="0" y="90">C</tspan><tspan class="cls-10" x="14.66" y="90">0 </tspan><tspan class="cls-18" x="0" y="120">M</tspan><tspan class="cls-10" x="19.1" y="120">56</tspan><tspan class="cls-18" x="0" y="150">Y</tspan><tspan class="cls-10" x="13.52" y="150">36</tspan><tspan class="cls-18" x="0" y="180">K</tspan><tspan class="cls-10" x="14.8" y="180">19</tspan></text>
  <text class="cls-4" transform="translate(225.14 166.32)"><tspan class="cls-18"><tspan class="cls-20" x="0" y="0">P</tspan><tspan class="cls-11" x="14.38" y="0">olis</tspan><tspan class="cls-28" x="49.98" y="0">h</tspan><tspan class="cls-11" x="63.88" y="0">ed </tspan><tspan class="cls-23" x="95.88" y="0">P</tspan><tspan class="cls-11" x="110.28" y="0">i</tspan><tspan class="cls-28" x="116.26" y="0">n</tspan><tspan class="cls-26" x="130.16" y="0">e</tspan></tspan><tspan class="cls-5"><tspan x="0" y="30">#619883</tspan></tspan><tspan class="cls-18" x="0" y="60">R </tspan><tspan class="cls-7" x="20.36" y="60">9</tspan><tspan class="cls-10" x="32.56" y="60">7 </tspan><tspan class="cls-18" x="49.9" y="60">G </tspan><tspan class="cls-10" x="70.98" y="60">1</tspan><tspan class="cls-8" x="78.38" y="60">5</tspan><tspan class="cls-10" x="89.76" y="60">2 </tspan><tspan class="cls-18" x="106.62" y="60">B </tspan><tspan class="cls-10" x="127.58" y="60">131</tspan><tspan class="cls-18" x="0" y="90">C</tspan><tspan class="cls-10" x="14.66" y="90">36 </tspan><tspan class="cls-18" x="0" y="120">M</tspan><tspan class="cls-10" x="19.1" y="120">0</tspan><tspan class="cls-18" x="0" y="150">Y</tspan><tspan class="cls-10" x="13.52" y="150">13</tspan><tspan class="cls-18" x="0" y="180">K</tspan><tspan class="cls-10" x="14.8" y="180">40</tspan></text>
  <text class="cls-4" transform="translate(665.62 170.32)"><tspan class="cls-18"><tspan class="cls-11" x="0" y="0">M</tspan><tspan class="cls-28" x="19.06" y="0">a</tspan><tspan class="cls-11" x="31.48" y="0">g</tspan><tspan class="cls-28" x="45.44" y="0">n</tspan><tspan class="cls-11" x="59.34" y="0">olia</tspan></tspan><tspan class="cls-10"><tspan class="cls-11" x="0" y="30">#FD</tspan><tspan class="cls-19" x="43.16" y="30">F</tspan><tspan class="cls-11" x="55.56" y="30">0FF</tspan></tspan><tspan class="cls-18" x="0" y="60">R </tspan><tspan class="cls-10" x="20.36" y="60">2</tspan><tspan class="cls-8" x="31.84" y="60">5</tspan><tspan class="cls-10" x="43.22" y="60">3 </tspan><tspan class="cls-18" x="60.04" y="60">G </tspan><tspan class="cls-9" x="81.12" y="60">2</tspan><tspan class="cls-10" x="92.22" y="60">40 </tspan><tspan class="cls-18" x="124.32" y="60">B </tspan><tspan class="cls-10" x="145.28" y="60">2</tspan><tspan class="cls-8" x="156.76" y="60">5</tspan><tspan class="cls-10" x="168.14" y="60">5</tspan><tspan class="cls-18" x="0" y="90">C</tspan><tspan class="cls-10" x="14.66" y="90">0 </tspan><tspan class="cls-18" x="0" y="120">M</tspan><tspan class="cls-10" x="19.1" y="120">5</tspan><tspan class="cls-18" x="0" y="150">Y</tspan><tspan class="cls-10" x="13.52" y="150">0</tspan><tspan class="cls-18" x="0" y="180">K</tspan><tspan class="cls-10" x="14.8" y="180">0</tspan></text>
  <text class="cls-4" transform="translate(458.6 166.32)"><tspan class="cls-18"><tspan class="cls-14" x="0" y="0">R</tspan><tspan x="14.6" y="0">aisin Bl</tspan><tspan class="cls-27" x="90.4" y="0">a</tspan><tspan class="cls-22" x="102.86" y="0">c</tspan><tspan x="114.6" y="0">k</tspan></tspan><tspan class="cls-10"><tspan x="0" y="30">#</tspan><tspan class="cls-15" x="14.06" y="30">2</tspan><tspan class="cls-12" x="25.16" y="30">4</tspan><tspan class="cls-15" x="38.48" y="30">2</tspan><tspan class="cls-23" x="49.58" y="30">4</tspan><tspan class="cls-14" x="62.72" y="30">3</tspan><tspan x="74.06" y="30">3</tspan></tspan><tspan class="cls-18" x="0" y="60">R </tspan><tspan class="cls-10" x="20.36" y="60">36 </tspan><tspan class="cls-18" x="49.52" y="60">G </tspan><tspan class="cls-10" x="70.6" y="60">36 </tspan><tspan class="cls-18" x="99.76" y="60">B </tspan><tspan class="cls-10" x="120.72" y="60">51</tspan><tspan class="cls-18" x="0" y="90">C</tspan><tspan class="cls-10" x="14.66" y="90">29 </tspan><tspan class="cls-18" x="0" y="120">M</tspan><tspan class="cls-10" x="19.1" y="120">29</tspan><tspan class="cls-18" x="0" y="150">Y</tspan><tspan class="cls-10" x="13.52" y="150">0</tspan><tspan class="cls-18" x="0" y="180">K</tspan><tspan class="cls-10" x="14.8" y="180">80</tspan></text>
  <path class="cls-3" d="M214.61,447.28c0,2.35-1.1,3.55-3.55,3.55-1.92,0-2.98-.19-5.28-.19-2.54,0-3.55.14-5.38.14-2.06,0-3.55-1.1-3.55-3.5,0-2.21,1.54-3.5,3.55-3.5,1.78,0,2.74.14,5.47.14,1.92,0,3.36-.19,5.23-.19,2.45,0,3.5,1.3,3.5,3.55Z"/>
  <g>
    <path class="cls-3" d="M28.37,458.75c0-3.26.38-6.77.38-10.42,0-2.21,0-3.94-.05-6.1-1.97,5.14-4.32,11.18-5.42,13.54-1.1,2.3-2.35,3.41-4.42,3.41-2.3,0-3.84-.96-4.7-3.22-1.97-4.94-3.41-8.64-5.18-14.07-.05.96-.05,1.87-.05,2.74,0,5.47.19,9.41.19,13.73,0,2.83-1.49,4.7-4.42,4.7-3.26,0-4.7-1.54-4.7-4.46,0-3.84.34-7.44.34-11.62,0-3.07-.19-7.73-.19-10.8s1.97-5.14,6.05-5.14c3.84,0,5.81.91,7.15,4.27,2.3,5.86,3.6,8.64,5.76,12.91,2.35-4.71,3.89-7.97,6-12.77,1.39-3.17,3.31-4.32,7.01-4.32,4.27,0,6.05,2.06,6.05,5.62s-.19,6.72-.19,11.76c0,3.36.24,6.14.24,10.56,0,2.93-1.87,4.61-4.8,4.61-3.46,0-5.04-1.44-5.04-4.94Z"/>
    <path class="cls-3" d="M58.99,459.23c-1.49,2.74-4.46,4.13-8.26,4.13-5.28,0-8.78-2.59-8.78-7.3,0-3.98,3.22-7.54,11.81-7.54,1.1,0,2.35.14,3.65.38-.34-3.12-1.49-4.18-3.74-4.18-1.78,0-3.12.53-4.8,1.68-.86.58-1.78.96-2.78.96-1.73,0-2.98-1.2-2.98-3.07,0-2.59,3.17-5.09,11.18-5.09s11.71,3.36,11.71,10.13c0,7.73.19,8.4.82,8.4.29,0,.53-.19.82-.19.82,0,1.34.58,1.34,1.92,0,1.92-2.16,3.6-4.7,3.6-2.78,0-4.56-1.1-5.28-3.84ZM57.5,453.09c-.96-.14-1.92-.24-2.83-.24-2.88,0-4.13,1.3-4.13,2.93s1.25,2.69,3.07,2.69c2.16,0,3.6-1.3,3.89-5.38Z"/>
    <path class="cls-3" d="M75.55,463.55c-2.59,0-4.32-1.34-4.32-4.27,0-1.63.29-3.17.29-6.67,0-5.18-.43-7.25-.43-8.93,0-2.3,1.39-3.94,3.94-3.94,2.69,0,3.84,1.1,4.27,4.94,1.3-3.17,3.79-4.99,6.62-4.99,2.64,0,4.42,1.63,4.42,4.61,0,2.26-1.3,3.31-2.83,3.31-.43,0-.82-.1-1.49-.29-.48-.14-1.06-.29-1.63-.29-2.69,0-4.18,2.59-4.18,7.73,0,1.92.24,3.31.24,4.51,0,3.12-1.58,4.27-4.9,4.27Z"/>
    <path class="cls-3" d="M90.48,468.64c0-2.98,1.97-5.38,6.86-6.53-1.1-.72-1.63-1.73-1.63-2.88,0-1.44.77-2.88,2.93-3.79-4.37-1.15-6.82-3.84-6.82-7.39,0-4.94,4.22-8.59,12.29-8.59,1.39,0,2.69.1,3.84.34.77-5.33,2.64-7.3,5.18-7.3,2.21,0,4.13,1.44,4.13,3.46,0,1.39-.67,2.21-2.64,3.12-1.15.58-1.92,1.1-2.64,2.02,2.93,1.44,4.61,3.74,4.61,6.48,0,5.57-4.85,8.59-12.19,8.59h-.1c-.14.24-.24.48-.24.72,0,.86.53,1.34,2.45,1.49,7.92.58,11.09,3.31,11.09,7.44,0,5.86-6.62,9.89-15.46,9.89-6.86,0-11.67-2.69-11.67-7.06ZM108.82,467.54c0-1.44-1.01-2.59-6-2.93-2.74.58-3.79,1.92-3.79,3.22,0,1.63,1.58,2.59,4.27,2.59,3.26,0,5.52-1.25,5.52-2.88ZM107.47,448.05c0-2.5-1.25-4.18-3.36-4.18-2.26,0-3.5,1.58-3.5,4.08,0,2.64,1.3,4.13,3.6,4.13,1.82,0,3.26-1.39,3.26-4.03Z"/>
    <path class="cls-3" d="M129.17,433.07c0,2.78-1.58,4.8-4.51,4.8s-4.61-1.63-4.61-4.56c0-2.74,1.73-4.61,4.61-4.61,3.02,0,4.51,1.92,4.51,4.37ZM128.98,452.22c0,3.55.29,5.14.29,6.77,0,2.69-1.58,4.32-4.37,4.32-3.5,0-4.66-1.58-4.66-4.18,0-1.39.19-4.18.19-6.96,0-4.18-.38-6.67-.38-8.21,0-2.59,1.3-4.32,4.61-4.32s4.46,1.44,4.46,4.32c0,2.35-.14,4.08-.14,8.26Z"/>
    <path class="cls-3" d="M137.71,463.31c-2.98,0-4.61-1.54-4.61-4.42,0-1.68.38-4.9.38-7.01,0-4.7-.38-6.34-.38-8.54,0-2.35,1.39-3.89,3.98-3.89,2.4,0,3.65,1.1,3.98,4.8,1.44-3.31,4.56-5.23,8.45-5.23,5.76,0,8.5,3.6,8.5,9.5,0,3.5.1,5.9.24,7.1.19,2.02.62,2.78.62,4.03,0,2.16-1.54,3.6-4.13,3.6s-4.18-.96-4.9-3.12c-.43-1.39-.58-3.6-.58-9.17,0-3.74-.91-4.99-3.02-4.99-2.69,0-4.08,2.45-4.08,7.78,0,2.02.14,4.22.14,5.18,0,2.88-1.78,4.37-4.61,4.37Z"/>
    <path class="cls-3" d="M161.66,471.47c0-1.39.77-2.26,3.12-3.5,1.92-1.06,3.31-2.21,4.94-4.32-3.89-6.72-6.14-11.71-8.64-17.76-.48-1.2-.82-2.3-.82-3.22,0-2.3,1.44-3.74,4.22-3.74,2.5,0,3.7,1.01,4.8,4.8,1.39,4.8,2.69,8.35,4.37,12.19.82-2.74,1.63-6.14,2.59-11.28.67-3.79,2.26-5.38,5.14-5.38,2.35,0,3.6,1.01,3.6,3.12,0,.86-.24,1.78-.67,3.31-3.22,10.85-6,17.67-9.41,22.9-2.98,4.51-6.14,6.82-8.88,6.82-2.5,0-4.37-1.82-4.37-3.94Z"/>
    <path class="cls-3" d="M232.32,463.12c-2.78-.48-3.84-1.58-3.84-4.18s.53-6.53.53-11.86c0-4.7-.19-7.73-.19-11.76,0-2.5,1.34-3.89,3.84-4.03,3.22-.24,5.95-.24,8.98-.24,12.24,0,16.47,3.07,16.47,8.74,0,3.94-2.93,6.38-6.86,7.1,5.86.86,8.06,3.94,8.06,7.58,0,6.1-5.81,9.41-16.95,9.41-3.22,0-7.1-.29-10.03-.77ZM249.5,454.1c0-2.54-1.34-3.79-6.91-3.79h-4.37c0,2.64.05,4.75.14,7.06,1.58.19,3.17.29,4.42.29,4.7,0,6.72-1.3,6.72-3.55ZM248.3,440.61c0-2.26-1.39-3.41-6.1-3.41-.96,0-2.26.05-3.65.14-.1,1.82-.24,4.03-.29,6.67h5.09c3.5,0,4.94-1.2,4.94-3.41Z"/>
    <path class="cls-3" d="M261.69,451.55c0-6.72,4.42-12.29,13.3-12.29,8.26,0,13.54,4.22,13.54,11.67,0,7.83-5.33,12.39-13.25,12.39s-13.58-3.94-13.58-11.76ZM275.04,444.49c-2.64,0-4.18,2.4-4.18,6.62,0,4.66,1.73,6.86,4.42,6.86,2.35,0,4.03-2.26,4.03-6.43,0-4.7-1.54-7.06-4.27-7.06Z"/>
    <path class="cls-3" d="M291.98,444.93c0-7.34-.34-10.8-.34-13.01,0-2.69,1.68-4.66,4.66-4.66s4.37,1.73,4.37,4.71c0,4.75-.19,7.73-.19,14.45,0,5.52.43,9.74.43,12.96,0,2.78-1.44,4.32-4.46,4.32s-4.61-1.15-4.61-4.42c0-2.74.14-6.38.14-14.35Z"/>
    <path class="cls-3" d="M322.61,458.65c-1.68,3.46-5.09,5.14-8.59,5.14-5.81,0-9.98-4.13-9.98-11.76,0-6.58,3.55-12.72,11.04-12.72,2.26,0,4.37.62,6.48,2.5.1-4.66.19-8.3.24-9.7.19-3.41,1.68-4.61,4.56-4.61,3.02,0,4.42,1.3,4.42,4.66,0,3.12-.58,9.31-.58,17.67,0,5.81.43,7.2.43,9.6,0,2.59-1.34,3.94-4.03,3.94-2.4,0-3.55-1.3-3.98-4.71ZM321.45,450.06c0-1.15.05-2.3.05-3.41-1.2-1.2-2.5-1.82-3.65-1.82-2.88,0-4.7,2.64-4.7,7.15,0,4.08,1.54,6.14,3.94,6.14,2.54,0,4.27-2.3,4.37-8.06Z"/>
  </g>
  <g>
    <path d="M31.53,528.33c0-3.41.38-7.34.38-12.1,0-3.6-.05-6.58-.1-10.37-3.02,6-6.53,13.35-9.26,18-.91,1.63-1.73,2.4-3.02,2.4-1.39,0-2.26-.67-3.02-2.06-3.79-6.87-6.53-12.1-9.74-19.2-.05,2.88-.1,5.57-.1,8.45,0,5.47.19,9.31.19,14.02,0,2.06-.86,3.31-2.78,3.31s-2.83-1.06-2.83-3.07c0-4.66.29-8.54.29-13.39,0-3.84-.14-7.97-.14-11.95,0-2.16,1.39-3.41,3.89-3.41s3.79.62,4.8,2.78c3.36,7.2,5.66,11.38,9.5,17.52,3.79-6.43,6.34-11.19,9.6-17.38,1.15-2.16,2.21-2.83,4.61-2.83,2.64,0,3.74,1.39,3.74,3.79,0,4.51-.19,8.35-.19,13.58,0,3.5.19,7.49.19,12.15,0,1.87-1.1,3.02-2.93,3.02-2.11,0-3.07-1.01-3.07-3.26Z"/>
    <path d="M60.09,526.22c-1.49,3.17-4.9,4.99-8.93,4.99-5.04,0-8.4-2.64-8.4-7.15,0-3.94,3.36-7.3,11.14-7.3,1.54,0,3.6.29,5.42.77-.19-4.37-1.87-6.1-5.33-6.1-2.16,0-3.5.58-5.38,2.06-1.06.82-1.68,1.15-2.45,1.15-1.3,0-2.11-.91-2.11-2.16,0-2.4,3.84-4.75,10.13-4.75,7.01,0,10.32,3.55,10.32,9.41,0,9.74.29,10.32,1.3,10.32.58,0,.86-.38,1.25-.38.58,0,1.01.43,1.01,1.3,0,1.34-1.63,2.54-3.6,2.54-2.45,0-3.98-1.15-4.37-4.71ZM59.27,520.65c-1.63-.38-3.41-.62-5.09-.62-4.18,0-6.14,1.73-6.14,3.94,0,2.35,1.92,3.7,4.85,3.7,3.46,0,5.9-1.87,6.38-7.01Z"/>
    <path d="M71.46,528.33c0-2.11.29-3.89.29-7.73,0-6.19-.62-8.26-.62-9.75s.91-2.54,2.5-2.54c1.97,0,2.69,1.15,2.83,6.43,1.39-4.08,4.32-6.67,7.68-6.67,2.54,0,4.46,1.34,4.46,3.41,0,1.34-.82,2.02-1.82,2.02-.43,0-.82-.1-1.54-.43-.53-.24-1.15-.38-2.02-.38-3.79,0-6.29,4.66-6.29,10.75,0,2.16.19,3.98.19,4.9,0,2.21-.96,3.07-2.93,3.07-1.68,0-2.74-.96-2.74-3.07Z"/>
    <path d="M88.84,536.59c0-3.31,2.59-5.86,7.92-7.1-.96-.62-1.44-1.49-1.44-2.54,0-1.15.72-2.35,2.5-3.26-4.32-1.06-6.82-3.84-6.82-7.44,0-4.56,3.89-8.3,10.99-8.3,1.39,0,2.69.14,3.84.43,1.34-4.9,3.55-7.3,6.1-7.3,1.34,0,2.45.91,2.45,2.21,0,1.01-.48,1.78-2.02,2.54-1.44.72-2.54,1.82-3.5,3.7,2.69,1.44,4.18,3.79,4.18,6.38,0,5.09-4.37,8.3-10.85,8.3h-.96c-.53.48-.72,1.01-.72,1.49,0,.77.58,1.44,2.69,1.63,8.16.82,11.23,3.12,11.23,6.96,0,5.62-6.58,9.26-14.64,9.26-6.29,0-10.94-2.64-10.94-6.96ZM108.95,535.24c0-2.02-1.63-3.36-8.16-3.98-4.7.91-6.43,2.93-6.43,4.85,0,2.3,2.16,3.65,6.19,3.65,4.85,0,8.4-1.78,8.4-4.51ZM107.46,516.28c0-3.07-2.11-4.99-5.47-4.99s-5.62,1.87-5.62,4.75c0,3.07,2.02,4.94,5.86,4.94,2.88,0,5.23-1.54,5.23-4.7Z"/>
    <path d="M124.55,501.21c0,2.54-1.1,3.89-2.98,3.89-1.97,0-3.07-1.2-3.07-3.65,0-2.11,1.15-3.5,3.07-3.5s2.98,1.34,2.98,3.26ZM124.17,520.6c0,4.46.34,6.05.34,7.63,0,2.02-.96,3.12-2.74,3.12-2.11,0-2.88-1.06-2.88-3.02,0-1.2.19-4.99.19-8.02,0-4.75-.38-7.92-.38-9.22,0-1.92.86-2.98,2.88-2.98s2.69.91,2.69,2.98c0,1.82-.1,4.32-.1,9.5Z"/>
    <path d="M147.98,528.48c-.38-1.63-.48-4.13-.48-10.27,0-4.42-1.68-6.24-4.75-6.24-4.13,0-6.72,4.18-6.72,9.94,0,3.17.1,5.23.1,6.14,0,2.16-1.06,3.12-2.83,3.12-1.92,0-2.88-1.06-2.88-3.22,0-2.02.38-5.04.38-7.54,0-6.48-.62-8.11-.62-10.18,0-1.44.86-2.4,2.45-2.4,1.82,0,2.64,1.1,2.78,6.14,1.39-3.79,4.9-6.43,9.12-6.43,5.38,0,8.26,3.46,8.26,9.26,0,4.66.1,7.15.29,8.54.24,1.97.67,2.54.67,3.6,0,1.34-.96,2.3-2.59,2.3s-2.74-.77-3.17-2.78Z"/>
    <path d="M157.77,540.81c0-.91.48-1.68,2.06-2.4,2.98-1.34,4.37-2.5,6.82-6.62-4.18-7.15-6.82-12.82-9.6-19.35-.34-.77-.62-1.73-.62-2.35,0-1.49.91-2.45,2.54-2.45s2.4.91,3.17,3.07c2.26,6.43,4.22,10.9,7.01,16.23,1.78-3.98,3.36-8.74,5.04-15.75.58-2.35,1.49-3.41,3.26-3.41,1.49,0,2.35.62,2.35,2.11,0,.58-.14,1.15-.43,2.11-3.65,11.09-6.91,19.11-10.46,24.53-2.88,4.51-6.19,6.72-8.35,6.72-1.63,0-2.78-1.1-2.78-2.45Z"/>
    <path d="M210.23,515.27c0,1.44-.77,2.3-2.64,2.3-1.78,0-3.07-.19-5.57-.19-3.17,0-4.22.14-6,.14-1.63,0-2.64-.91-2.64-2.21,0-1.54.96-2.26,2.69-2.26,1.87,0,2.69.14,5.66.14,2.11,0,3.7-.19,5.76-.19,1.92,0,2.74.86,2.74,2.26Z"/>
    <path d="M256.65,528.33c0-3.41.38-7.34.38-12.1,0-3.6-.05-6.58-.1-10.37-3.02,6-6.53,13.35-9.26,18-.91,1.63-1.73,2.4-3.02,2.4-1.39,0-2.26-.67-3.02-2.06-3.79-6.87-6.53-12.1-9.74-19.2-.05,2.88-.1,5.57-.1,8.45,0,5.47.19,9.31.19,14.02,0,2.06-.86,3.31-2.78,3.31s-2.83-1.06-2.83-3.07c0-4.66.29-8.54.29-13.39,0-3.84-.14-7.97-.14-11.95,0-2.16,1.39-3.41,3.89-3.41s3.79.62,4.8,2.78c3.36,7.2,5.66,11.38,9.5,17.52,3.79-6.43,6.34-11.19,9.6-17.38,1.15-2.16,2.21-2.83,4.61-2.83,2.64,0,3.74,1.39,3.74,3.79,0,4.51-.19,8.35-.19,13.58,0,3.5.19,7.49.19,12.15,0,1.87-1.1,3.02-2.93,3.02-2.11,0-3.07-1.01-3.07-3.26Z"/>
    <path d="M280.21,531.12c-6.77,0-12.1-3.79-12.1-11.09s5.14-12.43,12.91-12.43c6,0,9.84,3.12,9.84,7.15,0,4.66-4.03,7.15-10.61,7.15-2.16,0-4.7-.43-6.86-1.06.29,4.42,3.02,6.67,7.2,6.67,2.02,0,4.03-.86,6.53-3.26.82-.77,1.34-1.06,2.02-1.06,1.2,0,2.21.96,2.21,2.21,0,2.35-4.75,5.71-11.14,5.71ZM285.83,514.89c0-2.16-1.97-3.89-5.04-3.89-3.41,0-6.24,2.64-7.15,6.38,1.97.67,4.18,1.06,6.38,1.06,3.65,0,5.81-1.34,5.81-3.55Z"/>
    <path d="M314.34,525.21c-1.92,4.46-5.76,6.38-9.46,6.38-5.66,0-9.99-4.46-9.99-11.57,0-6.58,3.79-12.48,11.19-12.48,2.54,0,5.23.96,7.78,3.26,0-6.38,0-10.66.1-12.1.1-2.45,1.01-3.36,2.83-3.36s2.78.86,2.78,3.22c0,3.22-.48,9.12-.48,19.25,0,7.06.48,8.54.48,10.46s-.77,2.74-2.5,2.74-2.45-1.06-2.74-5.81ZM313.81,517.19v-2.93c-1.97-2.02-4.37-3.12-6.43-3.12-4.18,0-6.96,3.6-6.96,8.98,0,4.56,2.5,7.78,6.19,7.78,3.89,0,7.15-3.94,7.2-10.71Z"/>
    <path d="M331.48,501.21c0,2.54-1.1,3.89-2.98,3.89-1.97,0-3.07-1.2-3.07-3.65,0-2.11,1.15-3.5,3.07-3.5s2.98,1.34,2.98,3.26ZM331.09,520.6c0,4.46.34,6.05.34,7.63,0,2.02-.96,3.12-2.74,3.12-2.11,0-2.88-1.06-2.88-3.02,0-1.2.19-4.99.19-8.02,0-4.75-.38-7.92-.38-9.22,0-1.92.86-2.98,2.88-2.98s2.69.91,2.69,2.98c0,1.82-.1,4.32-.1,9.5Z"/>
    <path d="M354.18,525.5c-1.54,3.74-4.9,5.86-8.45,5.86-6.05,0-9.02-3.46-9.02-11.14,0-4.27.19-6.87.58-9.6.29-1.97,1.3-2.83,2.83-2.83,1.87,0,2.69,1.01,2.69,2.88s-.86,4.03-.86,9.41c0,4.85,1.82,7.01,5.09,7.01,3.6,0,6.43-3.02,6.43-8.78,0-3.65-.34-6.14-.34-8.11s.82-3.02,2.78-3.02,2.93.96,2.93,3.41c0,3.17-.14,5.14-.14,8.93,0,5.81,1.06,7.58,1.06,9.36,0,1.25-.86,2.11-2.26,2.11-1.06,0-1.73-.29-2.26-1.25-.53-.96-.91-2.45-1.06-4.22Z"/>
    <path d="M368.48,531.45c-1.78,0-2.78-1.06-2.78-3.41s.14-3.41.14-7.15c0-6.58-.82-9.07-.82-10.71,0-1.44.86-2.35,2.4-2.35,1.82,0,2.64,1.06,2.88,6.05,1.73-3.94,4.8-6.48,8.54-6.48s6.19,1.97,7.25,5.81c1.63-3.41,4.61-5.81,8.45-5.81,5.71,0,8.4,3.74,8.4,9.31,0,5.91.05,7.15.34,8.88.24,1.68.48,2.02.48,2.98,0,1.2-.77,2.3-2.54,2.3s-2.83-.82-3.26-2.98c-.29-1.63-.38-4.03-.38-9.31,0-4.85-1.58-7.01-4.61-7.01-3.36,0-5.76,3.41-5.76,9.65,0,2.16.29,4.66.29,6.82s-1.06,3.17-2.93,3.17-2.88-.96-2.88-3.36c0-2.11.29-4.56.29-6.87,0-6.96-1.68-9.17-4.66-9.17-3.5,0-6.29,4.08-6.29,10.18,0,2.59.24,4.18.24,6.34s-.91,3.12-2.78,3.12Z"/>
  </g>
</svg>