<?xml version="1.0" encoding="UTF-8"?>
<svg id="Layer_1" xmlns="http://www.w3.org/2000/svg" viewBox="0 0 844.54 543.55">
  <defs>
    <style>
      .cls-1 {
        fill: #fdf0ff;
        stroke: #242433;
        stroke-miterlimit: 10;
      }

      .cls-2 {
        fill: #ce5a83;
      }

      .cls-3 {
        fill: #231f20;
      }

      .cls-4 {
        fill: #242433;
      }

      .cls-5 {
        fill: #619883;
      }
    </style>
  </defs>
  <rect class="cls-4" x="458.6" y=".5" width="137.4" height="137.4" rx="68.7" ry="68.7"/>
  <rect class="cls-1" x="676.22" y=".5" width="137.4" height="137.4" rx="68.7" ry="68.7"/>
  <rect class="cls-5" x="225.14" y=".5" width="137.4" height="137.4" rx="68.7" ry="68.7"/>
  <rect class="cls-2" x=".9" y=".5" width="137.4" height="137.4" rx="68.7" ry="68.7"/>
  <g>
    <path class="cls-3" d="M15.31,166.32l-.02-8.4-4.12,6.92h-1.46l-4.1-6.74v8.22h-3.04v-14h2.68l5.24,8.7,5.16-8.7h2.66l.04,14h-3.04Z"/>
    <path class="cls-3" d="M32.12,155.56l-4.86,11.42c-1.04,2.6-2.52,3.38-4.46,3.38-1.1,0-2.3-.36-3-.98l1.14-2.22c.48.42,1.14.68,1.76.68.86,0,1.34-.38,1.76-1.34l.04-.1-4.66-10.84h3.22l3.02,7.3,3.04-7.3h3Z"/>
    <path class="cls-3" d="M32.2,165.32l1.04-2.24c.96.62,2.42,1.04,3.74,1.04,1.44,0,1.98-.38,1.98-.98,0-1.76-6.5.04-6.5-4.26,0-2.04,1.84-3.48,4.98-3.48,1.48,0,3.12.34,4.14.94l-1.04,2.22c-1.06-.6-2.12-.8-3.1-.8-1.4,0-2,.44-2,1,0,1.84,6.5.06,6.5,4.3,0,2-1.86,3.42-5.08,3.42-1.82,0-3.66-.5-4.66-1.16Z"/>
    <path class="cls-3" d="M50.8,165.8c-.64.46-1.58.68-2.54.68-2.54,0-4.02-1.3-4.02-3.86v-4.42h-1.66v-2.4h1.66v-2.62h3.12v2.62h2.68v2.4h-2.68v4.38c0,.92.5,1.42,1.34,1.42.46,0,.92-.14,1.26-.4l.84,2.2Z"/>
    <path class="cls-3" d="M52.18,152.32c0-.98.78-1.74,1.94-1.74s1.94.72,1.94,1.68c0,1.04-.78,1.8-1.94,1.8s-1.94-.76-1.94-1.74ZM52.56,155.56h3.12v10.76h-3.12v-10.76Z"/>
    <path class="cls-3" d="M57.78,160.94c0-3.24,2.5-5.54,6-5.54,2.26,0,4.04.98,4.82,2.74l-2.42,1.3c-.58-1.02-1.44-1.48-2.42-1.48-1.58,0-2.82,1.1-2.82,2.98s1.24,2.98,2.82,2.98c.98,0,1.84-.44,2.42-1.48l2.42,1.32c-.78,1.72-2.56,2.72-4.82,2.72-3.5,0-6-2.3-6-5.54Z"/>
    <path class="cls-3" d="M11.48,187.38l-.48,3.88h2.78v1.46h-2.96l-.44,3.6h-1.42l.44-3.6h-3.78l-.44,3.6h-1.42l.44-3.6H1.44v-1.46h2.94l.5-3.88h-2.8v-1.46h2.98l.44-3.6h1.42l-.44,3.6h3.76l.44-3.6h1.42l-.44,3.6h2.76v1.46h-2.94ZM10.06,187.38h-3.76l-.5,3.88h3.78l.48-3.88Z"/>
    <path class="cls-3" d="M15.92,189.32c0-4.14,3.16-7.16,7.42-7.16,2.16,0,4.04.74,5.32,2.18l-1.3,1.26c-1.08-1.14-2.4-1.66-3.94-1.66-3.16,0-5.5,2.28-5.5,5.38s2.34,5.38,5.5,5.38c1.54,0,2.86-.54,3.94-1.68l1.3,1.26c-1.28,1.44-3.16,2.2-5.34,2.2-4.24,0-7.4-3.02-7.4-7.16Z"/>
    <path class="cls-3" d="M41.69,194.58v1.74h-10.16v-14h9.88v1.74h-7.88v4.3h7.02v1.7h-7.02v4.52h8.16Z"/>
    <path class="cls-3" d="M53.46,192.12c0,2.42-1.72,4.36-5.3,4.36-1.98,0-3.94-.64-5.14-1.7l.92-1.58c.94.88,2.5,1.5,4.2,1.5,2.12,0,3.32-.98,3.32-2.5s-1-2.56-4.24-2.56h-3.18l.74-7.32h7.9v1.74h-6.22l-.38,3.84h1.56c4.18,0,5.82,1.74,5.82,4.22Z"/>
    <path class="cls-3" d="M65.19,192.82h-7.44l-1.54,3.5h-2.06l6.34-14h1.98l6.36,14h-2.1l-1.54-3.5ZM64.48,191.22l-3.02-6.86-3.02,6.86h6.04Z"/>
    <path class="cls-3" d="M80.7,192.36c0,2.54-2.16,4.12-5.58,4.12s-5.54-1.58-5.54-4.12c0-1.6.88-2.78,2.46-3.38-1.28-.6-1.96-1.64-1.96-3.02,0-2.34,2.02-3.8,5.04-3.8s5.08,1.46,5.08,3.8c0,1.38-.7,2.42-1.98,3.02,1.6.62,2.48,1.78,2.48,3.38ZM78.7,192.3c0-1.54-1.36-2.5-3.58-2.5s-3.54.96-3.54,2.5,1.32,2.56,3.54,2.56,3.58-.98,3.58-2.56ZM72.06,186.04c0,1.38,1.14,2.24,3.06,2.24s3.12-.86,3.12-2.24-1.24-2.26-3.12-2.26-3.06.86-3.06,2.26Z"/>
    <path class="cls-3" d="M92.12,192.2c0,2.36-1.74,4.28-5.3,4.28-2,0-3.96-.64-5.14-1.7l.92-1.58c.94.88,2.5,1.5,4.22,1.5,2.1,0,3.3-.96,3.3-2.48s-1.06-2.44-3.46-2.44h-1.12v-1.4l3.52-4.32h-6.74v-1.74h9.24v1.36l-3.66,4.52c2.8.26,4.22,1.84,4.22,4Z"/>
    <path class="cls-3" d="M11.48,226.32l-2.7-3.9h-2.98v3.9h-3.24v-14h6.06c3.74,0,6.08,1.94,6.08,5.08,0,2.1-1.06,3.64-2.88,4.42l3.14,4.5h-3.48ZM8.44,214.96h-2.64v4.88h2.64c1.98,0,2.98-.92,2.98-2.44s-1-2.44-2.98-2.44Z"/>
    <path class="cls-3" d="M31.78,224.58v1.74h-10.06v-1.36l5.7-5.5c1.48-1.44,1.76-2.32,1.76-3.2,0-1.44-1.02-2.32-2.98-2.32-1.5,0-2.72.48-3.58,1.52l-1.36-1.18c1.08-1.34,2.94-2.12,5.12-2.12,2.92,0,4.8,1.5,4.8,3.9,0,1.36-.4,2.58-2.3,4.4l-4.28,4.12h7.18Z"/>
    <path class="cls-3" d="M33.36,219.32c0-4.56,2.44-7.16,5.72-7.16s5.7,2.6,5.7,7.16-2.44,7.16-5.7,7.16-5.72-2.6-5.72-7.16ZM42.79,219.32c0-3.58-1.52-5.38-3.7-5.38s-3.72,1.8-3.72,5.38,1.52,5.38,3.72,5.38,3.7-1.8,3.7-5.38Z"/>
    <path class="cls-3" d="M57.55,222.06c0,2.7-2.18,4.42-4.96,4.42-3.76,0-5.88-2.52-5.88-6.98,0-4.78,2.7-7.34,6.62-7.34,1.32,0,2.58.26,3.48.82l-.76,1.56c-.72-.48-1.68-.66-2.68-.66-2.84,0-4.66,1.78-4.66,5.28,0,.16,0,.32.02.5.8-1.2,2.28-1.84,4.02-1.84,2.78,0,4.8,1.66,4.8,4.24ZM55.6,222.14c0-1.64-1.24-2.7-3.2-2.7s-3.22,1.18-3.22,2.72c0,1.44,1.16,2.7,3.32,2.7,1.82,0,3.1-1.06,3.1-2.72Z"/>
    <path class="cls-3" d="M74.58,219.1h2.96v5.68c-1.54,1.16-3.66,1.78-5.66,1.78-4.4,0-7.64-3.02-7.64-7.24s3.24-7.24,7.7-7.24c2.46,0,4.5.84,5.86,2.42l-2.08,1.92c-1.02-1.08-2.2-1.58-3.62-1.58-2.72,0-4.58,1.82-4.58,4.48s1.86,4.48,4.54,4.48c.88,0,1.7-.16,2.52-.6v-4.1Z"/>
    <path class="cls-3" d="M95.64,219.14c0,4.78-2.7,7.34-6.62,7.34-1.32,0-2.58-.26-3.48-.82l.76-1.56c.74.48,1.68.66,2.7.66,2.84,0,4.64-1.78,4.64-5.28v-.5c-.82,1.22-2.3,1.84-4.04,1.84-2.78,0-4.78-1.66-4.78-4.24s2.16-4.42,4.94-4.42c3.76,0,5.88,2.52,5.88,6.98ZM93.18,216.48c0-1.44-1.16-2.7-3.34-2.7-1.82,0-3.08,1.06-3.08,2.72s1.22,2.7,3.18,2.7,3.24-1.18,3.24-2.72Z"/>
    <path class="cls-3" d="M97.56,219.32c0-4.56,2.44-7.16,5.72-7.16s5.7,2.6,5.7,7.16-2.44,7.16-5.7,7.16-5.72-2.6-5.72-7.16ZM106.98,219.32c0-3.58-1.52-5.38-3.7-5.38s-3.72,1.8-3.72,5.38,1.52,5.38,3.72,5.38,3.7-1.8,3.7-5.38Z"/>
    <path class="cls-3" d="M129.82,222.5c0,2.42-1.92,3.82-5.6,3.82h-7.24v-14h6.84c3.5,0,5.3,1.46,5.3,3.64,0,1.4-.72,2.48-1.86,3.08,1.56.5,2.56,1.7,2.56,3.46ZM120.2,214.76v3.3h3.22c1.58,0,2.44-.56,2.44-1.66s-.86-1.64-2.44-1.64h-3.22ZM126.56,222.16c0-1.18-.9-1.74-2.58-1.74h-3.78v3.46h3.78c1.68,0,2.58-.52,2.58-1.72Z"/>
    <path class="cls-3" d="M141.58,212.32v14h-1.98v-12.26h-3.16v-1.74h5.14Z"/>
    <path class="cls-3" d="M154.22,222.2c0,2.36-1.74,4.28-5.3,4.28-2,0-3.96-.64-5.14-1.7l.92-1.58c.94.88,2.5,1.5,4.22,1.5,2.1,0,3.3-.96,3.3-2.48s-1.06-2.44-3.46-2.44h-1.12v-1.4l3.52-4.32h-6.74v-1.74h9.24v1.36l-3.66,4.52c2.8.26,4.22,1.84,4.22,4Z"/>
    <path class="cls-3" d="M160.42,212.32v14h-1.98v-12.26h-3.16v-1.74h5.14Z"/>
    <path class="cls-3" d="M1.68,249.32c0-4.22,3.24-7.24,7.6-7.24,2.42,0,4.44.88,5.76,2.48l-2.08,1.92c-.94-1.08-2.12-1.64-3.52-1.64-2.62,0-4.48,1.84-4.48,4.48s1.86,4.48,4.48,4.48c1.4,0,2.58-.56,3.52-1.66l2.08,1.92c-1.32,1.62-3.34,2.5-5.78,2.5-4.34,0-7.58-3.02-7.58-7.24Z"/>
    <path class="cls-3" d="M16.52,249.32c0-4.56,2.44-7.16,5.72-7.16s5.7,2.6,5.7,7.16-2.44,7.16-5.7,7.16-5.72-2.6-5.72-7.16ZM25.94,249.32c0-3.58-1.52-5.38-3.7-5.38s-3.72,1.8-3.72,5.38,1.52,5.38,3.72,5.38,3.7-1.8,3.7-5.38Z"/>
    <path class="cls-3" d="M15.31,286.32l-.02-8.4-4.12,6.92h-1.46l-4.1-6.74v8.22h-3.04v-14h2.68l5.24,8.7,5.16-8.7h2.66l.04,14h-3.04Z"/>
    <path class="cls-3" d="M30.78,282.12c0,2.42-1.72,4.36-5.3,4.36-1.98,0-3.94-.64-5.14-1.7l.92-1.58c.94.88,2.5,1.5,4.2,1.5,2.12,0,3.32-.98,3.32-2.5s-1-2.56-4.24-2.56h-3.18l.74-7.32h7.9v1.74h-6.22l-.38,3.84h1.56c4.18,0,5.82,1.74,5.82,4.22Z"/>
    <path class="cls-3" d="M43.29,282.06c0,2.7-2.18,4.42-4.96,4.42-3.76,0-5.88-2.52-5.88-6.98,0-4.78,2.7-7.34,6.62-7.34,1.32,0,2.58.26,3.48.82l-.76,1.56c-.72-.48-1.68-.66-2.68-.66-2.84,0-4.66,1.78-4.66,5.28,0,.16,0,.32.02.5.8-1.2,2.28-1.84,4.02-1.84,2.78,0,4.8,1.66,4.8,4.24ZM41.34,282.14c0-1.64-1.24-2.7-3.2-2.7s-3.22,1.18-3.22,2.72c0,1.44,1.16,2.7,3.32,2.7,1.82,0,3.1-1.06,3.1-2.72Z"/>
    <path class="cls-3" d="M9.28,311.36v4.96h-3.24v-5l-5.42-9h3.44l3.74,6.22,3.74-6.22h3.18l-5.44,9.04Z"/>
    <path class="cls-3" d="M24.97,312.2c0,2.36-1.74,4.28-5.3,4.28-2,0-3.96-.64-5.14-1.7l.92-1.58c.94.88,2.5,1.5,4.22,1.5,2.1,0,3.3-.96,3.3-2.48s-1.06-2.44-3.46-2.44h-1.12v-1.4l3.52-4.32h-6.74v-1.74h9.24v1.36l-3.66,4.52c2.8.26,4.22,1.84,4.22,4Z"/>
    <path class="cls-3" d="M37.67,312.06c0,2.7-2.18,4.42-4.96,4.42-3.76,0-5.88-2.52-5.88-6.98,0-4.78,2.7-7.34,6.62-7.34,1.32,0,2.58.26,3.48.82l-.76,1.56c-.72-.48-1.68-.66-2.68-.66-2.84,0-4.66,1.78-4.66,5.28,0,.16,0,.32.02.5.8-1.2,2.28-1.84,4.02-1.84,2.78,0,4.8,1.66,4.8,4.24ZM35.73,312.14c0-1.64-1.24-2.7-3.2-2.7s-3.22,1.18-3.22,2.72c0,1.44,1.16,2.7,3.32,2.7,1.82,0,3.1-1.06,3.1-2.72Z"/>
    <path class="cls-3" d="M7.66,340.82l-1.88,1.96v3.54h-3.22v-14h3.22v6.54l6.2-6.54h3.6l-5.8,6.24,6.14,7.76h-3.78l-4.48-5.5Z"/>
    <path class="cls-3" d="M21,332.32v14h-1.98v-12.26h-3.16v-1.74h5.14Z"/>
    <path class="cls-3" d="M34.48,339.14c0,4.78-2.7,7.34-6.62,7.34-1.32,0-2.58-.26-3.48-.82l.76-1.56c.74.48,1.68.66,2.7.66,2.84,0,4.64-1.78,4.64-5.28v-.5c-.82,1.22-2.3,1.84-4.04,1.84-2.78,0-4.78-1.66-4.78-4.24s2.16-4.42,4.94-4.42c3.76,0,5.88,2.52,5.88,6.98ZM32.02,336.48c0-1.44-1.16-2.7-3.34-2.7-1.82,0-3.08,1.06-3.08,2.72s1.22,2.7,3.18,2.7,3.24-1.18,3.24-2.72Z"/>
  </g>
  <g>
    <path class="cls-3" d="M238.94,157.4c0,3.12-2.34,5.06-6.08,5.06h-2.82v3.86h-3.24v-14h6.06c3.74,0,6.08,1.94,6.08,5.08ZM235.66,157.4c0-1.54-1-2.44-2.98-2.44h-2.64v4.86h2.64c1.98,0,2.98-.9,2.98-2.42Z"/>
    <path class="cls-3" d="M240.15,160.94c0-3.24,2.5-5.54,5.92-5.54s5.9,2.3,5.9,5.54-2.48,5.54-5.9,5.54-5.92-2.3-5.92-5.54ZM248.82,160.94c0-1.86-1.18-2.98-2.74-2.98s-2.76,1.12-2.76,2.98,1.2,2.98,2.76,2.98,2.74-1.12,2.74-2.98Z"/>
    <path class="cls-3" d="M254.02,151.48h3.12v14.84h-3.12v-14.84Z"/>
    <path class="cls-3" d="M259.61,152.32c0-.98.78-1.74,1.94-1.74s1.94.72,1.94,1.68c0,1.04-.78,1.8-1.94,1.8s-1.94-.76-1.94-1.74ZM259.99,155.56h3.12v10.76h-3.12v-10.76Z"/>
    <path class="cls-3" d="M264.93,165.32l1.04-2.24c.96.62,2.42,1.04,3.74,1.04,1.44,0,1.98-.38,1.98-.98,0-1.76-6.5.04-6.5-4.26,0-2.04,1.84-3.48,4.98-3.48,1.48,0,3.12.34,4.14.94l-1.04,2.22c-1.06-.6-2.12-.8-3.1-.8-1.4,0-2,.44-2,1,0,1.84,6.5.06,6.5,4.3,0,2-1.86,3.42-5.08,3.42-1.82,0-3.66-.5-4.66-1.16Z"/>
    <path class="cls-3" d="M287.56,160.16v6.16h-3.12v-5.68c0-1.74-.8-2.54-2.18-2.54-1.5,0-2.58.92-2.58,2.9v5.32h-3.12v-14.84h3.12v5.2c.84-.84,2.04-1.28,3.42-1.28,2.54,0,4.46,1.48,4.46,4.76Z"/>
    <path class="cls-3" d="M300.94,161.82h-8.14c.3,1.34,1.44,2.16,3.08,2.16,1.14,0,1.96-.34,2.7-1.04l1.66,1.8c-1,1.14-2.5,1.74-4.44,1.74-3.72,0-6.14-2.34-6.14-5.54s2.46-5.54,5.74-5.54,5.6,2.12,5.6,5.58c0,.24-.04.58-.06.84ZM292.76,160h5.3c-.22-1.36-1.24-2.24-2.64-2.24s-2.44.86-2.66,2.24Z"/>
    <path class="cls-3" d="M314,151.48v14.84h-2.98v-1.24c-.78.94-1.92,1.4-3.36,1.4-3.04,0-5.38-2.16-5.38-5.54s2.34-5.54,5.38-5.54c1.32,0,2.44.42,3.22,1.3v-5.22h3.12ZM310.94,160.94c0-1.86-1.2-2.98-2.74-2.98s-2.76,1.12-2.76,2.98,1.2,2.98,2.76,2.98,2.74-1.12,2.74-2.98Z"/>
    <path class="cls-3" d="M334.82,157.4c0,3.12-2.34,5.06-6.08,5.06h-2.82v3.86h-3.24v-14h6.06c3.74,0,6.08,1.94,6.08,5.08ZM331.54,157.4c0-1.54-1-2.44-2.98-2.44h-2.64v4.86h2.64c1.98,0,2.98-.9,2.98-2.42Z"/>
    <path class="cls-3" d="M336.47,152.32c0-.98.78-1.74,1.94-1.74s1.94.72,1.94,1.68c0,1.04-.78,1.8-1.94,1.8s-1.94-.76-1.94-1.74ZM336.85,155.56h3.12v10.76h-3.12v-10.76Z"/>
    <path class="cls-3" d="M353.84,160.16v6.16h-3.12v-5.68c0-1.74-.8-2.54-2.18-2.54-1.5,0-2.58.92-2.58,2.9v5.32h-3.12v-10.76h2.98v1.26c.84-.92,2.1-1.42,3.56-1.42,2.54,0,4.46,1.48,4.46,4.76Z"/>
    <path class="cls-3" d="M367.22,161.82h-8.14c.3,1.34,1.44,2.16,3.08,2.16,1.14,0,1.96-.34,2.7-1.04l1.66,1.8c-1,1.14-2.5,1.74-4.44,1.74-3.72,0-6.14-2.34-6.14-5.54s2.46-5.54,5.74-5.54,5.6,2.12,5.6,5.58c0,.24-.04.58-.06.84ZM359.03,160h5.3c-.22-1.36-1.24-2.24-2.64-2.24s-2.44.86-2.66,2.24Z"/>
    <path class="cls-3" d="M235.72,187.38l-.48,3.88h2.78v1.46h-2.96l-.44,3.6h-1.42l.44-3.6h-3.78l-.44,3.6h-1.42l.44-3.6h-2.76v-1.46h2.94l.5-3.88h-2.8v-1.46h2.98l.44-3.6h1.42l-.44,3.6h3.76l.44-3.6h1.42l-.44,3.6h2.76v1.46h-2.94ZM234.3,187.38h-3.76l-.5,3.88h3.78l.48-3.88Z"/>
    <path class="cls-3" d="M250.96,192.06c0,2.7-2.18,4.42-4.96,4.42-3.76,0-5.88-2.52-5.88-6.98,0-4.78,2.7-7.34,6.62-7.34,1.32,0,2.58.26,3.48.82l-.76,1.56c-.72-.48-1.68-.66-2.68-.66-2.84,0-4.66,1.78-4.66,5.28,0,.16,0,.32.02.5.8-1.2,2.28-1.84,4.02-1.84,2.78,0,4.8,1.66,4.8,4.24ZM249.02,192.14c0-1.64-1.24-2.7-3.2-2.7s-3.22,1.18-3.22,2.72c0,1.44,1.16,2.7,3.32,2.7,1.82,0,3.1-1.06,3.1-2.72Z"/>
    <path class="cls-3" d="M256.76,182.32v14h-1.98v-12.26h-3.16v-1.74h5.14Z"/>
    <path class="cls-3" d="M270.2,189.14c0,4.78-2.7,7.34-6.62,7.34-1.32,0-2.58-.26-3.48-.82l.76-1.56c.74.48,1.68.66,2.7.66,2.84,0,4.64-1.78,4.64-5.28v-.5c-.82,1.22-2.3,1.84-4.04,1.84-2.78,0-4.78-1.66-4.78-4.24s2.16-4.42,4.94-4.42c3.76,0,5.88,2.52,5.88,6.98ZM267.74,186.48c0-1.44-1.16-2.7-3.34-2.7-1.82,0-3.08,1.06-3.08,2.72s1.22,2.7,3.18,2.7,3.24-1.18,3.24-2.72Z"/>
    <path class="cls-3" d="M283.12,192.36c0,2.54-2.16,4.12-5.58,4.12s-5.54-1.58-5.54-4.12c0-1.6.88-2.78,2.46-3.38-1.28-.6-1.96-1.64-1.96-3.02,0-2.34,2.02-3.8,5.04-3.8s5.08,1.46,5.08,3.8c0,1.38-.7,2.42-1.98,3.02,1.6.62,2.48,1.78,2.48,3.38ZM281.12,192.3c0-1.54-1.36-2.5-3.58-2.5s-3.54.96-3.54,2.5,1.32,2.56,3.54,2.56,3.58-.98,3.58-2.56ZM274.47,186.04c0,1.38,1.14,2.24,3.06,2.24s3.12-.86,3.12-2.24-1.24-2.26-3.12-2.26-3.06.86-3.06,2.26Z"/>
    <path class="cls-3" d="M295.96,192.36c0,2.54-2.16,4.12-5.58,4.12s-5.54-1.58-5.54-4.12c0-1.6.88-2.78,2.46-3.38-1.28-.6-1.96-1.64-1.96-3.02,0-2.34,2.02-3.8,5.04-3.8s5.08,1.46,5.08,3.8c0,1.38-.7,2.42-1.98,3.02,1.6.62,2.48,1.78,2.48,3.38ZM293.96,192.3c0-1.54-1.36-2.5-3.58-2.5s-3.54.96-3.54,2.5,1.32,2.56,3.54,2.56,3.58-.98,3.58-2.56ZM287.31,186.04c0,1.38,1.14,2.24,3.06,2.24s3.12-.86,3.12-2.24-1.24-2.26-3.12-2.26-3.06.86-3.06,2.26Z"/>
    <path class="cls-3" d="M307.34,192.2c0,2.36-1.74,4.28-5.3,4.28-2,0-3.96-.64-5.14-1.7l.92-1.58c.94.88,2.5,1.5,4.22,1.5,2.1,0,3.3-.96,3.3-2.48s-1.06-2.44-3.46-2.44h-1.12v-1.4l3.52-4.32h-6.74v-1.74h9.24v1.36l-3.66,4.52c2.8.26,4.22,1.84,4.22,4Z"/>
    <path class="cls-3" d="M235.72,226.32l-2.7-3.9h-2.98v3.9h-3.24v-14h6.06c3.74,0,6.08,1.94,6.08,5.08,0,2.1-1.06,3.64-2.88,4.42l3.14,4.5h-3.48ZM232.68,214.96h-2.64v4.88h2.64c1.98,0,2.98-.92,2.98-2.44s-1-2.44-2.98-2.44Z"/>
    <path class="cls-3" d="M256.88,219.14c0,4.78-2.7,7.34-6.62,7.34-1.32,0-2.58-.26-3.48-.82l.76-1.56c.74.48,1.68.66,2.7.66,2.84,0,4.64-1.78,4.64-5.28v-.5c-.82,1.22-2.3,1.84-4.04,1.84-2.78,0-4.78-1.66-4.78-4.24s2.16-4.42,4.94-4.42c3.76,0,5.88,2.52,5.88,6.98ZM254.42,216.48c0-1.44-1.16-2.7-3.34-2.7-1.82,0-3.08,1.06-3.08,2.72s1.22,2.7,3.18,2.7,3.24-1.18,3.24-2.72Z"/>
    <path class="cls-3" d="M268.86,212.32v1.36l-5.66,12.64h-2.12l5.54-12.26h-6.4v2.5h-1.92v-4.24h10.56Z"/>
    <path class="cls-3" d="M286.16,219.1h2.96v5.68c-1.54,1.16-3.66,1.78-5.66,1.78-4.4,0-7.64-3.02-7.64-7.24s3.24-7.24,7.7-7.24c2.46,0,4.5.84,5.86,2.42l-2.08,1.92c-1.02-1.08-2.2-1.58-3.62-1.58-2.72,0-4.58,1.82-4.58,4.48s1.86,4.48,4.54,4.48c.88,0,1.7-.16,2.52-.6v-4.1Z"/>
    <path class="cls-3" d="M301.42,212.32v14h-1.98v-12.26h-3.16v-1.74h5.14Z"/>
    <path class="cls-3" d="M314.3,222.12c0,2.42-1.72,4.36-5.3,4.36-1.98,0-3.94-.64-5.14-1.7l.92-1.58c.94.88,2.5,1.5,4.2,1.5,2.12,0,3.32-.98,3.32-2.5s-1-2.56-4.24-2.56h-3.18l.74-7.32h7.9v1.74h-6.22l-.38,3.84h1.56c4.18,0,5.82,1.74,5.82,4.22Z"/>
    <path class="cls-3" d="M325.7,224.58v1.74h-10.06v-1.36l5.7-5.5c1.48-1.44,1.76-2.32,1.76-3.2,0-1.44-1.02-2.32-2.98-2.32-1.5,0-2.72.48-3.58,1.52l-1.36-1.18c1.08-1.34,2.94-2.12,5.12-2.12,2.92,0,4.8,1.5,4.8,3.9,0,1.36-.4,2.58-2.3,4.4l-4.28,4.12h7.18Z"/>
    <path class="cls-3" d="M346.26,222.5c0,2.42-1.92,3.82-5.6,3.82h-7.24v-14h6.84c3.5,0,5.3,1.46,5.3,3.64,0,1.4-.72,2.48-1.86,3.08,1.56.5,2.56,1.7,2.56,3.46ZM336.63,214.76v3.3h3.22c1.58,0,2.44-.56,2.44-1.66s-.86-1.64-2.44-1.64h-3.22ZM343,222.16c0-1.18-.9-1.74-2.58-1.74h-3.78v3.46h3.78c1.68,0,2.58-.52,2.58-1.72Z"/>
    <path class="cls-3" d="M358.01,212.32v14h-1.98v-12.26h-3.16v-1.74h5.14Z"/>
    <path class="cls-3" d="M370.66,222.2c0,2.36-1.74,4.28-5.3,4.28-2,0-3.96-.64-5.14-1.7l.92-1.58c.94.88,2.5,1.5,4.22,1.5,2.1,0,3.3-.96,3.3-2.48s-1.06-2.44-3.46-2.44h-1.12v-1.4l3.52-4.32h-6.74v-1.74h9.24v1.36l-3.66,4.52c2.8.26,4.22,1.84,4.22,4Z"/>
    <path class="cls-3" d="M376.85,212.32v14h-1.98v-12.26h-3.16v-1.74h5.14Z"/>
    <path class="cls-3" d="M225.92,249.32c0-4.22,3.24-7.24,7.6-7.24,2.42,0,4.44.88,5.76,2.48l-2.08,1.92c-.94-1.08-2.12-1.64-3.52-1.64-2.62,0-4.48,1.84-4.48,4.48s1.86,4.48,4.48,4.48c1.4,0,2.58-.56,3.52-1.66l2.08,1.92c-1.32,1.62-3.34,2.5-5.78,2.5-4.34,0-7.58-3.02-7.58-7.24Z"/>
    <path class="cls-3" d="M250.34,252.2c0,2.36-1.74,4.28-5.3,4.28-2,0-3.96-.64-5.14-1.7l.92-1.58c.94.88,2.5,1.5,4.22,1.5,2.1,0,3.3-.96,3.3-2.48s-1.06-2.44-3.46-2.44h-1.12v-1.4l3.52-4.32h-6.74v-1.74h9.24v1.36l-3.66,4.52c2.8.26,4.22,1.84,4.22,4Z"/>
    <path class="cls-3" d="M263.04,252.06c0,2.7-2.18,4.42-4.96,4.42-3.76,0-5.88-2.52-5.88-6.98,0-4.78,2.7-7.34,6.62-7.34,1.32,0,2.58.26,3.48.82l-.76,1.56c-.72-.48-1.68-.66-2.68-.66-2.84,0-4.66,1.78-4.66,5.28,0,.16,0,.32.02.5.8-1.2,2.28-1.84,4.02-1.84,2.78,0,4.8,1.66,4.8,4.24ZM261.1,252.14c0-1.64-1.24-2.7-3.2-2.7s-3.22,1.18-3.22,2.72c0,1.44,1.16,2.7,3.32,2.7,1.82,0,3.1-1.06,3.1-2.72Z"/>
    <path class="cls-3" d="M239.54,286.32l-.02-8.4-4.12,6.92h-1.46l-4.1-6.74v8.22h-3.04v-14h2.68l5.24,8.7,5.16-8.7h2.66l.04,14h-3.04Z"/>
    <path class="cls-3" d="M245.19,279.32c0-4.56,2.44-7.16,5.72-7.16s5.7,2.6,5.7,7.16-2.44,7.16-5.7,7.16-5.72-2.6-5.72-7.16ZM254.62,279.32c0-3.58-1.52-5.38-3.7-5.38s-3.72,1.8-3.72,5.38,1.52,5.38,3.72,5.38,3.7-1.8,3.7-5.38Z"/>
    <path class="cls-3" d="M233.52,311.36v4.96h-3.24v-5l-5.42-9h3.44l3.74,6.22,3.74-6.22h3.18l-5.44,9.04Z"/>
    <path class="cls-3" d="M243.96,302.32v14h-1.98v-12.26h-3.16v-1.74h5.14Z"/>
    <path class="cls-3" d="M256.6,312.2c0,2.36-1.74,4.28-5.3,4.28-2,0-3.96-.64-5.14-1.7l.92-1.58c.94.88,2.5,1.5,4.22,1.5,2.1,0,3.3-.96,3.3-2.48s-1.06-2.44-3.46-2.44h-1.12v-1.4l3.52-4.32h-6.74v-1.74h9.24v1.36l-3.66,4.52c2.8.26,4.22,1.84,4.22,4Z"/>
    <path class="cls-3" d="M231.9,340.82l-1.88,1.96v3.54h-3.22v-14h3.22v6.54l6.2-6.54h3.6l-5.8,6.24,6.14,7.76h-3.78l-4.48-5.5Z"/>
    <path class="cls-3" d="M253.08,342.88h-2.66v3.44h-1.94v-3.44h-7.78v-1.4l7.16-9.16h2.16l-6.86,8.84h5.38v-3.04h1.88v3.04h2.66v1.72Z"/>
    <path class="cls-3" d="M254.27,339.32c0-4.56,2.44-7.16,5.72-7.16s5.7,2.6,5.7,7.16-2.44,7.16-5.7,7.16-5.72-2.6-5.72-7.16ZM263.7,339.32c0-3.58-1.52-5.38-3.7-5.38s-3.72,1.8-3.72,5.38,1.52,5.38,3.72,5.38,3.7-1.8,3.7-5.38Z"/>
  </g>
  <g>
    <path class="cls-3" d="M680.02,170.32l-.02-8.4-4.12,6.92h-1.46l-4.1-6.74v8.22h-3.04v-14h2.68l5.24,8.7,5.16-8.7h2.66l.04,14h-3.04Z"/>
    <path class="cls-3" d="M695.64,164.18v6.14h-2.92v-1.34c-.58.98-1.7,1.5-3.28,1.5-2.52,0-4.02-1.4-4.02-3.26s1.34-3.22,4.62-3.22h2.48c0-1.34-.8-2.12-2.48-2.12-1.14,0-2.32.38-3.1,1l-1.12-2.18c1.18-.84,2.92-1.3,4.64-1.3,3.28,0,5.18,1.52,5.18,4.78ZM692.52,166.92v-1.1h-2.14c-1.46,0-1.92.54-1.92,1.26,0,.78.66,1.3,1.76,1.3,1.04,0,1.94-.48,2.3-1.46Z"/>
    <path class="cls-3" d="M709.64,159.56v8.96c0,4-2.16,5.84-6.04,5.84-2.04,0-4.02-.5-5.28-1.48l1.24-2.24c.92.74,2.42,1.22,3.8,1.22,2.2,0,3.16-1,3.16-2.94v-.46c-.82.9-2,1.34-3.4,1.34-2.98,0-5.38-2.06-5.38-5.2s2.4-5.2,5.38-5.2c1.5,0,2.74.5,3.56,1.54v-1.38h2.96ZM706.56,164.6c0-1.58-1.18-2.64-2.82-2.64s-2.84,1.06-2.84,2.64,1.2,2.64,2.84,2.64,2.82-1.06,2.82-2.64Z"/>
    <path class="cls-3" d="M723.5,164.16v6.16h-3.12v-5.68c0-1.74-.8-2.54-2.18-2.54-1.5,0-2.58.92-2.58,2.9v5.32h-3.12v-10.76h2.98v1.26c.84-.92,2.1-1.42,3.56-1.42,2.54,0,4.46,1.48,4.46,4.76Z"/>
    <path class="cls-3" d="M725.6,164.94c0-3.24,2.5-5.54,5.92-5.54s5.9,2.3,5.9,5.54-2.48,5.54-5.9,5.54-5.92-2.3-5.92-5.54ZM734.26,164.94c0-1.86-1.18-2.98-2.74-2.98s-2.76,1.12-2.76,2.98,1.2,2.98,2.76,2.98,2.74-1.12,2.74-2.98Z"/>
    <path class="cls-3" d="M739.46,155.48h3.12v14.84h-3.12v-14.84Z"/>
    <path class="cls-3" d="M745.06,156.32c0-.98.78-1.74,1.94-1.74s1.94.72,1.94,1.68c0,1.04-.78,1.8-1.94,1.8s-1.94-.76-1.94-1.74ZM745.44,159.56h3.12v10.76h-3.12v-10.76Z"/>
    <path class="cls-3" d="M760.94,164.18v6.14h-2.92v-1.34c-.58.98-1.7,1.5-3.28,1.5-2.52,0-4.02-1.4-4.02-3.26s1.34-3.22,4.62-3.22h2.48c0-1.34-.8-2.12-2.48-2.12-1.14,0-2.32.38-3.1,1l-1.12-2.18c1.18-.84,2.92-1.3,4.64-1.3,3.28,0,5.18,1.52,5.18,4.78ZM757.82,166.92v-1.1h-2.14c-1.46,0-1.92.54-1.92,1.26,0,.78.66,1.3,1.76,1.3,1.04,0,1.94-.48,2.3-1.46Z"/>
    <path class="cls-3" d="M676.2,191.38l-.48,3.88h2.78v1.46h-2.96l-.44,3.6h-1.42l.44-3.6h-3.78l-.44,3.6h-1.42l.44-3.6h-2.76v-1.46h2.94l.5-3.88h-2.8v-1.46h2.98l.44-3.6h1.42l-.44,3.6h3.76l.44-3.6h1.42l-.44,3.6h2.76v1.46h-2.94ZM674.78,191.38h-3.76l-.5,3.88h3.78l.48-3.88Z"/>
    <path class="cls-3" d="M683.74,188.06v4.88h7.02v1.72h-7.02v5.66h-2v-14h9.88v1.74h-7.88Z"/>
    <path class="cls-3" d="M694.4,186.32h5.9c4.5,0,7.56,2.84,7.56,7s-3.06,7-7.56,7h-5.9v-14ZM700.18,198.58c3.46,0,5.68-2.12,5.68-5.26s-2.22-5.26-5.68-5.26h-3.78v10.52h3.78Z"/>
    <path class="cls-3" d="M712.88,188.06v4.88h7.02v1.72h-7.02v5.66h-2v-14h9.88v1.74h-7.88Z"/>
    <path class="cls-3" d="M722.14,193.32c0-4.56,2.44-7.16,5.72-7.16s5.7,2.6,5.7,7.16-2.44,7.16-5.7,7.16-5.72-2.6-5.72-7.16ZM731.56,193.32c0-3.58-1.52-5.38-3.7-5.38s-3.72,1.8-3.72,5.38,1.52,5.38,3.72,5.38,3.7-1.8,3.7-5.38Z"/>
    <path class="cls-3" d="M738.58,188.06v4.88h7.02v1.72h-7.02v5.66h-2v-14h9.88v1.74h-7.88Z"/>
    <path class="cls-3" d="M751.24,188.06v4.88h7.02v1.72h-7.02v5.66h-2v-14h9.88v1.74h-7.88Z"/>
    <path class="cls-3" d="M676.2,230.32l-2.7-3.9h-2.98v3.9h-3.24v-14h6.06c3.74,0,6.08,1.94,6.08,5.08,0,2.1-1.06,3.64-2.88,4.42l3.14,4.5h-3.48ZM673.16,218.96h-2.64v4.88h2.64c1.98,0,2.98-.92,2.98-2.44s-1-2.44-2.98-2.44Z"/>
    <path class="cls-3" d="M696.78,228.58v1.74h-10.06v-1.36l5.7-5.5c1.48-1.44,1.76-2.32,1.76-3.2,0-1.44-1.02-2.32-2.98-2.32-1.5,0-2.72.48-3.58,1.52l-1.36-1.18c1.08-1.34,2.94-2.12,5.12-2.12,2.92,0,4.8,1.5,4.8,3.9,0,1.36-.4,2.58-2.3,4.4l-4.28,4.12h7.18Z"/>
    <path class="cls-3" d="M708.24,226.12c0,2.42-1.72,4.36-5.3,4.36-1.98,0-3.94-.64-5.14-1.7l.92-1.58c.94.88,2.5,1.5,4.2,1.5,2.12,0,3.32-.98,3.32-2.5s-1-2.56-4.24-2.56h-3.18l.74-7.32h7.9v1.74h-6.22l-.38,3.84h1.56c4.18,0,5.82,1.74,5.82,4.22Z"/>
    <path class="cls-3" d="M719.38,226.2c0,2.36-1.74,4.28-5.3,4.28-2,0-3.96-.64-5.14-1.7l.92-1.58c.94.88,2.5,1.5,4.22,1.5,2.1,0,3.3-.96,3.3-2.48s-1.06-2.44-3.46-2.44h-1.12v-1.4l3.52-4.32h-6.74v-1.74h9.24v1.36l-3.66,4.52c2.8.26,4.22,1.84,4.22,4Z"/>
    <path class="cls-3" d="M736.78,223.1h2.96v5.68c-1.54,1.16-3.66,1.78-5.66,1.78-4.4,0-7.64-3.02-7.64-7.24s3.24-7.24,7.7-7.24c2.46,0,4.5.84,5.86,2.42l-2.08,1.92c-1.02-1.08-2.2-1.58-3.62-1.58-2.72,0-4.58,1.82-4.58,4.48s1.86,4.48,4.54,4.48c.88,0,1.7-.16,2.52-.6v-4.1Z"/>
    <path class="cls-3" d="M757.54,228.58v1.74h-10.06v-1.36l5.7-5.5c1.48-1.44,1.76-2.32,1.76-3.2,0-1.44-1.02-2.32-2.98-2.32-1.5,0-2.72.48-3.58,1.52l-1.36-1.18c1.08-1.34,2.94-2.12,5.12-2.12,2.92,0,4.8,1.5,4.8,3.9,0,1.36-.4,2.58-2.3,4.4l-4.28,4.12h7.18Z"/>
    <path class="cls-3" d="M770.98,226.88h-2.66v3.44h-1.94v-3.44h-7.78v-1.4l7.16-9.16h2.16l-6.86,8.84h5.38v-3.04h1.88v3.04h2.66v1.72Z"/>
    <path class="cls-3" d="M772.18,223.32c0-4.56,2.44-7.16,5.72-7.16s5.7,2.6,5.7,7.16-2.44,7.16-5.7,7.16-5.72-2.6-5.72-7.16ZM781.6,223.32c0-3.58-1.52-5.38-3.7-5.38s-3.72,1.8-3.72,5.38,1.52,5.38,3.72,5.38,3.7-1.8,3.7-5.38Z"/>
    <path class="cls-3" d="M804.44,226.5c0,2.42-1.92,3.82-5.6,3.82h-7.24v-14h6.84c3.5,0,5.3,1.46,5.3,3.64,0,1.4-.72,2.48-1.86,3.08,1.56.5,2.56,1.7,2.56,3.46ZM794.82,218.76v3.3h3.22c1.58,0,2.44-.56,2.44-1.66s-.86-1.64-2.44-1.64h-3.22ZM801.18,226.16c0-1.18-.9-1.74-2.58-1.74h-3.78v3.46h3.78c1.68,0,2.58-.52,2.58-1.72Z"/>
    <path class="cls-3" d="M821.7,228.58v1.74h-10.06v-1.36l5.7-5.5c1.48-1.44,1.76-2.32,1.76-3.2,0-1.44-1.02-2.32-2.98-2.32-1.5,0-2.72.48-3.58,1.52l-1.36-1.18c1.08-1.34,2.94-2.12,5.12-2.12,2.92,0,4.8,1.5,4.8,3.9,0,1.36-.4,2.58-2.3,4.4l-4.28,4.12h7.18Z"/>
    <path class="cls-3" d="M833.16,226.12c0,2.42-1.72,4.36-5.3,4.36-1.98,0-3.94-.64-5.14-1.7l.92-1.58c.94.88,2.5,1.5,4.2,1.5,2.12,0,3.32-.98,3.32-2.5s-1-2.56-4.24-2.56h-3.18l.74-7.32h7.9v1.74h-6.22l-.38,3.84h1.56c4.18,0,5.82,1.74,5.82,4.22Z"/>
    <path class="cls-3" d="M844.54,226.12c0,2.42-1.72,4.36-5.3,4.36-1.98,0-3.94-.64-5.14-1.7l.92-1.58c.94.88,2.5,1.5,4.2,1.5,2.12,0,3.32-.98,3.32-2.5s-1-2.56-4.24-2.56h-3.18l.74-7.32h7.9v1.74h-6.22l-.38,3.84h1.56c4.18,0,5.82,1.74,5.82,4.22Z"/>
    <path class="cls-3" d="M666.4,253.32c0-4.22,3.24-7.24,7.6-7.24,2.42,0,4.44.88,5.76,2.48l-2.08,1.92c-.94-1.08-2.12-1.64-3.52-1.64-2.62,0-4.48,1.84-4.48,4.48s1.86,4.48,4.48,4.48c1.4,0,2.58-.56,3.52-1.66l2.08,1.92c-1.32,1.62-3.34,2.5-5.78,2.5-4.34,0-7.58-3.02-7.58-7.24Z"/>
    <path class="cls-3" d="M681.24,253.32c0-4.56,2.44-7.16,5.72-7.16s5.7,2.6,5.7,7.16-2.44,7.16-5.7,7.16-5.72-2.6-5.72-7.16ZM690.66,253.32c0-3.58-1.52-5.38-3.7-5.38s-3.72,1.8-3.72,5.38,1.52,5.38,3.72,5.38,3.7-1.8,3.7-5.38Z"/>
    <path class="cls-3" d="M680.02,290.32l-.02-8.4-4.12,6.92h-1.46l-4.1-6.74v8.22h-3.04v-14h2.68l5.24,8.7,5.16-8.7h2.66l.04,14h-3.04Z"/>
    <path class="cls-3" d="M695.5,286.12c0,2.42-1.72,4.36-5.3,4.36-1.98,0-3.94-.64-5.14-1.7l.92-1.58c.94.88,2.5,1.5,4.2,1.5,2.12,0,3.32-.98,3.32-2.5s-1-2.56-4.24-2.56h-3.18l.74-7.32h7.9v1.74h-6.22l-.38,3.84h1.56c4.18,0,5.82,1.74,5.82,4.22Z"/>
    <path class="cls-3" d="M674,315.36v4.96h-3.24v-5l-5.42-9h3.44l3.74,6.22,3.74-6.22h3.18l-5.44,9.04Z"/>
    <path class="cls-3" d="M680.1,313.32c0-4.56,2.44-7.16,5.72-7.16s5.7,2.6,5.7,7.16-2.44,7.16-5.7,7.16-5.72-2.6-5.72-7.16ZM689.52,313.32c0-3.58-1.52-5.38-3.7-5.38s-3.72,1.8-3.72,5.38,1.52,5.38,3.72,5.38,3.7-1.8,3.7-5.38Z"/>
    <path class="cls-3" d="M672.38,344.82l-1.88,1.96v3.54h-3.22v-14h3.22v6.54l6.2-6.54h3.6l-5.8,6.24,6.14,7.76h-3.78l-4.48-5.5Z"/>
    <path class="cls-3" d="M681.38,343.32c0-4.56,2.44-7.16,5.72-7.16s5.7,2.6,5.7,7.16-2.44,7.16-5.7,7.16-5.72-2.6-5.72-7.16ZM690.8,343.32c0-3.58-1.52-5.38-3.7-5.38s-3.72,1.8-3.72,5.38,1.52,5.38,3.72,5.38,3.7-1.8,3.7-5.38Z"/>
  </g>
  <g>
    <path class="cls-3" d="M469.18,166.32l-2.7-3.9h-2.98v3.9h-3.24v-14h6.06c3.74,0,6.08,1.94,6.08,5.08,0,2.1-1.06,3.64-2.88,4.42l3.14,4.5h-3.48ZM466.14,154.96h-2.64v4.88h2.64c1.98,0,2.98-.92,2.98-2.44s-1-2.44-2.98-2.44Z"/>
    <path class="cls-3" d="M484.16,160.18v6.14h-2.92v-1.34c-.58.98-1.7,1.5-3.28,1.5-2.52,0-4.02-1.4-4.02-3.26s1.34-3.22,4.62-3.22h2.48c0-1.34-.8-2.12-2.48-2.12-1.14,0-2.32.38-3.1,1l-1.12-2.18c1.18-.84,2.92-1.3,4.64-1.3,3.28,0,5.18,1.52,5.18,4.78ZM481.04,162.92v-1.1h-2.14c-1.46,0-1.92.54-1.92,1.26,0,.78.66,1.3,1.76,1.3,1.04,0,1.94-.48,2.3-1.46Z"/>
    <path class="cls-3" d="M486.6,152.32c0-.98.78-1.74,1.94-1.74s1.94.72,1.94,1.68c0,1.04-.78,1.8-1.94,1.8s-1.94-.76-1.94-1.74ZM486.98,155.56h3.12v10.76h-3.12v-10.76Z"/>
    <path class="cls-3" d="M491.96,165.32l1.04-2.24c.96.62,2.42,1.04,3.74,1.04,1.44,0,1.98-.38,1.98-.98,0-1.76-6.5.04-6.5-4.26,0-2.04,1.84-3.48,4.98-3.48,1.48,0,3.12.34,4.14.94l-1.04,2.22c-1.06-.6-2.12-.8-3.1-.8-1.4,0-2,.44-2,1,0,1.84,6.5.06,6.5,4.3,0,2-1.86,3.42-5.08,3.42-1.82,0-3.66-.5-4.66-1.16Z"/>
    <path class="cls-3" d="M503.24,152.32c0-.98.78-1.74,1.94-1.74s1.94.72,1.94,1.68c0,1.04-.78,1.8-1.94,1.8s-1.94-.76-1.94-1.74ZM503.62,155.56h3.12v10.76h-3.12v-10.76Z"/>
    <path class="cls-3" d="M520.64,160.16v6.16h-3.12v-5.68c0-1.74-.8-2.54-2.18-2.54-1.5,0-2.58.92-2.58,2.9v5.32h-3.12v-10.76h2.98v1.26c.84-.92,2.1-1.42,3.56-1.42,2.54,0,4.46,1.48,4.46,4.76Z"/>
    <path class="cls-3" d="M542.18,162.5c0,2.42-1.92,3.82-5.6,3.82h-7.24v-14h6.84c3.5,0,5.3,1.46,5.3,3.64,0,1.4-.72,2.48-1.86,3.08,1.56.5,2.56,1.7,2.56,3.46ZM532.56,154.76v3.3h3.22c1.58,0,2.44-.56,2.44-1.66s-.86-1.64-2.44-1.64h-3.22ZM538.92,162.16c0-1.18-.9-1.74-2.58-1.74h-3.78v3.46h3.78c1.68,0,2.58-.52,2.58-1.72Z"/>
    <path class="cls-3" d="M544.42,151.48h3.12v14.84h-3.12v-14.84Z"/>
    <path class="cls-3" d="M559.96,160.18v6.14h-2.92v-1.34c-.58.98-1.7,1.5-3.28,1.5-2.52,0-4.02-1.4-4.02-3.26s1.34-3.22,4.62-3.22h2.48c0-1.34-.8-2.12-2.48-2.12-1.14,0-2.32.38-3.1,1l-1.12-2.18c1.18-.84,2.92-1.3,4.64-1.3,3.28,0,5.18,1.52,5.18,4.78ZM556.84,162.92v-1.1h-2.14c-1.46,0-1.92.54-1.92,1.26,0,.78.66,1.3,1.76,1.3,1.04,0,1.94-.48,2.3-1.46Z"/>
    <path class="cls-3" d="M562.09,160.94c0-3.24,2.5-5.54,6-5.54,2.26,0,4.04.98,4.82,2.74l-2.42,1.3c-.58-1.02-1.44-1.48-2.42-1.48-1.58,0-2.82,1.1-2.82,2.98s1.24,2.98,2.82,2.98c.98,0,1.84-.44,2.42-1.48l2.42,1.32c-.78,1.72-2.56,2.72-4.82,2.72-3.5,0-6-2.3-6-5.54Z"/>
    <path class="cls-3" d="M579.26,162.1l-1.5,1.48v2.74h-3.12v-14.84h3.12v8.4l4.56-4.32h3.72l-4.48,4.56,4.88,6.2h-3.78l-3.4-4.22Z"/>
    <path class="cls-3" d="M469.18,187.38l-.48,3.88h2.78v1.46h-2.96l-.44,3.6h-1.42l.44-3.6h-3.78l-.44,3.6h-1.42l.44-3.6h-2.76v-1.46h2.94l.5-3.88h-2.8v-1.46h2.98l.44-3.6h1.42l-.44,3.6h3.76l.44-3.6h1.42l-.44,3.6h2.76v1.46h-2.94ZM467.76,187.38h-3.76l-.5,3.88h3.78l.48-3.88Z"/>
    <path class="cls-3" d="M483.46,194.58v1.74h-10.06v-1.36l5.7-5.5c1.48-1.44,1.76-2.32,1.76-3.2,0-1.44-1.02-2.32-2.98-2.32-1.5,0-2.72.48-3.58,1.52l-1.36-1.18c1.08-1.34,2.94-2.12,5.12-2.12,2.92,0,4.8,1.5,4.8,3.9,0,1.36-.4,2.58-2.3,4.4l-4.28,4.12h7.18Z"/>
    <path class="cls-3" d="M496.9,192.88h-2.66v3.44h-1.94v-3.44h-7.78v-1.4l7.16-9.16h2.16l-6.86,8.84h5.38v-3.04h1.88v3.04h2.66v1.72Z"/>
    <path class="cls-3" d="M507.88,194.58v1.74h-10.06v-1.36l5.7-5.5c1.48-1.44,1.76-2.32,1.76-3.2,0-1.44-1.02-2.32-2.98-2.32-1.5,0-2.72.48-3.58,1.52l-1.36-1.18c1.08-1.34,2.94-2.12,5.12-2.12,2.92,0,4.8,1.5,4.8,3.9,0,1.36-.4,2.58-2.3,4.4l-4.28,4.12h7.18Z"/>
    <path class="cls-3" d="M521.32,192.88h-2.66v3.44h-1.94v-3.44h-7.78v-1.4l7.16-9.16h2.16l-6.86,8.84h5.38v-3.04h1.88v3.04h2.66v1.72Z"/>
    <path class="cls-3" d="M531.86,192.2c0,2.36-1.74,4.28-5.3,4.28-2,0-3.96-.64-5.14-1.7l.92-1.58c.94.88,2.5,1.5,4.22,1.5,2.1,0,3.3-.96,3.3-2.48s-1.06-2.44-3.46-2.44h-1.12v-1.4l3.52-4.32h-6.74v-1.74h9.24v1.36l-3.66,4.52c2.8.26,4.22,1.84,4.22,4Z"/>
    <path class="cls-3" d="M543.2,192.2c0,2.36-1.74,4.28-5.3,4.28-2,0-3.96-.64-5.14-1.7l.92-1.58c.94.88,2.5,1.5,4.22,1.5,2.1,0,3.3-.96,3.3-2.48s-1.06-2.44-3.46-2.44h-1.12v-1.4l3.52-4.32h-6.74v-1.74h9.24v1.36l-3.66,4.52c2.8.26,4.22,1.84,4.22,4Z"/>
    <path class="cls-3" d="M469.18,226.32l-2.7-3.9h-2.98v3.9h-3.24v-14h6.06c3.74,0,6.08,1.94,6.08,5.08,0,2.1-1.06,3.64-2.88,4.42l3.14,4.5h-3.48ZM466.14,214.96h-2.64v4.88h2.64c1.98,0,2.98-.92,2.98-2.44s-1-2.44-2.98-2.44Z"/>
    <path class="cls-3" d="M489.5,222.2c0,2.36-1.74,4.28-5.3,4.28-2,0-3.96-.64-5.14-1.7l.92-1.58c.94.88,2.5,1.5,4.22,1.5,2.1,0,3.3-.96,3.3-2.48s-1.06-2.44-3.46-2.44h-1.12v-1.4l3.52-4.32h-6.74v-1.74h9.24v1.36l-3.66,4.52c2.8.26,4.22,1.84,4.22,4Z"/>
    <path class="cls-3" d="M502.2,222.06c0,2.7-2.18,4.42-4.96,4.42-3.76,0-5.88-2.52-5.88-6.98,0-4.78,2.7-7.34,6.62-7.34,1.32,0,2.58.26,3.48.82l-.76,1.56c-.72-.48-1.68-.66-2.68-.66-2.84,0-4.66,1.78-4.66,5.28,0,.16,0,.32.02.5.8-1.2,2.28-1.84,4.02-1.84,2.78,0,4.8,1.66,4.8,4.24ZM500.26,222.14c0-1.64-1.24-2.7-3.2-2.7s-3.22,1.18-3.22,2.72c0,1.44,1.16,2.7,3.32,2.7,1.82,0,3.1-1.06,3.1-2.72Z"/>
    <path class="cls-3" d="M519.24,219.1h2.96v5.68c-1.54,1.16-3.66,1.78-5.66,1.78-4.4,0-7.64-3.02-7.64-7.24s3.24-7.24,7.7-7.24c2.46,0,4.5.84,5.86,2.42l-2.08,1.92c-1.02-1.08-2.2-1.58-3.62-1.58-2.72,0-4.58,1.82-4.58,4.48s1.86,4.48,4.54,4.48c.88,0,1.7-.16,2.52-.6v-4.1Z"/>
    <path class="cls-3" d="M539.74,222.2c0,2.36-1.74,4.28-5.3,4.28-2,0-3.96-.64-5.14-1.7l.92-1.58c.94.88,2.5,1.5,4.22,1.5,2.1,0,3.3-.96,3.3-2.48s-1.06-2.44-3.46-2.44h-1.12v-1.4l3.52-4.32h-6.74v-1.74h9.24v1.36l-3.66,4.52c2.8.26,4.22,1.84,4.22,4Z"/>
    <path class="cls-3" d="M552.44,222.06c0,2.7-2.18,4.42-4.96,4.42-3.76,0-5.88-2.52-5.88-6.98,0-4.78,2.7-7.34,6.62-7.34,1.32,0,2.58.26,3.48.82l-.76,1.56c-.72-.48-1.68-.66-2.68-.66-2.84,0-4.66,1.78-4.66,5.28,0,.16,0,.32.02.5.8-1.2,2.28-1.84,4.02-1.84,2.78,0,4.8,1.66,4.8,4.24ZM550.5,222.14c0-1.64-1.24-2.7-3.2-2.7s-3.22,1.18-3.22,2.72c0,1.44,1.16,2.7,3.32,2.7,1.82,0,3.1-1.06,3.1-2.72Z"/>
    <path class="cls-3" d="M572.86,222.5c0,2.42-1.92,3.82-5.6,3.82h-7.24v-14h6.84c3.5,0,5.3,1.46,5.3,3.64,0,1.4-.72,2.48-1.86,3.08,1.56.5,2.56,1.7,2.56,3.46ZM563.23,214.76v3.3h3.22c1.58,0,2.44-.56,2.44-1.66s-.86-1.64-2.44-1.64h-3.22ZM569.6,222.16c0-1.18-.9-1.74-2.58-1.74h-3.78v3.46h3.78c1.68,0,2.58-.52,2.58-1.72Z"/>
    <path class="cls-3" d="M590.1,222.12c0,2.42-1.72,4.36-5.3,4.36-1.98,0-3.94-.64-5.14-1.7l.92-1.58c.94.88,2.5,1.5,4.2,1.5,2.12,0,3.32-.98,3.32-2.5s-1-2.56-4.24-2.56h-3.18l.74-7.32h7.9v1.74h-6.22l-.38,3.84h1.56c4.18,0,5.82,1.74,5.82,4.22Z"/>
    <path class="cls-3" d="M596.09,212.32v14h-1.98v-12.26h-3.16v-1.74h5.14Z"/>
    <path class="cls-3" d="M459.38,249.32c0-4.22,3.24-7.24,7.6-7.24,2.42,0,4.44.88,5.76,2.48l-2.08,1.92c-.94-1.08-2.12-1.64-3.52-1.64-2.62,0-4.48,1.84-4.48,4.48s1.86,4.48,4.48,4.48c1.4,0,2.58-.56,3.52-1.66l2.08,1.92c-1.32,1.62-3.34,2.5-5.78,2.5-4.34,0-7.58-3.02-7.58-7.24Z"/>
    <path class="cls-3" d="M484.06,254.58v1.74h-10.06v-1.36l5.7-5.5c1.48-1.44,1.76-2.32,1.76-3.2,0-1.44-1.02-2.32-2.98-2.32-1.5,0-2.72.48-3.58,1.52l-1.36-1.18c1.08-1.34,2.94-2.12,5.12-2.12,2.92,0,4.8,1.5,4.8,3.9,0,1.36-.4,2.58-2.3,4.4l-4.28,4.12h7.18Z"/>
    <path class="cls-3" d="M496.12,249.14c0,4.78-2.7,7.34-6.62,7.34-1.32,0-2.58-.26-3.48-.82l.76-1.56c.74.48,1.68.66,2.7.66,2.84,0,4.64-1.78,4.64-5.28v-.5c-.82,1.22-2.3,1.84-4.04,1.84-2.78,0-4.78-1.66-4.78-4.24s2.16-4.42,4.94-4.42c3.76,0,5.88,2.52,5.88,6.98ZM493.66,246.48c0-1.44-1.16-2.7-3.34-2.7-1.82,0-3.08,1.06-3.08,2.72s1.22,2.7,3.18,2.7,3.24-1.18,3.24-2.72Z"/>
    <path class="cls-3" d="M473,286.32l-.02-8.4-4.12,6.92h-1.46l-4.1-6.74v8.22h-3.04v-14h2.68l5.24,8.7,5.16-8.7h2.66l.04,14h-3.04Z"/>
    <path class="cls-3" d="M488.5,284.58v1.74h-10.06v-1.36l5.7-5.5c1.48-1.44,1.76-2.32,1.76-3.2,0-1.44-1.02-2.32-2.98-2.32-1.5,0-2.72.48-3.58,1.52l-1.36-1.18c1.08-1.34,2.94-2.12,5.12-2.12,2.92,0,4.8,1.5,4.8,3.9,0,1.36-.4,2.58-2.3,4.4l-4.28,4.12h7.18Z"/>
    <path class="cls-3" d="M500.56,279.14c0,4.78-2.7,7.34-6.62,7.34-1.32,0-2.58-.26-3.48-.82l.76-1.56c.74.48,1.68.66,2.7.66,2.84,0,4.64-1.78,4.64-5.28v-.5c-.82,1.22-2.3,1.84-4.04,1.84-2.78,0-4.78-1.66-4.78-4.24s2.16-4.42,4.94-4.42c3.76,0,5.88,2.52,5.88,6.98ZM498.1,276.48c0-1.44-1.16-2.7-3.34-2.7-1.82,0-3.08,1.06-3.08,2.72s1.22,2.7,3.18,2.7,3.24-1.18,3.24-2.72Z"/>
    <path class="cls-3" d="M466.98,311.36v4.96h-3.24v-5l-5.42-9h3.44l3.74,6.22,3.74-6.22h3.18l-5.44,9.04Z"/>
    <path class="cls-3" d="M473.08,309.32c0-4.56,2.44-7.16,5.72-7.16s5.7,2.6,5.7,7.16-2.44,7.16-5.7,7.16-5.72-2.6-5.72-7.16ZM482.5,309.32c0-3.58-1.52-5.38-3.7-5.38s-3.72,1.8-3.72,5.38,1.52,5.38,3.72,5.38,3.7-1.8,3.7-5.38Z"/>
    <path class="cls-3" d="M465.36,340.82l-1.88,1.96v3.54h-3.22v-14h3.22v6.54l6.2-6.54h3.6l-5.8,6.24,6.14,7.76h-3.78l-4.48-5.5Z"/>
    <path class="cls-3" d="M485.4,342.36c0,2.54-2.16,4.12-5.58,4.12s-5.54-1.58-5.54-4.12c0-1.6.88-2.78,2.46-3.38-1.28-.6-1.96-1.64-1.96-3.02,0-2.34,2.02-3.8,5.04-3.8s5.08,1.46,5.08,3.8c0,1.38-.7,2.42-1.98,3.02,1.6.62,2.48,1.78,2.48,3.38ZM483.4,342.3c0-1.54-1.36-2.5-3.58-2.5s-3.54.96-3.54,2.5,1.32,2.56,3.54,2.56,3.58-.98,3.58-2.56ZM476.76,336.04c0,1.38,1.14,2.24,3.06,2.24s3.12-.86,3.12-2.24-1.24-2.26-3.12-2.26-3.06.86-3.06,2.26Z"/>
    <path class="cls-3" d="M487.24,339.32c0-4.56,2.44-7.16,5.72-7.16s5.7,2.6,5.7,7.16-2.44,7.16-5.7,7.16-5.72-2.6-5.72-7.16ZM496.66,339.32c0-3.58-1.52-5.38-3.7-5.38s-3.72,1.8-3.72,5.38,1.52,5.38,3.72,5.38,3.7-1.8,3.7-5.38Z"/>
  </g>
  <path class="cls-3" d="M214.61,447.28c0,2.35-1.1,3.55-3.55,3.55-1.92,0-2.98-.19-5.28-.19-2.54,0-3.55.14-5.38.14-2.06,0-3.55-1.1-3.55-3.5,0-2.21,1.54-3.5,3.55-3.5,1.78,0,2.74.14,5.47.14,1.92,0,3.36-.19,5.23-.19,2.45,0,3.5,1.3,3.5,3.55Z"/>
  <g>
    <path class="cls-3" d="M28.37,458.75c0-3.26.38-6.77.38-10.42,0-2.21,0-3.94-.05-6.1-1.97,5.14-4.32,11.18-5.42,13.54-1.1,2.3-2.35,3.41-4.42,3.41-2.3,0-3.84-.96-4.7-3.22-1.97-4.94-3.41-8.64-5.18-14.07-.05.96-.05,1.87-.05,2.74,0,5.47.19,9.41.19,13.73,0,2.83-1.49,4.7-4.42,4.7-3.26,0-4.7-1.54-4.7-4.46,0-3.84.34-7.44.34-11.62,0-3.07-.19-7.73-.19-10.8s1.97-5.14,6.05-5.14c3.84,0,5.81.91,7.15,4.27,2.3,5.86,3.6,8.64,5.76,12.91,2.35-4.71,3.89-7.97,6-12.77,1.39-3.17,3.31-4.32,7.01-4.32,4.27,0,6.05,2.06,6.05,5.62s-.19,6.72-.19,11.76c0,3.36.24,6.14.24,10.56,0,2.93-1.87,4.61-4.8,4.61-3.46,0-5.04-1.44-5.04-4.94Z"/>
    <path class="cls-3" d="M58.99,459.23c-1.49,2.74-4.46,4.13-8.26,4.13-5.28,0-8.78-2.59-8.78-7.3,0-3.98,3.22-7.54,11.81-7.54,1.1,0,2.35.14,3.65.38-.34-3.12-1.49-4.18-3.74-4.18-1.78,0-3.12.53-4.8,1.68-.86.58-1.78.96-2.78.96-1.73,0-2.98-1.2-2.98-3.07,0-2.59,3.17-5.09,11.18-5.09s11.71,3.36,11.71,10.13c0,7.73.19,8.4.82,8.4.29,0,.53-.19.82-.19.82,0,1.34.58,1.34,1.92,0,1.92-2.16,3.6-4.7,3.6-2.78,0-4.56-1.1-5.28-3.84ZM57.5,453.09c-.96-.14-1.92-.24-2.83-.24-2.88,0-4.13,1.3-4.13,2.93s1.25,2.69,3.07,2.69c2.16,0,3.6-1.3,3.89-5.38Z"/>
    <path class="cls-3" d="M75.55,463.55c-2.59,0-4.32-1.34-4.32-4.27,0-1.63.29-3.17.29-6.67,0-5.18-.43-7.25-.43-8.93,0-2.3,1.39-3.94,3.94-3.94,2.69,0,3.84,1.1,4.27,4.94,1.3-3.17,3.79-4.99,6.62-4.99,2.64,0,4.42,1.63,4.42,4.61,0,2.26-1.3,3.31-2.83,3.31-.43,0-.82-.1-1.49-.29-.48-.14-1.06-.29-1.63-.29-2.69,0-4.18,2.59-4.18,7.73,0,1.92.24,3.31.24,4.51,0,3.12-1.58,4.27-4.9,4.27Z"/>
    <path class="cls-3" d="M90.48,468.64c0-2.98,1.97-5.38,6.86-6.53-1.1-.72-1.63-1.73-1.63-2.88,0-1.44.77-2.88,2.93-3.79-4.37-1.15-6.82-3.84-6.82-7.39,0-4.94,4.22-8.59,12.29-8.59,1.39,0,2.69.1,3.84.34.77-5.33,2.64-7.3,5.18-7.3,2.21,0,4.13,1.44,4.13,3.46,0,1.39-.67,2.21-2.64,3.12-1.15.58-1.92,1.1-2.64,2.02,2.93,1.44,4.61,3.74,4.61,6.48,0,5.57-4.85,8.59-12.19,8.59h-.1c-.14.24-.24.48-.24.72,0,.86.53,1.34,2.45,1.49,7.92.58,11.09,3.31,11.09,7.44,0,5.86-6.62,9.89-15.46,9.89-6.86,0-11.67-2.69-11.67-7.06ZM108.82,467.54c0-1.44-1.01-2.59-6-2.93-2.74.58-3.79,1.92-3.79,3.22,0,1.63,1.58,2.59,4.27,2.59,3.26,0,5.52-1.25,5.52-2.88ZM107.47,448.05c0-2.5-1.25-4.18-3.36-4.18-2.26,0-3.5,1.58-3.5,4.08,0,2.64,1.3,4.13,3.6,4.13,1.82,0,3.26-1.39,3.26-4.03Z"/>
    <path class="cls-3" d="M129.17,433.07c0,2.78-1.58,4.8-4.51,4.8s-4.61-1.63-4.61-4.56c0-2.74,1.73-4.61,4.61-4.61,3.02,0,4.51,1.92,4.51,4.37ZM128.98,452.22c0,3.55.29,5.14.29,6.77,0,2.69-1.58,4.32-4.37,4.32-3.5,0-4.66-1.58-4.66-4.18,0-1.39.19-4.18.19-6.96,0-4.18-.38-6.67-.38-8.21,0-2.59,1.3-4.32,4.61-4.32s4.46,1.44,4.46,4.32c0,2.35-.14,4.08-.14,8.26Z"/>
    <path class="cls-3" d="M137.71,463.31c-2.98,0-4.61-1.54-4.61-4.42,0-1.68.38-4.9.38-7.01,0-4.7-.38-6.34-.38-8.54,0-2.35,1.39-3.89,3.98-3.89,2.4,0,3.65,1.1,3.98,4.8,1.44-3.31,4.56-5.23,8.45-5.23,5.76,0,8.5,3.6,8.5,9.5,0,3.5.1,5.9.24,7.1.19,2.02.62,2.78.62,4.03,0,2.16-1.54,3.6-4.13,3.6s-4.18-.96-4.9-3.12c-.43-1.39-.58-3.6-.58-9.17,0-3.74-.91-4.99-3.02-4.99-2.69,0-4.08,2.45-4.08,7.78,0,2.02.14,4.22.14,5.18,0,2.88-1.78,4.37-4.61,4.37Z"/>
    <path class="cls-3" d="M161.66,471.47c0-1.39.77-2.26,3.12-3.5,1.92-1.06,3.31-2.21,4.94-4.32-3.89-6.72-6.14-11.71-8.64-17.76-.48-1.2-.82-2.3-.82-3.22,0-2.3,1.44-3.74,4.22-3.74,2.5,0,3.7,1.01,4.8,4.8,1.39,4.8,2.69,8.35,4.37,12.19.82-2.74,1.63-6.14,2.59-11.28.67-3.79,2.26-5.38,5.14-5.38,2.35,0,3.6,1.01,3.6,3.12,0,.86-.24,1.78-.67,3.31-3.22,10.85-6,17.67-9.41,22.9-2.98,4.51-6.14,6.82-8.88,6.82-2.5,0-4.37-1.82-4.37-3.94Z"/>
    <path class="cls-3" d="M232.32,463.12c-2.78-.48-3.84-1.58-3.84-4.18s.53-6.53.53-11.86c0-4.7-.19-7.73-.19-11.76,0-2.5,1.34-3.89,3.84-4.03,3.22-.24,5.95-.24,8.98-.24,12.24,0,16.47,3.07,16.47,8.74,0,3.94-2.93,6.38-6.86,7.1,5.86.86,8.06,3.94,8.06,7.58,0,6.1-5.81,9.41-16.95,9.41-3.22,0-7.1-.29-10.03-.77ZM249.5,454.1c0-2.54-1.34-3.79-6.91-3.79h-4.37c0,2.64.05,4.75.14,7.06,1.58.19,3.17.29,4.42.29,4.7,0,6.72-1.3,6.72-3.55ZM248.3,440.61c0-2.26-1.39-3.41-6.1-3.41-.96,0-2.26.05-3.65.14-.1,1.82-.24,4.03-.29,6.67h5.09c3.5,0,4.94-1.2,4.94-3.41Z"/>
    <path class="cls-3" d="M261.69,451.55c0-6.72,4.42-12.29,13.3-12.29,8.26,0,13.54,4.22,13.54,11.67,0,7.83-5.33,12.39-13.25,12.39s-13.58-3.94-13.58-11.76ZM275.04,444.49c-2.64,0-4.18,2.4-4.18,6.62,0,4.66,1.73,6.86,4.42,6.86,2.35,0,4.03-2.26,4.03-6.43,0-4.7-1.54-7.06-4.27-7.06Z"/>
    <path class="cls-3" d="M291.98,444.93c0-7.34-.34-10.8-.34-13.01,0-2.69,1.68-4.66,4.66-4.66s4.37,1.73,4.37,4.71c0,4.75-.19,7.73-.19,14.45,0,5.52.43,9.74.43,12.96,0,2.78-1.44,4.32-4.46,4.32s-4.61-1.15-4.61-4.42c0-2.74.14-6.38.14-14.35Z"/>
    <path class="cls-3" d="M322.61,458.65c-1.68,3.46-5.09,5.14-8.59,5.14-5.81,0-9.98-4.13-9.98-11.76,0-6.58,3.55-12.72,11.04-12.72,2.26,0,4.37.62,6.48,2.5.1-4.66.19-8.3.24-9.7.19-3.41,1.68-4.61,4.56-4.61,3.02,0,4.42,1.3,4.42,4.66,0,3.12-.58,9.31-.58,17.67,0,5.81.43,7.2.43,9.6,0,2.59-1.34,3.94-4.03,3.94-2.4,0-3.55-1.3-3.98-4.71ZM321.45,450.06c0-1.15.05-2.3.05-3.41-1.2-1.2-2.5-1.82-3.65-1.82-2.88,0-4.7,2.64-4.7,7.15,0,4.08,1.54,6.14,3.94,6.14,2.54,0,4.27-2.3,4.37-8.06Z"/>
  </g>
  <g>
    <path d="M31.53,528.33c0-3.41.38-7.34.38-12.1,0-3.6-.05-6.58-.1-10.37-3.02,6-6.53,13.35-9.26,18-.91,1.63-1.73,2.4-3.02,2.4-1.39,0-2.26-.67-3.02-2.06-3.79-6.87-6.53-12.1-9.74-19.2-.05,2.88-.1,5.57-.1,8.45,0,5.47.19,9.31.19,14.02,0,2.06-.86,3.31-2.78,3.31s-2.83-1.06-2.83-3.07c0-4.66.29-8.54.29-13.39,0-3.84-.14-7.97-.14-11.95,0-2.16,1.39-3.41,3.89-3.41s3.79.62,4.8,2.78c3.36,7.2,5.66,11.38,9.5,17.52,3.79-6.43,6.34-11.19,9.6-17.38,1.15-2.16,2.21-2.83,4.61-2.83,2.64,0,3.74,1.39,3.74,3.79,0,4.51-.19,8.35-.19,13.58,0,3.5.19,7.49.19,12.15,0,1.87-1.1,3.02-2.93,3.02-2.11,0-3.07-1.01-3.07-3.26Z"/>
    <path d="M60.09,526.22c-1.49,3.17-4.9,4.99-8.93,4.99-5.04,0-8.4-2.64-8.4-7.15,0-3.94,3.36-7.3,11.14-7.3,1.54,0,3.6.29,5.42.77-.19-4.37-1.87-6.1-5.33-6.1-2.16,0-3.5.58-5.38,2.06-1.06.82-1.68,1.15-2.45,1.15-1.3,0-2.11-.91-2.11-2.16,0-2.4,3.84-4.75,10.13-4.75,7.01,0,10.32,3.55,10.32,9.41,0,9.74.29,10.32,1.3,10.32.58,0,.86-.38,1.25-.38.58,0,1.01.43,1.01,1.3,0,1.34-1.63,2.54-3.6,2.54-2.45,0-3.98-1.15-4.37-4.71ZM59.27,520.65c-1.63-.38-3.41-.62-5.09-.62-4.18,0-6.14,1.73-6.14,3.94,0,2.35,1.92,3.7,4.85,3.7,3.46,0,5.9-1.87,6.38-7.01Z"/>
    <path d="M71.46,528.33c0-2.11.29-3.89.29-7.73,0-6.19-.62-8.26-.62-9.75s.91-2.54,2.5-2.54c1.97,0,2.69,1.15,2.83,6.43,1.39-4.08,4.32-6.67,7.68-6.67,2.54,0,4.46,1.34,4.46,3.41,0,1.34-.82,2.02-1.82,2.02-.43,0-.82-.1-1.54-.43-.53-.24-1.15-.38-2.02-.38-3.79,0-6.29,4.66-6.29,10.75,0,2.16.19,3.98.19,4.9,0,2.21-.96,3.07-2.93,3.07-1.68,0-2.74-.96-2.74-3.07Z"/>
    <path d="M88.84,536.59c0-3.31,2.59-5.86,7.92-7.1-.96-.62-1.44-1.49-1.44-2.54,0-1.15.72-2.35,2.5-3.26-4.32-1.06-6.82-3.84-6.82-7.44,0-4.56,3.89-8.3,10.99-8.3,1.39,0,2.69.14,3.84.43,1.34-4.9,3.55-7.3,6.1-7.3,1.34,0,2.45.91,2.45,2.21,0,1.01-.48,1.78-2.02,2.54-1.44.72-2.54,1.82-3.5,3.7,2.69,1.44,4.18,3.79,4.18,6.38,0,5.09-4.37,8.3-10.85,8.3h-.96c-.53.48-.72,1.01-.72,1.49,0,.77.58,1.44,2.69,1.63,8.16.82,11.23,3.12,11.23,6.96,0,5.62-6.58,9.26-14.64,9.26-6.29,0-10.94-2.64-10.94-6.96ZM108.95,535.24c0-2.02-1.63-3.36-8.16-3.98-4.7.91-6.43,2.93-6.43,4.85,0,2.3,2.16,3.65,6.19,3.65,4.85,0,8.4-1.78,8.4-4.51ZM107.46,516.28c0-3.07-2.11-4.99-5.47-4.99s-5.62,1.87-5.62,4.75c0,3.07,2.02,4.94,5.86,4.94,2.88,0,5.23-1.54,5.23-4.7Z"/>
    <path d="M124.55,501.21c0,2.54-1.1,3.89-2.98,3.89-1.97,0-3.07-1.2-3.07-3.65,0-2.11,1.15-3.5,3.07-3.5s2.98,1.34,2.98,3.26ZM124.17,520.6c0,4.46.34,6.05.34,7.63,0,2.02-.96,3.12-2.74,3.12-2.11,0-2.88-1.06-2.88-3.02,0-1.2.19-4.99.19-8.02,0-4.75-.38-7.92-.38-9.22,0-1.92.86-2.98,2.88-2.98s2.69.91,2.69,2.98c0,1.82-.1,4.32-.1,9.5Z"/>
    <path d="M147.98,528.48c-.38-1.63-.48-4.13-.48-10.27,0-4.42-1.68-6.24-4.75-6.24-4.13,0-6.72,4.18-6.72,9.94,0,3.17.1,5.23.1,6.14,0,2.16-1.06,3.12-2.83,3.12-1.92,0-2.88-1.06-2.88-3.22,0-2.02.38-5.04.38-7.54,0-6.48-.62-8.11-.62-10.18,0-1.44.86-2.4,2.45-2.4,1.82,0,2.64,1.1,2.78,6.14,1.39-3.79,4.9-6.43,9.12-6.43,5.38,0,8.26,3.46,8.26,9.26,0,4.66.1,7.15.29,8.54.24,1.97.67,2.54.67,3.6,0,1.34-.96,2.3-2.59,2.3s-2.74-.77-3.17-2.78Z"/>
    <path d="M157.77,540.81c0-.91.48-1.68,2.06-2.4,2.98-1.34,4.37-2.5,6.82-6.62-4.18-7.15-6.82-12.82-9.6-19.35-.34-.77-.62-1.73-.62-2.35,0-1.49.91-2.45,2.54-2.45s2.4.91,3.17,3.07c2.26,6.43,4.22,10.9,7.01,16.23,1.78-3.98,3.36-8.74,5.04-15.75.58-2.35,1.49-3.41,3.26-3.41,1.49,0,2.35.62,2.35,2.11,0,.58-.14,1.15-.43,2.11-3.65,11.09-6.91,19.11-10.46,24.53-2.88,4.51-6.19,6.72-8.35,6.72-1.63,0-2.78-1.1-2.78-2.45Z"/>
    <path d="M210.23,515.27c0,1.44-.77,2.3-2.64,2.3-1.78,0-3.07-.19-5.57-.19-3.17,0-4.22.14-6,.14-1.63,0-2.64-.91-2.64-2.21,0-1.54.96-2.26,2.69-2.26,1.87,0,2.69.14,5.66.14,2.11,0,3.7-.19,5.76-.19,1.92,0,2.74.86,2.74,2.26Z"/>
    <path d="M256.65,528.33c0-3.41.38-7.34.38-12.1,0-3.6-.05-6.58-.1-10.37-3.02,6-6.53,13.35-9.26,18-.91,1.63-1.73,2.4-3.02,2.4-1.39,0-2.26-.67-3.02-2.06-3.79-6.87-6.53-12.1-9.74-19.2-.05,2.88-.1,5.57-.1,8.45,0,5.47.19,9.31.19,14.02,0,2.06-.86,3.31-2.78,3.31s-2.83-1.06-2.83-3.07c0-4.66.29-8.54.29-13.39,0-3.84-.14-7.97-.14-11.95,0-2.16,1.39-3.41,3.89-3.41s3.79.62,4.8,2.78c3.36,7.2,5.66,11.38,9.5,17.52,3.79-6.43,6.34-11.19,9.6-17.38,1.15-2.16,2.21-2.83,4.61-2.83,2.64,0,3.74,1.39,3.74,3.79,0,4.51-.19,8.35-.19,13.58,0,3.5.19,7.49.19,12.15,0,1.87-1.1,3.02-2.93,3.02-2.11,0-3.07-1.01-3.07-3.26Z"/>
    <path d="M280.21,531.12c-6.77,0-12.1-3.79-12.1-11.09s5.14-12.43,12.91-12.43c6,0,9.84,3.12,9.84,7.15,0,4.66-4.03,7.15-10.61,7.15-2.16,0-4.7-.43-6.86-1.06.29,4.42,3.02,6.67,7.2,6.67,2.02,0,4.03-.86,6.53-3.26.82-.77,1.34-1.06,2.02-1.06,1.2,0,2.21.96,2.21,2.21,0,2.35-4.75,5.71-11.14,5.71ZM285.83,514.89c0-2.16-1.97-3.89-5.04-3.89-3.41,0-6.24,2.64-7.15,6.38,1.97.67,4.18,1.06,6.38,1.06,3.65,0,5.81-1.34,5.81-3.55Z"/>
    <path d="M314.34,525.21c-1.92,4.46-5.76,6.38-9.46,6.38-5.66,0-9.99-4.46-9.99-11.57,0-6.58,3.79-12.48,11.19-12.48,2.54,0,5.23.96,7.78,3.26,0-6.38,0-10.66.1-12.1.1-2.45,1.01-3.36,2.83-3.36s2.78.86,2.78,3.22c0,3.22-.48,9.12-.48,19.25,0,7.06.48,8.54.48,10.46s-.77,2.74-2.5,2.74-2.45-1.06-2.74-5.81ZM313.81,517.19v-2.93c-1.97-2.02-4.37-3.12-6.43-3.12-4.18,0-6.96,3.6-6.96,8.98,0,4.56,2.5,7.78,6.19,7.78,3.89,0,7.15-3.94,7.2-10.71Z"/>
    <path d="M331.48,501.21c0,2.54-1.1,3.89-2.98,3.89-1.97,0-3.07-1.2-3.07-3.65,0-2.11,1.15-3.5,3.07-3.5s2.98,1.34,2.98,3.26ZM331.09,520.6c0,4.46.34,6.05.34,7.63,0,2.02-.96,3.12-2.74,3.12-2.11,0-2.88-1.06-2.88-3.02,0-1.2.19-4.99.19-8.02,0-4.75-.38-7.92-.38-9.22,0-1.92.86-2.98,2.88-2.98s2.69.91,2.69,2.98c0,1.82-.1,4.32-.1,9.5Z"/>
    <path d="M354.18,525.5c-1.54,3.74-4.9,5.86-8.45,5.86-6.05,0-9.02-3.46-9.02-11.14,0-4.27.19-6.87.58-9.6.29-1.97,1.3-2.83,2.83-2.83,1.87,0,2.69,1.01,2.69,2.88s-.86,4.03-.86,9.41c0,4.85,1.82,7.01,5.09,7.01,3.6,0,6.43-3.02,6.43-8.78,0-3.65-.34-6.14-.34-8.11s.82-3.02,2.78-3.02,2.93.96,2.93,3.41c0,3.17-.14,5.14-.14,8.93,0,5.81,1.06,7.58,1.06,9.36,0,1.25-.86,2.11-2.26,2.11-1.06,0-1.73-.29-2.26-1.25-.53-.96-.91-2.45-1.06-4.22Z"/>
    <path d="M368.48,531.45c-1.78,0-2.78-1.06-2.78-3.41s.14-3.41.14-7.15c0-6.58-.82-9.07-.82-10.71,0-1.44.86-2.35,2.4-2.35,1.82,0,2.64,1.06,2.88,6.05,1.73-3.94,4.8-6.48,8.54-6.48s6.19,1.97,7.25,5.81c1.63-3.41,4.61-5.81,8.45-5.81,5.71,0,8.4,3.74,8.4,9.31,0,5.91.05,7.15.34,8.88.24,1.68.48,2.02.48,2.98,0,1.2-.77,2.3-2.54,2.3s-2.83-.82-3.26-2.98c-.29-1.63-.38-4.03-.38-9.31,0-4.85-1.58-7.01-4.61-7.01-3.36,0-5.76,3.41-5.76,9.65,0,2.16.29,4.66.29,6.82s-1.06,3.17-2.93,3.17-2.88-.96-2.88-3.36c0-2.11.29-4.56.29-6.87,0-6.96-1.68-9.17-4.66-9.17-3.5,0-6.29,4.08-6.29,10.18,0,2.59.24,4.18.24,6.34s-.91,3.12-2.78,3.12Z"/>
  </g>
</svg>